{
.appVersion = "3326";
.formatVersion = 3;
DisplayStrings = (
"ŀl"
);
classes = (
{
automatic = 1;
code = "A B C D E F G H I J K L M N O P Q R S T U V W X Y Z Aacute Abreve Acircumflex Adieresis Agrave Amacron Aogonek Aring Atilde AE AEacute Cacute Ccaron Ccedilla Ccircumflex Cdotaccent Eth Dcaron Dcroat Eacute Ebreve Ecaron Ecircumflex Edieresis Edotaccent Egrave Emacron Eogonek Gbreve Gcircumflex Gcommaaccent Gdotaccent Hbar Hcircumflex Iacute Ibreve Icircumflex Idieresis Idotaccent Igrave Imacron Iogonek Itilde Jcircumflex Kcommaaccent Lacute Lcaron Lcommaaccent Ldot Lslash Nacute Ncaron Ncommaaccent Eng Ntilde Oacute Obreve Ocircumflex Odieresis Ograve Ohungarumlaut Omacron Oslash Oslashacute Otilde OE Thorn Racute Rcaron Rcommaaccent Sacute Scaron Scircumflex Scommaaccent Germandbls Tbar Tcaron Tcommaaccent Uacute Ubreve Ucircumflex Udieresis Ugrave Uhungarumlaut Umacron Uogonek Uring Utilde Wacute Wcircumflex Wdieresis Wgrave Yacute Ycircumflex Ydieresis Ygrave Zacute Zcaron Zdotaccent Delta Mu Omega";
name = Uppercase;
}
);
customParameters = (
{
disabled = 1;
name = glyphOrder;
value = (
.notdef,
.null,
CR,
nbspace,
space,
A,
B,
C,
D,
E,
F,
G,
H,
I,
J,
K,
L,
M,
N,
O,
P,
Q,
R,
S,
T,
U,
V,
W,
X,
Y,
Z,
a,
b,
c,
d,
e,
f,
g,
g.ss01,
h,
i,
j,
k,
l,
m,
n,
o,
p,
q,
r,
s,
t,
u,
v,
w,
x,
y,
z,
Aacute,
Abreve,
Acircumflex,
Adieresis,
Agrave,
Amacron,
Aogonek,
Aring,
Atilde,
AE,
AEacute,
Cacute,
Ccaron,
Ccedilla,
Ccircumflex,
Cdotaccent,
Eth,
Dcaron,
Dcroat,
Eacute,
Ebreve,
Ecaron,
Ecircumflex,
Edieresis,
Edotaccent,
Egrave,
Emacron,
Eogonek,
Gbreve,
Gcircumflex,
Gcommaaccent,
Gdotaccent,
Hbar,
Hcircumflex,
Iacute,
Ibreve,
Icircumflex,
Idieresis,
Idotaccent,
Igrave,
IJ,
Imacron,
Iogonek,
Itilde,
Jcircumflex,
Kcommaaccent,
Lacute,
Lcaron,
Lcommaaccent,
Ldot,
Lslash,
Nacute,
Ncaron,
Ncommaaccent,
Eng,
Ntilde,
Oacute,
Obreve,
Ocircumflex,
Odieresis,
Ograve,
Ohungarumlaut,
Omacron,
Oslash,
Oslashacute,
Otilde,
OE,
Thorn,
Racute,
Rcaron,
Rcommaaccent,
Sacute,
Scaron,

glyphs = (
{
glyphname = A;
kernLeft = A;
kernRight = A;
lastChange = "2024-12-19 13:17:24 +0000";
layers = (
{
anchors = (
{
name = bottom;
pos = (327,0);
},
{
name = ogonek;
pos = (644,0);
},
{
name = top;
pos = (327,710);
}
);
background = {
anchors = (
{
name = bottom;
pos = (327,0);
},
{
name = ogonek;
pos = (644,0);
},
{
name = top;
pos = (327,710);
}
);
shapes = (
{
closed = 1;
nodes = (
(98,0,l),
(175,213,l),
(182,236,l),
(327,635,l),
(323,635,l),
(468,236,l),
(475,213,l),
(552,0,l),
(643,0,l),
(377,710,l),
(276,710,l),
(10,0,l)
);
},
{
closed = 1;
nodes = (
(495,198,l),
(495,267,l),
(154,267,l),
(154,198,l)
);
}
);
};
layerId = "E39CE873-C6CB-4040-8FBA-1D86B139B3E5";
shapes = (
{
closed = 1;
nodes = (
(98,0,l),
(175,213,l),
(182,236,l),
(327,635,l),
(323,635,l),
(468,236,l),
(475,213,l),
(552,0,l),
(643,0,l),
(377,710,l),
(276,710,l),
(10,0,l)
);
},
{
closed = 1;
nodes = (
(495,198,l),
(495,267,l),
(154,267,l),
(154,198,l)
);
}
);
width = 653;
}
);
note = A;
unicode = 65;
},
{
glyphname = Aacute;
kernLeft = A;
kernRight = A;
lastChange = "2024-12-19 13:17:37 +0000";
layers = (
{
background = {
anchors = (
{
name = bottom;
pos = (327,0);
},
{
name = ogonek;
pos = (644,0);
},
{
name = top;
pos = (370,913);
}
);
shapes = (
{
closed = 1;
nodes = (
(98,0,l),
(175,213,l),
(182,236,l),
(327,635,l),
(323,635,l),
(468,236,l),
(475,213,l),
(552,0,l),
(643,0,l),
(377,710,l),
(276,710,l),
(10,0,l)
);
},
{
closed = 1;
nodes = (
(495,198,l),
(495,267,l),
(154,267,l),
(154,198,l)
);
},
{
closed = 1;
nodes = (
(448,893,l),
(385,913,l),
(292,778,l),
(348,768,l)
);
}
);
};
layerId = "E39CE873-C6CB-4040-8FBA-1D86B139B3E5";
shapes = (
{
ref = A;
},
{
pos = (292,0);
ref = acutecomb.case;
}
);
width = 653;
}
);
unicode = 193;
},
{
glyphname = Abreve;
kernLeft = A;
kernRight = A;
lastChange = "2024-12-19 13:17:37 +0000";
layers = (
{
background = {
anchors = (
{
name = bottom;
pos = (327,0);
},
{
name = ogonek;
pos = (644,0);
},
{
name = top;
pos = (327,908);
}
);
shapes = (
{
closed = 1;
nodes = (
(98,0,l),
(175,213,l),
(182,236,l),
(327,635,l),
(323,635,l),
(468,236,l),
(475,213,l),
(552,0,l),
(643,0,l),
(377,710,l),
(276,710,l),
(10,0,l)
);
},
{
closed = 1;
nodes = (
(495,198,l),
(495,267,l),
(154,267,l),
(154,198,l)
);
},
{
closed = 1;
nodes = (
(411,778,o),
(471,829,o),
(475,908,c),
(411,908,l),
(407,870,o),
(386,829,o),
(327,829,cs),
(268,829,o),
(247,870,o),
(243,908,c),
(179,908,l),
(183,829,o),
(243,778,o),
(327,778,cs)
);
}
);
};
layerId = "E39CE873-C6CB-4040-8FBA-1D86B139B3E5";
shapes = (
{
ref = A;
},
{
pos = (179,0);
ref = brevecomb.case;
}
);
width = 653;
}
);
unicode = 258;
},
{
glyphname = Acircumflex;
kernLeft = A;
kernRight = A;
lastChange = "2024-12-19 13:17:37 +0000";
layers = (
{
background = {
anchors = (
{
name = bottom;
pos = (327,0);
},
{
name = ogonek;
pos = (644,0);
},
{
name = top;
pos = (327,898);
}
);
shapes = (
{
closed = 1;
nodes = (
(98,0,l),
(175,213,l),
(182,236,l),
(327,635,l),
(323,635,l),
(468,236,l),
(475,213,l),
(552,0,l),
(643,0,l),
(377,710,l),
(276,710,l),
(10,0,l)
);
},
{
closed = 1;
nodes = (
(495,198,l),
(495,267,l),
(154,267,l),
(154,198,l)
);
},
{
closed = 1;
nodes = (
(253,768,l),
(344,875,l),
(313,875,l),
(401,768,l),
(471,768,l),
(362,898,l),
(292,898,l),
(183,768,l)
);
}
);
};
layerId = "E39CE873-C6CB-4040-8FBA-1D86B139B3E5";
shapes = (
{
ref = A;
},
{
pos = (179,0);
ref = circumflexcomb.case;
}
);
width = 653;
}
);
unicode = 194;
},
{
glyphname = Adieresis;
kernLeft = A;
kernRight = A;
lastChange = "2024-12-19 13:17:37 +0000";
layers = (
{
background = {
anchors = (
{
name = bottom;
pos = (327,0);
},
{
name = ogonek;
pos = (644,0);
},
{
name = top;
pos = (327,896);
}
);
shapes = (
{
closed = 1;
nodes = (
(98,0,l),
(175,213,l),
(182,236,l),
(327,635,l),
(323,635,l),
(468,236,l),
(475,213,l),
(552,0,l),
(643,0,l),
(377,710,l),
(276,710,l),
(10,0,l)
);
},
{
closed = 1;
nodes = (
(495,198,l),
(495,267,l),
(154,267,l),
(154,198,l)
);
},
{
closed = 1;
nodes = (
(287,806,l),
(287,896,l),
(204,896,l),
(204,806,l)
);
},
{
closed = 1;
nodes = (
(450,806,l),
(450,896,l),
(367,896,l),
(367,806,l)
);
}
);
};
layerId = "E39CE873-C6CB-4040-8FBA-1D86B139B3E5";
shapes = (
{
ref = A;
},
{
pos = (204,0);
ref = dieresiscomb.case;
}
);
width = 653;
}
);
unicode = 196;
},
{
glyphname = Agrave;
kernLeft = A;
kernRight = A;
lastChange = "2024-12-19 13:17:37 +0000";
layers = (
{
background = {
anchors = (
{
name = bottom;
pos = (327,0);
},
{
name = ogonek;
pos = (644,0);
},
{
name = top;
pos = (284,913);
}
);
shapes = (
{
closed = 1;
nodes = (
(98,0,l),
(175,213,l),
(182,236,l),
(327,635,l),
(323,635,l),
(468,236,l),
(475,213,l),
(552,0,l),
(643,0,l),
(377,710,l),
(276,710,l),
(10,0,l)
);
},
{
closed = 1;
nodes = (
(495,198,l),
(495,267,l),
(154,267,l),
(154,198,l)
);
},
{
closed = 1;
nodes = (
(362,778,l),
(269,913,l),
(206,893,l),
(306,768,l)
);
}
);
};
layerId = "E39CE873-C6CB-4040-8FBA-1D86B139B3E5";
shapes = (
{
ref = A;
},
{
pos = (206,0);
ref = gravecomb.case;
}
);
width = 653;
}
);
unicode = 192;
},
{
glyphname = Amacron;
kernLeft = A;
kernRight = A;
lastChange = "2024-12-19 13:17:37 +0000";
layers = (
{
background = {
anchors = (
{
name = bottom;
pos = (327,0);
},
{
name = ogonek;
pos = (644,0);
},
{
name = top;
pos = (327,850);
}
);
shapes = (
{
closed = 1;
nodes = (
(98,0,l),
(175,213,l),
(182,236,l),
(327,635,l),
(323,635,l),
(468,236,l),
(475,213,l),
(552,0,l),
(643,0,l),
(377,710,l),
(276,710,l),
(10,0,l)
);
},
{
closed = 1;
nodes = (
(495,198,l),
(495,267,l),
(154,267,l),
(154,198,l)
);
},
{
closed = 1;
nodes = (
(492,795,l),
(492,850,l),
(161,850,l),
(161,795,l)
);
}
);
};
layerId = "E39CE873-C6CB-4040-8FBA-1D86B139B3E5";
shapes = (
{
ref = A;
},
{
pos = (161,0);
ref = macroncomb.case;
}
);
width = 653;
}
);
unicode = 256;
},
{
glyphname = Aogonek;
kernLeft = A;
kernRight = A;
lastChange = "2024-12-19 13:17:24 +0000";
layers = (
{
background = {
shapes = (
{
closed = 1;
nodes = (
(635,-105,l),
(603,-108,o),
(564,-101,o),
(564,-63,cs),
(564,-45,o),
(572,-25,o),
(605,0,c),
(643,0,l),
(377,710,l),
(276,710,l),
(10,0,l),
(98,0,l),
(175,213,l),
(182,236,l),
(325,629,l),
(468,236,l),
(475,213,l),
(548,12,l),
(518,-14,o),
(498,-45,o),
(498,-80,cs),
(498,-152,o),
(582,-170,o),
(635,-158,c)
);
},
{
closed = 1;
nodes = (
(495,198,l),
(495,267,l),
(154,267,l),
(154,198,l)
);
}
);
};
layerId = "E39CE873-C6CB-4040-8FBA-1D86B139B3E5";
shapes = (
{
closed = 1;
nodes = (
(635,-105,l),
(603,-108,o),
(564,-101,o),
(564,-63,cs),
(564,-45,o),
(572,-25,o),
(605,0,c),
(643,0,l),
(377,710,l),
(276,710,l),
(10,0,l),
(98,0,l),
(175,213,l),
(182,236,l),
(325,629,l),
(468,236,l),
(475,213,l),
(548,12,l),
(518,-14,o),
(498,-45,o),
(498,-80,cs),
(498,-152,o),
(582,-170,o),
(635,-158,c)
);
},
{
closed = 1;
nodes = (
(495,198,l),
(495,267,l),
(154,267,l),
(154,198,l)
);
}
);
width = 653;
}
);
unicode = 260;
},
{
glyphname = Aring;
kernLeft = A;
kernRight = A;
lastChange = "2024-12-19 13:17:37 +0000";
layers = (
{
background = {
anchors = (
{
name = bottom;
pos = (327,0);
},
{
name = ogonek;
pos = (644,0);
},
{
name = top;
pos = (327,869);
}
);
shapes = (
{
closed = 1;
nodes = (
(98,0,l),
(175,213,l),
(182,236,l),
(327,635,l),
(323,635,l),
(468,236,l),
(475,213,l),
(552,0,l),
(643,0,l),
(377,710,l),
(276,710,l),
(10,0,l)
);
},
{
closed = 1;
nodes = (
(495,198,l),
(495,267,l),
(154,267,l),
(154,198,l)
);
},
{
closed = 1;
nodes = (
(388,660,o),
(435,705,o),
(435,764,cs),
(435,824,o),
(388,869,o),
(327,869,cs),
(266,869,o),
(219,824,o),
(219,764,cs),
(219,705,o),
(266,660,o),
(327,660,cs)
);
},
{
closed = 1;
nodes = (
(296,710,o),
(274,733,o),
(274,764,cs),
(274,797,o),
(296,819,o),
(327,819,cs),
(358,819,o),
(380,797,o),
(380,764,cs),
(380,733,o),
(358,710,o),
(327,710,cs)
);
}
);
};
layerId = "E39CE873-C6CB-4040-8FBA-1D86B139B3E5";
shapes = (
{
ref = A;
},
{
pos = (219,0);
ref = ringcomb.case;
}
);
width = 653;
}
);
unicode = 197;
},
{
glyphname = Atilde;
kernLeft = A;
kernRight = A;
lastChange = "2024-12-19 13:17:37 +0000";
layers = (
{
background = {
anchors = (
{
name = bottom;
pos = (327,0);
},
{
name = ogonek;
pos = (644,0);
},
{
name = top;
pos = (327,894);
}
);
shapes = (
{
closed = 1;
nodes = (
(98,0,l),
(175,213,l),
(182,236,l),
(327,635,l),
(323,635,l),
(468,236,l),
(475,213,l),
(552,0,l),
(643,0,l),
(377,710,l),
(276,710,l),
(10,0,l)
);
},
{
closed = 1;
nodes = (
(495,198,l),
(495,267,l),
(154,267,l),
(154,198,l)
);
},
{
closed = 1;
nodes = (
(419,790,o),
(459,817,o),
(468,888,c),
(415,888,l),
(413,861,o),
(403,842,o),
(385,842,cs),
(349,842,o),
(329,894,o),
(270,894,cs),
(230,894,o),
(193,863,o),
(185,796,c),
(237,796,l),
(239,827,o),
(253,842,o),
(270,842,cs),
(304,842,o),
(327,790,o),
(380,790,cs)
);
}
);
};
layerId = "E39CE873-C6CB-4040-8FBA-1D86B139B3E5";
shapes = (
{
ref = A;
},
{
pos = (185,0);
ref = tildecomb.case;
}
);
width = 653;
}
);
unicode = 195;
},
{
glyphname = AE;
kernLeft = AE;
kernRight = E;
lastChange = "2024-12-19 13:17:24 +0000";
layers = (
{
anchors = (
{
name = bottom;
pos = (467,0);
},
{
name = top;
pos = (581,710);
}
);
background = {
anchors = (
{
name = bottom;
pos = (467,0);
},
{
name = top;
pos = (581,710);
}
);
shapes = (
{
closed = 1;
nodes = (
(81,0,l),
(177,213,l),
(186,236,l),
(377,663,l),
(327,640,l),
(505,640,l),
(505,710,l),
(318,710,l),
(-9,0,l)
);
},
{
closed = 1;
nodes = (
(505,198,l),
(505,267,l),
(164,267,l),
(164,198,l)
);
},
{
closed = 1;
nodes = (
(914,0,l),
(914,70,l),
(520,70,l),
(552,44,l),
(552,670,l),
(520,640,l),
(910,640,l),
(910,710,l),
(466,710,l),
(466,0,l)
);
},
{
closed = 1;
nodes = (
(859,329,l),
(859,399,l),
(534,399,l),
(534,329,l)
);
}
);
};
layerId = "E39CE873-C6CB-4040-8FBA-1D86B139B3E5";
shapes = (
{
closed = 1;
nodes = (
(81,0,l),
(177,213,l),
(186,236,l),
(377,663,l),
(327,640,l),
(505,640,l),
(505,710,l),
(318,710,l),
(-9,0,l)
);
},
{
closed = 1;
nodes = (
(505,198,l),
(505,267,l),
(164,267,l),
(164,198,l)
);
},
{
closed = 1;
nodes = (
(914,0,l),
(914,70,l),
(520,70,l),
(552,44,l),
(552,670,l),
(520,640,l),
(910,640,l),
(910,710,l),
(466,710,l),
(466,0,l)
);
},
{
closed = 1;
nodes = (
(859,329,l),
(859,399,l),
(534,399,l),
(534,329,l)
);
}
);
width = 955;
}
);
unicode = 198;
},
{
glyphname = AEacute;
kernLeft = AE;
kernRight = E;
lastChange = "2024-12-19 13:17:37 +0000";
layers = (
{
background = {
anchors = (
{
name = bottom;
pos = (467,0);
},
{
name = top;
pos = (624,913);
}
);
shapes = (
{
closed = 1;
nodes = (
(81,0,l),
(177,213,l),
(186,236,l),
(377,663,l),
(327,640,l),
(505,640,l),
(505,710,l),
(318,710,l),
(-9,0,l)
);
},
{
closed = 1;
nodes = (
(505,198,l),
(505,267,l),
(164,267,l),
(164,198,l)
);
},
{
closed = 1;
nodes = (
(914,0,l),
(914,70,l),
(520,70,l),
(552,44,l),
(552,670,l),
(520,640,l),
(910,640,l),
(910,710,l),
(466,710,l),
(466,0,l)
);
},
{
closed = 1;
nodes = (
(859,329,l),
(859,399,l),
(534,399,l),
(534,329,l)
);
},
{
closed = 1;
nodes = (
(702,893,l),
(639,913,l),
(546,778,l),
(602,768,l)
);
}
);
};
layerId = "E39CE873-C6CB-4040-8FBA-1D86B139B3E5";
shapes = (
{
ref = AE;
},
{
pos = (546,0);
ref = acutecomb.case;
}
);
width = 955;
}
);
unicode = 508;
},
{
glyphname = B;
kernLeft = H;
lastChange = "2024-12-19 13:17:24 +0000";
layers = (
{
anchors = (
{
name = bottom;
pos = (324,0);
},
{
name = center;
pos = (324,355);
},
{
name = top;
pos = (324,710);
}
);
background = {
anchors = (
{
name = bottom;
pos = (324,0);
},
{
name = center;
pos = (324,355);
},
{
name = top;
pos = (324,710);
}
);
shapes = (
{
closed = 1;
nodes = (
(363,0,ls),
(517,0,o),
(586,90,o),
(586,197,cs),
(586,293,o),
(532,369,o),
(409,378,c),
(409,358,l),
(505,374,o),
(557,444,o),
(557,532,cs),
(557,626,o),
(493,710,o),
(349,710,cs),
(78,710,l),
(78,0,l)
);
},
{
closed = 1;
nodes = (
(164,640,l),
(346,640,ls),
(433,640,o),
(471,595,o),
(471,530,cs),
(471,520,ls),
(471,450,o),
(434,400,o),
(346,400,cs),
(148,400,l),
(148,333,l),
(360,333,ls),
(456,333,o),
(500,278,o),
(500,206,cs),
(500,195,ls),
(500,119,o),
(455,70,o),
(360,70,cs),
(164,70,l)
);
}
);
};
layerId = "E39CE873-C6CB-4040-8FBA-1D86B139B3E5";
shapes = (
{
closed = 1;
nodes = (
(363,0,ls),
(517,0,o),
(586,90,o),
(586,197,cs),
(586,293,o),
(532,369,o),
(409,378,c),
(409,358,l),
(505,374,o),
(557,444,o),
(557,532,cs),
(557,626,o),
(493,710,o),
(349,710,cs),
(78,710,l),
(78,0,l)
);
},
{
closed = 1;
nodes = (
(164,640,l),
(346,640,ls),
(433,640,o),
(471,595,o),
(471,530,cs),
(471,520,ls),
(471,450,o),
(434,400,o),
(346,400,cs),
(148,400,l),
(148,333,l),
(360,333,ls),
(456,333,o),
(500,278,o),
(500,206,cs),
(500,195,ls),
(500,119,o),
(455,70,o),
(360,70,cs),
(164,70,l)
);
}
);
width = 628;
}
);
note = B;
unicode = 66;
},
{
glyphname = C;
kernLeft = O;
kernRight = C;
lastChange = "2024-12-19 13:17:24 +0000";
layers = (
{
anchors = (
{
name = bottom;
pos = (362,0);
},
{
name = top;
pos = (357,710);
}
);
background = {
anchors = (
{
name = bottom;
pos = (362,0);
},
{
name = top;
pos = (357,710);
}
);
shapes = (
{
closed = 1;
nodes = (
(524,-12,o),
(621,88,o),
(641,231,c),
(561,234,l),
(540,118,o),
(467,57,o),
(363,57,cs),
(224,57,o),
(135,172,o),
(135,335,cs),
(135,375,ls),
(135,538,o),
(224,653,o),
(363,653,cs),
(464,653,o),
(538,596,o),
(560,469,c),
(641,472,l),
(622,620,o),
(523,722,o),
(361,722,cs),
(167,722,o),
(45,569,o),
(45,354,cs),
(45,140,o),
(166,-12,o),
(362,-12,cs)
);
}
);
};
layerId = "E39CE873-C6CB-4040-8FBA-1D86B139B3E5";
shapes = (
{
closed = 1;
nodes = (
(524,-12,o),
(621,88,o),
(641,231,c),
(561,234,l),
(540,118,o),
(467,57,o),
(363,57,cs),
(224,57,o),
(135,172,o),
(135,335,cs),
(135,375,ls),
(135,538,o),
(224,653,o),
(363,653,cs),
(464,653,o),
(538,596,o),
(560,469,c),
(641,472,l),
(622,620,o),
(523,722,o),
(361,722,cs),
(167,722,o),
(45,569,o),
(45,354,cs),
(45,140,o),
(166,-12,o),
(362,-12,cs)
);
}
);
width = 680;
}
);
note = C;
unicode = 67;
},
{
glyphname = Cacute;
kernLeft = O;
kernRight = C;
lastChange = "2024-12-19 13:17:37 +0000";
layers = (
{
background = {
anchors = (
{
name = bottom;
pos = (362,0);
},
{
name = top;
pos = (400,913);
}
);
shapes = (
{
closed = 1;
nodes = (
(524,-12,o),
(621,88,o),
(641,231,c),
(561,234,l),
(540,118,o),
(467,57,o),
(363,57,cs),
(224,57,o),
(135,172,o),
(135,335,cs),
(135,375,ls),
(135,538,o),
(224,653,o),
(363,653,cs),
(464,653,o),
(538,596,o),
(560,469,c),
(641,472,l),
(622,620,o),
(523,722,o),
(361,722,cs),
(167,722,o),
(45,569,o),
(45,354,cs),
(45,140,o),
(166,-12,o),
(362,-12,cs)
);
},
{
closed = 1;
nodes = (
(478,893,l),
(415,913,l),
(322,778,l),
(378,768,l)
);
}
);
};
layerId = "E39CE873-C6CB-4040-8FBA-1D86B139B3E5";
shapes = (
{
ref = C;
},
{
pos = (322,0);
ref = acutecomb.case;
}
);
width = 680;
}
);
unicode = 262;
},
{
glyphname = Ccaron;
kernLeft = O;
kernRight = C;
lastChange = "2024-12-19 13:17:37 +0000";
layers = (
{
background = {
anchors = (
{
name = bottom;
pos = (362,0);
},
{
name = top;
pos = (357,908);
}
);
shapes = (
{
closed = 1;
nodes = (
(524,-12,o),
(621,88,o),
(641,231,c),
(561,234,l),
(540,118,o),
(467,57,o),
(363,57,cs),
(224,57,o),
(135,172,o),
(135,335,cs),
(135,375,ls),
(135,538,o),
(224,653,o),
(363,653,cs),
(464,653,o),
(538,596,o),
(560,469,c),
(641,472,l),
(622,620,o),
(523,722,o),
(361,722,cs),
(167,722,o),
(45,569,o),
(45,354,cs),
(45,140,o),
(166,-12,o),
(362,-12,cs)
);
},
{
closed = 1;
nodes = (
(392,778,l),
(501,908,l),
(431,908,l),
(343,801,l),
(374,801,l),
(283,908,l),
(213,908,l),
(322,778,l)
);
}
);
};
layerId = "E39CE873-C6CB-4040-8FBA-1D86B139B3E5";
shapes = (
{
ref = C;
},
{
pos = (209,0);
ref = caroncomb.case;
}
);
width = 680;
}
);
unicode = 268;
},
{
glyphname = Ccedilla;
kernLeft = O;
kernRight = C;
lastChange = "2024-12-19 13:17:37 +0000";
layers = (
{
background = {
anchors = (
{
name = bottom;
pos = (376,-159);
},
{
name = top;
pos = (357,710);
}
);
shapes = (
{
closed = 1;
nodes = (
(524,-12,o),
(621,88,o),
(641,231,c),
(561,234,l),
(540,118,o),
(467,57,o),
(363,57,cs),
(224,57,o),
(135,172,o),
(135,335,cs),
(135,375,ls),
(135,538,o),
(224,653,o),
(363,653,cs),
(464,653,o),
(538,596,o),
(560,469,c),
(641,472,l),
(622,620,o),
(523,722,o),
(361,722,cs),
(167,722,o),
(45,569,o),
(45,354,cs),
(45,140,o),
(166,-12,o),
(362,-12,cs)
);
},
{
closed = 1;
nodes = (
(429,-163,o),
(464,-136,o),
(464,-93,cs),
(464,-41,o),
(413,-31,o),
(356,-26,c),
(381,-54,l),
(379,2,l),
(321,2,l),
(319,-61,l),
(378,-69,o),
(398,-74,o),
(398,-91,cs),
(398,-120,o),
(325,-113,o),
(279,-104,c),
(279,-155,l),
(308,-160,o),
(325,-163,o),
(355,-163,cs)
);
}
);
};
layerId = "E39CE873-C6CB-4040-8FBA-1D86B139B3E5";
shapes = (
{
ref = C;
},
{
pos = (279,0);
ref = cedillacomb;
}
);
width = 680;
}
);
unicode = 199;
},
{
glyphname = Ccircumflex;
kernLeft = O;
kernRight = C;
lastChange = "2024-12-19 13:17:37 +0000";
layers = (
{
background = {
anchors = (
{
name = bottom;
pos = (362,0);
},
{
name = top;
pos = (357,898);
}
);
shapes = (
{
closed = 1;
nodes = (
(524,-12,o),
(621,88,o),
(641,231,c),
(561,234,l),
(540,118,o),
(467,57,o),
(363,57,cs),
(224,57,o),
(135,172,o),
(135,335,cs),
(135,375,ls),
(135,538,o),
(224,653,o),
(363,653,cs),
(464,653,o),
(538,596,o),
(560,469,c),
(641,472,l),
(622,620,o),
(523,722,o),
(361,722,cs),
(167,722,o),
(45,569,o),
(45,354,cs),
(45,140,o),
(166,-12,o),
(362,-12,cs)
);
},
{
closed = 1;
nodes = (
(283,768,l),
(374,875,l),
(343,875,l),
(431,768,l),
(501,768,l),
(392,898,l),
(322,898,l),
(213,768,l)
);
}
);
};
layerId = "E39CE873-C6CB-4040-8FBA-1D86B139B3E5";
shapes = (
{
ref = C;
},
{
pos = (209,0);
ref = circumflexcomb.case;
}
);
width = 680;
}
);
unicode = 264;
},
{
glyphname = Cdotaccent;
kernLeft = O;
kernRight = C;
lastChange = "2024-12-19 13:17:37 +0000";
layers = (
{
background = {
anchors = (
{
name = bottom;
pos = (362,0);
},
{
name = top;
pos = (357,896);
}
);
shapes = (
{
closed = 1;
nodes = (
(524,-12,o),
(621,88,o),
(641,231,c),
(561,234,l),
(540,118,o),
(467,57,o),
(363,57,cs),
(224,57,o),
(135,172,o),
(135,335,cs),
(135,375,ls),
(135,538,o),
(224,653,o),
(363,653,cs),
(464,653,o),
(538,596,o),
(560,469,c),
(641,472,l),
(622,620,o),
(523,722,o),
(361,722,cs),
(167,722,o),
(45,569,o),
(45,354,cs),
(45,140,o),
(166,-12,o),
(362,-12,cs)
);
},
{
closed = 1;
nodes = (
(398,806,l),
(398,896,l),
(315,896,l),
(315,806,l)
);
}
);
};
layerId = "E39CE873-C6CB-4040-8FBA-1D86B139B3E5";
shapes = (
{
ref = C;
},
{
pos = (315,0);
ref = dotaccentcomb.case;
}
);
width = 680;
}
);
unicode = 266;
},
{
glyphname = D;
kernLeft = H;
kernRight = D;
lastChange = "2024-12-19 13:17:24 +0000";
layers = (
{
anchors = (
{
name = bottom;
pos = (338,0);
},
{
name = center;
pos = (338,355);
},
{
name = top;
pos = (283,710);
}
);
background = {
anchors = (
{
name = bottom;
pos = (338,0);
},
{
name = center;
pos = (338,355);
},
{
name = top;
pos = (283,710);
}
);
shapes = (
{
closed = 1;
nodes = (
(302,0,ls),
(530,0,o),
(640,153,o),
(640,355,cs),
(640,557,o),
(530,710,o),
(302,710,cs),
(78,710,l),
(78,0,l)
);
},
{
closed = 1;
nodes = (
(164,640,l),
(309,640,ls),
(474,640,o),
(554,527,o),
(554,374,cs),
(554,336,ls),
(554,183,o),
(474,70,o),
(309,70,cs),
(164,70,l)
);
}
);
};
layerId = "E39CE873-C6CB-4040-8FBA-1D86B139B3E5";
shapes = (
{
closed = 1;
nodes = (
(302,0,ls),
(530,0,o),
(640,153,o),
(640,355,cs),
(640,557,o),
(530,710,o),
(302,710,cs),
(78,710,l),
(78,0,l)
);
},
{
closed = 1;
nodes = (
(164,640,l),
(309,640,ls),
(474,640,o),
(554,527,o),
(554,374,cs),
(554,336,ls),
(554,183,o),
(474,70,o),
(309,70,cs),
(164,70,l)
);
}
);
width = 684;
}
);
note = D;
unicode = 68;
},
{
glyphname = Dcaron;
kernLeft = H;
kernRight = D;
lastChange = "2024-12-19 13:17:37 +0000";
layers = (
{
background = {
anchors = (
{
name = bottom;
pos = (338,0);
},
{
name = center;
pos = (338,355);
},
{
name = top;
pos = (283,908);
}
);
shapes = (
{
closed = 1;
nodes = (
(302,0,ls),
(530,0,o),
(640,153,o),
(640,355,cs),
(640,557,o),
(530,710,o),
(302,710,cs),
(78,710,l),
(78,0,l)
);
},
{
closed = 1;
nodes = (
(164,640,l),
(309,640,ls),
(474,640,o),
(554,527,o),
(554,374,cs),
(554,336,ls),
(554,183,o),
(474,70,o),
(309,70,cs),
(164,70,l)
);
},
{
closed = 1;
nodes = (
(318,778,l),
(427,908,l),
(357,908,l),
(269,801,l),
(300,801,l),
(209,908,l),
(139,908,l),
(248,778,l)
);
}
);
};
layerId = "E39CE873-C6CB-4040-8FBA-1D86B139B3E5";
shapes = (
{
ref = D;
},
{
pos = (135,0);
ref = caroncomb.case;
}
);
width = 684;
}
);
unicode = 270;
},
{
glyphname = Dcroat;
kernLeft = H;
kernRight = D;
lastChange = "2024-12-19 13:17:37 +0000";
layers = (
{
background = {
anchors = (
{
name = bottom;
pos = (360,0);
},
{
name = center;
pos = (360,355);
},
{
name = top;
pos = (305,710);
}
);
shapes = (
{
closed = 1;
nodes = (
(318,322,l),
(318,388,l),
(34,388,l),
(34,322,l)
);
},
{
closed = 1;
nodes = (
(324,0,ls),
(552,0,o),
(662,153,o),
(662,355,cs),
(662,557,o),
(552,710,o),
(324,710,cs),
(100,710,l),
(100,0,l)
);
},
{
closed = 1;
nodes = (
(186,640,l),
(331,640,ls),
(496,640,o),
(576,527,o),
(576,374,cs),
(576,336,ls),
(576,183,o),
(496,70,o),
(331,70,cs),
(186,70,l)
);
}
);
};
layerId = "E39CE873-C6CB-4040-8FBA-1D86B139B3E5";
shapes = (
{
closed = 1;
nodes = (
(318,322,l),
(318,388,l),
(34,388,l),
(34,322,l)
);
},
{
pos = (22,0);
ref = D;
}
);
width = 706;
}
);
unicode = 272;
},
{
glyphname = Eth;
kernLeft = H;
kernRight = D;
lastChange = "2024-12-19 13:17:37 +0000";
layers = (
{
background = {
anchors = (
{
name = bottom;
pos = (360,0);
},
{
name = center;
pos = (360,355);
},
{
name = top;
pos = (305,710);
}
);
shapes = (
{
closed = 1;
nodes = (
(318,322,l),
(318,388,l),
(34,388,l),
(34,322,l)
);
},
{
closed = 1;
nodes = (
(324,0,ls),
(552,0,o),
(662,153,o),
(662,355,cs),
(662,557,o),
(552,710,o),
(324,710,cs),
(100,710,l),
(100,0,l)
);
},
{
closed = 1;
nodes = (
(186,640,l),
(331,640,ls),
(496,640,o),
(576,527,o),
(576,374,cs),
(576,336,ls),
(576,183,o),
(496,70,o),
(331,70,cs),
(186,70,l)
);
}
);
};
layerId = "E39CE873-C6CB-4040-8FBA-1D86B139B3E5";
shapes = (
{
ref = Dcroat;
}
);
width = 706;
}
);
unicode = 208;
},
{
glyphname = E;
kernLeft = H;
kernRight = E;
lastChange = "2024-12-19 13:17:24 +0000";
layers = (
{
anchors = (
{
name = bottom;
pos = (289,0);
},
{
name = ogonek;
pos = (510,0);
},
{
name = top;
pos = (305,710);
},
{
name = topleft;
pos = (20,710);
}
);
background = {
anchors = (
{
name = bottom;
pos = (289,0);
},
{
name = ogonek;
pos = (510,0);
},
{
name = top;
pos = (305,710);
},
{
name = topleft;
pos = (20,710);
}
);
shapes = (
{
closed = 1;
nodes = (
(526,0,l),
(526,70,l),
(132,70,l),
(164,44,l),
(164,670,l),
(132,640,l),
(522,640,l),
(522,710,l),
(78,710,l),
(78,0,l)
);
},
{
closed = 1;
nodes = (
(471,329,l),
(471,399,l),
(146,399,l),
(146,329,l)
);
}
);
};
layerId = "E39CE873-C6CB-4040-8FBA-1D86B139B3E5";
shapes = (
{
closed = 1;
nodes = (
(526,0,l),
(526,70,l),
(132,70,l),
(164,44,l),
(164,670,l),
(132,640,l),
(522,640,l),
(522,710,l),
(78,710,l),
(78,0,l)
);
},
{
closed = 1;
nodes = (
(471,329,l),
(471,399,l),
(146,399,l),
(146,329,l)
);
}
);
width = 567;
}
);
note = E;
unicode = 69;
},
{
glyphname = Eacute;
kernLeft = H;
kernRight = E;
lastChange = "2024-12-19 13:17:37 +0000";
layers = (
{
background = {
anchors = (
{
name = bottom;
pos = (289,0);
},
{
name = ogonek;
pos = (510,0);
},
{
name = top;
pos = (348,913);
},
{
name = topleft;
pos = (20,710);
}
);
shapes = (
{
closed = 1;
nodes = (
(526,0,l),
(526,70,l),
(132,70,l),
(164,44,l),
(164,670,l),
(132,640,l),
(522,640,l),
(522,710,l),
(78,710,l),
(78,0,l)
);
},
{
closed = 1;
nodes = (
(471,329,l),
(471,399,l),
(146,399,l),
(146,329,l)
);
},
{
closed = 1;
nodes = (
(426,893,l),
(363,913,l),
(270,778,l),
(326,768,l)
);
}
);
};
layerId = "E39CE873-C6CB-4040-8FBA-1D86B139B3E5";
shapes = (
{
ref = E;
},
{
pos = (270,0);
ref = acutecomb.case;
}
);
width = 567;
}
);
unicode = 201;
},
{
glyphname = Ebreve;
kernLeft = H;
kernRight = E;
lastChange = "2024-12-19 13:17:37 +0000";
layers = (
{
background = {
anchors = (
{
name = bottom;
pos = (289,0);
},
{
name = ogonek;
pos = (510,0);
},
{
name = top;
pos = (305,908);
},
{
name = topleft;
pos = (20,710);
}
);
shapes = (
{
closed = 1;
nodes = (
(526,0,l),
(526,70,l),
(132,70,l),
(164,44,l),
(164,670,l),
(132,640,l),
(522,640,l),
(522,710,l),
(78,710,l),
(78,0,l)
);
},
{
closed = 1;
nodes = (
(471,329,l),
(471,399,l),
(146,399,l),
(146,329,l)
);
},
{
closed = 1;
nodes = (
(389,778,o),
(449,829,o),
(453,908,c),
(389,908,l),
(385,870,o),
(364,829,o),
(305,829,cs),
(246,829,o),
(225,870,o),
(221,908,c),
(157,908,l),
(161,829,o),
(221,778,o),
(305,778,cs)
);
}
);
};
layerId = "E39CE873-C6CB-4040-8FBA-1D86B139B3E5";
shapes = (
{
ref = E;
},
{
pos = (157,0);
ref = brevecomb.case;
}
);
width = 567;
}
);
unicode = 276;
},
{
glyphname = Ecaron;
kernLeft = H;
kernRight = E;
lastChange = "2024-12-19 13:17:37 +0000";
layers = (
{
background = {
anchors = (
{
name = bottom;
pos = (289,0);
},
{
name = ogonek;
pos = (510,0);
},
{
name = top;
pos = (305,908);
},
{
name = topleft;
pos = (20,710);
}
);
shapes = (
{
closed = 1;
nodes = (
(526,0,l),
(526,70,l),
(132,70,l),
(164,44,l),
(164,670,l),
(132,640,l),
(522,640,l),
(522,710,l),
(78,710,l),
(78,0,l)
);
},
{
closed = 1;
nodes = (
(471,329,l),
(471,399,l),
(146,399,l),
(146,329,l)
);
},
{
closed = 1;
nodes = (
(340,778,l),
(449,908,l),
(379,908,l),
(291,801,l),
(322,801,l),
(231,908,l),
(161,908,l),
(270,778,l)
);
}
);
};
layerId = "E39CE873-C6CB-4040-8FBA-1D86B139B3E5";
shapes = (
{
ref = E;
},
{
pos = (157,0);
ref = caroncomb.case;
}
);
width = 567;
}
);
unicode = 282;
},
{
glyphname = Ecircumflex;
kernLeft = H;
kernRight = E;
lastChange = "2024-12-19 13:17:37 +0000";
layers = (
{
background = {
anchors = (
{
name = bottom;
pos = (289,0);
},
{
name = ogonek;
pos = (510,0);
},
{
name = top;
pos = (305,898);
},
{
name = topleft;
pos = (20,710);
}
);
shapes = (
{
closed = 1;
nodes = (
(526,0,l),
(526,70,l),
(132,70,l),
(164,44,l),
(164,670,l),
(132,640,l),
(522,640,l),
(522,710,l),
(78,710,l),
(78,0,l)
);
},
{
closed = 1;
nodes = (
(471,329,l),
(471,399,l),
(146,399,l),
(146,329,l)
);
},
{
closed = 1;
nodes = (
(231,768,l),
(322,875,l),
(291,875,l),
(379,768,l),
(449,768,l),
(340,898,l),
(270,898,l),
(161,768,l)
);
}
);
};
layerId = "E39CE873-C6CB-4040-8FBA-1D86B139B3E5";
shapes = (
{
ref = E;
},
{
pos = (157,0);
ref = circumflexcomb.case;
}
);
width = 567;
}
);
unicode = 202;
},
{
glyphname = Edieresis;
kernLeft = H;
kernRight = E;
lastChange = "2024-12-19 13:17:37 +0000";
layers = (
{
background = {
anchors = (
{
name = bottom;
pos = (289,0);
},
{
name = ogonek;
pos = (510,0);
},
{
name = top;
pos = (305,896);
},
{
name = topleft;
pos = (20,710);
}
);
shapes = (
{
closed = 1;
nodes = (
(526,0,l),
(526,70,l),
(132,70,l),
(164,44,l),
(164,670,l),
(132,640,l),
(522,640,l),
(522,710,l),
(78,710,l),
(78,0,l)
);
},
{
closed = 1;
nodes = (
(471,329,l),
(471,399,l),
(146,399,l),
(146,329,l)
);
},
{
closed = 1;
nodes = (
(265,806,l),
(265,896,l),
(182,896,l),
(182,806,l)
);
},
{
closed = 1;
nodes = (
(428,806,l),
(428,896,l),
(345,896,l),
(345,806,l)
);
}
);
};
layerId = "E39CE873-C6CB-4040-8FBA-1D86B139B3E5";
shapes = (
{
ref = E;
},
{
pos = (182,0);
ref = dieresiscomb.case;
}
);
width = 567;
}
);
unicode = 203;
},
{
glyphname = Edotaccent;
kernLeft = H;
kernRight = E;
lastChange = "2024-12-19 13:17:37 +0000";
layers = (
{
background = {
anchors = (
{
name = bottom;
pos = (289,0);
},
{
name = ogonek;
pos = (510,0);
},
{
name = top;
pos = (305,896);
},
{
name = topleft;
pos = (20,710);
}
);
shapes = (
{
closed = 1;
nodes = (
(526,0,l),
(526,70,l),
(132,70,l),
(164,44,l),
(164,670,l),
(132,640,l),
(522,640,l),
(522,710,l),
(78,710,l),
(78,0,l)
);
},
{
closed = 1;
nodes = (
(471,329,l),
(471,399,l),
(146,399,l),
(146,329,l)
);
},
{
closed = 1;
nodes = (
(346,806,l),
(346,896,l),
(263,896,l),
(263,806,l)
);
}
);
};
layerId = "E39CE873-C6CB-4040-8FBA-1D86B139B3E5";
shapes = (
{
ref = E;
},
{
pos = (263,0);
ref = dotaccentcomb.case;
}
);
width = 567;
}
);
unicode = 278;
},
{
glyphname = Egrave;
kernLeft = H;
kernRight = E;
lastChange = "2024-12-19 13:17:37 +0000";
layers = (
{
background = {
anchors = (
{
name = bottom;
pos = (289,0);
},
{
name = ogonek;
pos = (510,0);
},
{
name = top;
pos = (262,913);
},
{
name = topleft;
pos = (20,710);
}
);
shapes = (
{
closed = 1;
nodes = (
(526,0,l),
(526,70,l),
(132,70,l),
(164,44,l),
(164,670,l),
(132,640,l),
(522,640,l),
(522,710,l),
(78,710,l),
(78,0,l)
);
},
{
closed = 1;
nodes = (
(471,329,l),
(471,399,l),
(146,399,l),
(146,329,l)
);
},
{
closed = 1;
nodes = (
(340,778,l),
(247,913,l),
(184,893,l),
(284,768,l)
);
}
);
};
layerId = "E39CE873-C6CB-4040-8FBA-1D86B139B3E5";
shapes = (
{
ref = E;
},
{
pos = (184,0);
ref = gravecomb.case;
}
);
width = 567;
}
);
unicode = 200;
},
{
glyphname = Emacron;
kernLeft = H;
kernRight = E;
lastChange = "2024-12-19 13:17:37 +0000";
layers = (
{
background = {
anchors = (
{
name = bottom;
pos = (289,0);
},
{
name = ogonek;
pos = (510,0);
},
{
name = top;
pos = (305,850);
},
{
name = topleft;
pos = (20,710);
}
);
shapes = (
{
closed = 1;
nodes = (
(526,0,l),
(526,70,l),
(132,70,l),
(164,44,l),
(164,670,l),
(132,640,l),
(522,640,l),
(522,710,l),
(78,710,l),
(78,0,l)
);
},
{
closed = 1;
nodes = (
(471,329,l),
(471,399,l),
(146,399,l),
(146,329,l)
);
},
{
closed = 1;
nodes = (
(470,795,l),
(470,850,l),
(139,850,l),
(139,795,l)
);
}
);
};
layerId = "E39CE873-C6CB-4040-8FBA-1D86B139B3E5";
shapes = (
{
ref = E;
},
{
pos = (139,0);
ref = macroncomb.case;
}
);
width = 567;
}
);
unicode = 274;
},
{
glyphname = Eogonek;
kernLeft = H;
kernRight = E;
lastChange = "2024-12-19 13:17:37 +0000";
layers = (
{
anchors = (
{
name = top;
pos = (466,710);
}
);
background = {
anchors = (
{
name = bottom;
pos = (289,0);
},
{
name = ogonek;
pos = (510,0);
},
{
name = top;
pos = (466,710);
},
{
name = topleft;
pos = (20,710);
}
);
shapes = (
{
closed = 1;
nodes = (
(526,0,l),
(526,70,l),
(132,70,l),
(164,44,l),
(164,670,l),
(132,640,l),
(522,640,l),
(522,710,l),
(78,710,l),
(78,0,l)
);
},
{
closed = 1;
nodes = (
(471,329,l),
(471,399,l),
(146,399,l),
(146,329,l)
);
},
{
closed = 1;
nodes = (
(520,-106,l),
(488,-109,o),
(449,-102,o),
(449,-65,cs),
(449,-37,o),
(474,-19,o),
(500,0,c),
(434,11,l),
(434,2,l),
(404,-21,o),
(380,-44,o),
(380,-80,cs),
(380,-155,o),
(464,-171,o),
(520,-158,c)
);
}
);
};
layerId = "E39CE873-C6CB-4040-8FBA-1D86B139B3E5";
shapes = (
{
ref = E;
},
{
pos = (380,0);
ref = ogonekcomb;
}
);
width = 567;
}
);
unicode = 280;
},
{
glyphname = F;
kernLeft = H;
lastChange = "2024-12-19 13:17:24 +0000";
layers = (
{
anchors = (
{
name = bottom;
pos = (262,0);
},
{
name = top;
pos = (262,710);
}
);
background = {
anchors = (
{
name = bottom;
pos = (262,0);
},
{
name = top;
pos = (262,710);
}
);
shapes = (
{
closed = 1;
nodes = (
(164,0,l),
(164,670,l),
(132,638,l),
(475,638,l),
(475,710,l),
(78,710,l),
(78,0,l)
);
},
{
closed = 1;
nodes = (
(455,302,l),
(455,374,l),
(146,374,l),
(146,302,l)
);
}
);
};
layerId = "E39CE873-C6CB-4040-8FBA-1D86B139B3E5";
shapes = (
{
closed = 1;
nodes = (
(164,0,l),
(164,670,l),
(132,638,l),
(475,638,l),
(475,710,l),
(78,710,l),
(78,0,l)
);
},
{
closed = 1;
nodes = (
(455,302,l),
(455,374,l),
(146,374,l),
(146,302,l)
);
}
);
width = 506;
}
);
note = F;
unicode = 70;
},
{
glyphname = G;
kernLeft = O;
kernRight = G;
lastChange = "2024-12-19 13:17:24 +0000";
layers = (
{
anchors = (
{
name = bottom;
pos = (370,0);
},
{
name = top;
pos = (362,710);
}
);
background = {
anchors = (
{
name = bottom;
pos = (370,0);
},
{
name = top;
pos = (362,710);
}
);
shapes = (
{
closed = 1;
nodes = (
(479,-12,o),
(560,57,o),
(583,146,c),
(564,146,l),
(574,0,l),
(646,0,l),
(646,353,l),
(364,353,l),
(364,284,l),
(566,284,l),
(566,263,ls),
(566,137,o),
(491,57,o),
(363,57,cs),
(224,57,o),
(135,172,o),
(135,335,cs),
(135,375,ls),
(135,538,o),
(224,653,o),
(363,653,cs),
(464,653,o),
(538,596,o),
(560,465,c),
(641,468,l),
(622,620,o),
(523,722,o),
(361,722,cs),
(167,722,o),
(45,569,o),
(45,354,cs),
(45,140,o),
(164,-12,o),
(355,-12,cs)
);
}
);
};
layerId = "E39CE873-C6CB-4040-8FBA-1D86B139B3E5";
shapes = (
{
closed = 1;
nodes = (
(479,-12,o),
(560,57,o),
(583,146,c),
(564,146,l),
(574,0,l),
(646,0,l),
(646,353,l),
(364,353,l),
(364,284,l),
(566,284,l),
(566,263,ls),
(566,137,o),
(491,57,o),
(363,57,cs),
(224,57,o),
(135,172,o),
(135,335,cs),
(135,375,ls),
(135,538,o),
(224,653,o),
(363,653,cs),
(464,653,o),
(538,596,o),
(560,465,c),
(641,468,l),
(622,620,o),
(523,722,o),
(361,722,cs),
(167,722,o),
(45,569,o),
(45,354,cs),
(45,140,o),
(164,-12,o),
(355,-12,cs)
);
}
);
width = 709;
}
);
note = G;
unicode = 71;
},
{
glyphname = Gbreve;
kernLeft = O;
kernRight = G;
lastChange = "2024-12-19 13:17:37 +0000";
layers = (
{
background = {
anchors = (
{
name = bottom;
pos = (370,0);
},
{
name = top;
pos = (362,908);
}
);
shapes = (
{
closed = 1;
nodes = (
(479,-12,o),
(560,57,o),
(583,146,c),
(564,146,l),
(574,0,l),
(646,0,l),
(646,353,l),
(364,353,l),
(364,284,l),
(566,284,l),
(566,263,ls),
(566,137,o),
(491,57,o),
(363,57,cs),
(224,57,o),
(135,172,o),
(135,335,cs),
(135,375,ls),
(135,538,o),
(224,653,o),
(363,653,cs),
(464,653,o),
(538,596,o),
(560,465,c),
(641,468,l),
(622,620,o),
(523,722,o),
(361,722,cs),
(167,722,o),
(45,569,o),
(45,354,cs),
(45,140,o),
(164,-12,o),
(355,-12,cs)
);
},
{
closed = 1;
nodes = (
(446,778,o),
(506,829,o),
(510,908,c),
(446,908,l),
(442,870,o),
(421,829,o),
(362,829,cs),
(303,829,o),
(282,870,o),
(278,908,c),
(214,908,l),
(218,829,o),
(278,778,o),
(362,778,cs)
);
}
);
};
layerId = "E39CE873-C6CB-4040-8FBA-1D86B139B3E5";
shapes = (
{
ref = G;
},
{
pos = (214,0);
ref = brevecomb.case;
}
);
width = 709;
}
);
unicode = 286;
},
{
glyphname = Gcircumflex;
kernLeft = O;
kernRight = G;
lastChange = "2024-12-19 13:17:37 +0000";
layers = (
{
background = {
anchors = (
{
name = bottom;
pos = (370,0);
},
{
name = top;
pos = (362,898);
}
);
shapes = (
{
closed = 1;
nodes = (
(479,-12,o),
(560,57,o),
(583,146,c),
(564,146,l),
(574,0,l),
(646,0,l),
(646,353,l),
(364,353,l),
(364,284,l),
(566,284,l),
(566,263,ls),
(566,137,o),
(491,57,o),
(363,57,cs),
(224,57,o),
(135,172,o),
(135,335,cs),
(135,375,ls),
(135,538,o),
(224,653,o),
(363,653,cs),
(464,653,o),
(538,596,o),
(560,465,c),
(641,468,l),
(622,620,o),
(523,722,o),
(361,722,cs),
(167,722,o),
(45,569,o),
(45,354,cs),
(45,140,o),
(164,-12,o),
(355,-12,cs)
);
},
{
closed = 1;
nodes = (
(288,768,l),
(379,875,l),
(348,875,l),
(436,768,l),
(506,768,l),
(397,898,l),
(327,898,l),
(218,768,l)
);
}
);
};
layerId = "E39CE873-C6CB-4040-8FBA-1D86B139B3E5";
shapes = (
{
ref = G;
},
{
pos = (214,0);
ref = circumflexcomb.case;
}
);
width = 709;
}
);
unicode = 284;
},
{
glyphname = Gcommaaccent;
kernLeft = O;
kernRight = G;
lastChange = "2024-12-19 13:17:37 +0000";
layers = (
{
background = {
anchors = (
{
name = bottom;
pos = (370,-242);
},
{
name = top;
pos = (362,710);
}
);
shapes = (
{
closed = 1;
nodes = (
(479,-12,o),
(560,57,o),
(583,146,c),
(564,146,l),
(574,0,l),
(646,0,l),
(646,353,l),
(364,353,l),
(364,284,l),
(566,284,l),
(566,263,ls),
(566,137,o),
(491,57,o),
(363,57,cs),
(224,57,o),
(135,172,o),
(135,335,cs),
(135,375,ls),
(135,538,o),
(224,653,o),
(363,653,cs),
(464,653,o),
(538,596,o),
(560,465,c),
(641,468,l),
(622,620,o),
(523,722,o),
(361,722,cs),
(167,722,o),
(45,569,o),
(45,354,cs),
(45,140,o),
(164,-12,o),
(355,-12,cs)
);
},
{
closed = 1;
nodes = (
(379,-242,l),
(414,-142,l),
(414,-75,l),
(326,-75,l),
(326,-158,l),
(358,-158,l),
(330,-242,l)
);
}
);
};
layerId = "E39CE873-C6CB-4040-8FBA-1D86B139B3E5";
shapes = (
{
ref = G;
},
{
pos = (326,0);
ref = commaaccentcomb;
}
);
width = 709;
}
);
unicode = 290;
},
{
glyphname = Gdotaccent;
kernLeft = O;
kernRight = G;
lastChange = "2024-12-19 13:17:37 +0000";
layers = (
{
background = {
anchors = (
{
name = bottom;
pos = (370,0);
},
{
name = top;
pos = (362,896);
}
);
shapes = (
{
closed = 1;
nodes = (
(479,-12,o),
(560,57,o),
(583,146,c),
(564,146,l),
(574,0,l),
(646,0,l),
(646,353,l),
(364,353,l),
(364,284,l),
(566,284,l),
(566,263,ls),
(566,137,o),
(491,57,o),
(363,57,cs),
(224,57,o),
(135,172,o),
(135,335,cs),
(135,375,ls),
(135,538,o),
(224,653,o),
(363,653,cs),
(464,653,o),
(538,596,o),
(560,465,c),
(641,468,l),
(622,620,o),
(523,722,o),
(361,722,cs),
(167,722,o),
(45,569,o),
(45,354,cs),
(45,140,o),
(164,-12,o),
(355,-12,cs)
);
},
{
closed = 1;
nodes = (
(403,806,l),
(403,896,l),
(320,896,l),
(320,806,l)
);
}
);
};
layerId = "E39CE873-C6CB-4040-8FBA-1D86B139B3E5";
shapes = (
{
ref = G;
},
{
pos = (320,0);
ref = dotaccentcomb.case;
}
);
width = 709;
}
);
unicode = 288;
},
{
glyphname = H;
kernLeft = H;
kernRight = H;
lastChange = "2024-12-19 13:17:24 +0000";
layers = (
{
anchors = (
{
name = bottom;
pos = (342,0);
},
{
name = center;
pos = (342,355);
},
{
name = top;
pos = (342,710);
},
{
name = topleft;
pos = (20,710);
}
);
background = {
anchors = (
{
name = bottom;
pos = (342,0);
},
{
name = center;
pos = (342,355);
},
{
name = top;
pos = (342,710);
},
{
name = topleft;
pos = (20,710);
}
);
shapes = (
{
closed = 1;
nodes = (
(606,0,l),
(606,710,l),
(520,710,l),
(520,0,l)
);
},
{
closed = 1;
nodes = (
(164,0,l),
(164,710,l),
(78,710,l),
(78,0,l)
);
},
{
closed = 1;
nodes = (
(539,323,l),
(539,393,l),
(143,393,l),
(143,323,l)
);
}
);
};
layerId = "E39CE873-C6CB-4040-8FBA-1D86B139B3E5";
shapes = (
{
closed = 1;
nodes = (
(606,0,l),
(606,710,l),
(520,710,l),
(520,0,l)
);
},
{
closed = 1;
nodes = (
(164,0,l),
(164,710,l),
(78,710,l),
(78,0,l)
);
},
{
closed = 1;
nodes = (
(539,323,l),
(539,393,l),
(143,393,l),
(143,323,l)
);
}
);
width = 684;
}
);
note = H;
unicode = 72;
},
{
glyphname = Hbar;
kernLeft = H;
kernRight = H;
lastChange = "2024-12-19 13:17:24 +0000";
layers = (
{
background = {
shapes = (
{
closed = 1;
nodes = (
(618,0,l),
(618,710,l),
(532,710,l),
(532,0,l)
);
},
{
closed = 1;
nodes = (
(176,0,l),
(176,710,l),
(90,710,l),
(90,0,l)
);
},
{
closed = 1;
nodes = (
(551,291,l),
(551,361,l),
(155,361,l),
(155,291,l)
);
},
{
closed = 1;
nodes = (
(676,484,l),
(676,550,l),
(32,550,l),
(32,484,l)
);
}
);
};
layerId = "E39CE873-C6CB-4040-8FBA-1D86B139B3E5";
shapes = (
{
closed = 1;
nodes = (
(618,0,l),
(618,710,l),
(532,710,l),
(532,0,l)
);
},
{
closed = 1;
nodes = (
(176,0,l),
(176,710,l),
(90,710,l),
(90,0,l)
);
},
{
closed = 1;
nodes = (
(551,291,l),
(551,361,l),
(155,361,l),
(155,291,l)
);
},
{
closed = 1;
nodes = (
(676,484,l),
(676,550,l),
(32,550,l),
(32,484,l)
);
}
);
width = 708;
}
);
unicode = 294;
},
{
glyphname = Hcircumflex;
kernLeft = H;
kernRight = H;
lastChange = "2024-12-19 13:17:37 +0000";
layers = (
{
background = {
anchors = (
{
name = bottom;
pos = (342,0);
},
{
name = center;
pos = (342,355);
},
{
name = top;
pos = (342,898);
},
{
name = topleft;
pos = (20,710);
}
);
shapes = (
{
closed = 1;
nodes = (
(606,0,l),
(606,710,l),
(520,710,l),
(520,0,l)
);
},
{
closed = 1;
nodes = (
(164,0,l),
(164,710,l),
(78,710,l),
(78,0,l)
);
},
{
closed = 1;
nodes = (
(539,323,l),
(539,393,l),
(143,393,l),
(143,323,l)
);
},
{
closed = 1;
nodes = (
(268,768,l),
(359,875,l),
(328,875,l),
(416,768,l),
(486,768,l),
(377,898,l),
(307,898,l),
(198,768,l)
);
}
);
};
layerId = "E39CE873-C6CB-4040-8FBA-1D86B139B3E5";
shapes = (
{
ref = H;
},
{
pos = (194,0);
ref = circumflexcomb.case;
}
);
width = 684;
}
);
unicode = 292;
},
{
glyphname = I;
kernLeft = H;
kernRight = H;
lastChange = "2024-12-19 13:17:24 +0000";
layers = (
{
anchors = (
{
name = bottom;
pos = (121,0);
},
{
name = ogonek;
pos = (164,0);
},
{
name = top;
pos = (121,710);
},
{
name = topleft;
pos = (20,710);
}
);
background = {
anchors = (
{
name = bottom;
pos = (121,0);
},
{
name = ogonek;
pos = (164,0);
},
{
name = top;
pos = (121,710);
},
{
name = topleft;
pos = (20,710);
}
);
shapes = (
{
closed = 1;
nodes = (
(164,0,l),
(164,710,l),
(78,710,l),
(78,0,l)
);
}
);
};
layerId = "E39CE873-C6CB-4040-8FBA-1D86B139B3E5";
shapes = (
{
closed = 1;
nodes = (
(164,0,l),
(164,710,l),
(78,710,l),
(78,0,l)
);
}
);
width = 242;
}
);
note = I;
unicode = 73;
},
{
glyphname = IJ;
kernLeft = H;
kernRight = J;
lastChange = "2024-12-19 13:17:24 +0000";
layers = (
{
background = {
shapes = (
{
closed = 1;
nodes = (
(366,-12,o),
(439,46,o),
(439,183,cs),
(439,710,l),
(353,710,l),
(353,170,ls),
(353,68,o),
(287,56,o),
(236,56,cs),
(207,56,o),
(173,62,o),
(129,72,c),
(129,4,l),
(177,-7,o),
(209,-12,o),
(244,-12,cs)
);
},
{
closed = 1;
nodes = (
(164,221,l),
(164,710,l),
(78,710,l),
(78,221,l)
);
}
);
};
layerId = "E39CE873-C6CB-4040-8FBA-1D86B139B3E5";
shapes = (
{
closed = 1;
nodes = (
(366,-12,o),
(439,46,o),
(439,183,cs),
(439,710,l),
(353,710,l),
(353,170,ls),
(353,68,o),
(287,56,o),
(236,56,cs),
(207,56,o),
(173,62,o),
(129,72,c),
(129,4,l),
(177,-7,o),
(209,-12,o),
(244,-12,cs)
);
},
{
closed = 1;
nodes = (
(164,221,l),
(164,710,l),
(78,710,l),
(78,221,l)
);
}
);
width = 514;
}
);
metricLeft = H;
metricRight = J;
unicode = 306;
},
{
glyphname = Iacute;
kernLeft = H;
kernRight = H;
lastChange = "2024-12-19 13:17:37 +0000";
layers = (
{
background = {
anchors = (
{
name = bottom;
pos = (121,0);
},
{
name = ogonek;
pos = (164,0);
},
{
name = top;
pos = (164,913);
},
{
name = topleft;
pos = (20,710);
}
);
shapes = (
{
closed = 1;
nodes = (
(164,0,l),
(164,710,l),
(78,710,l),
(78,0,l)
);
},
{
closed = 1;
nodes = (
(242,893,l),
(179,913,l),
(86,778,l),
(142,768,l)
);
}
);
};
layerId = "E39CE873-C6CB-4040-8FBA-1D86B139B3E5";
shapes = (
{
ref = I;
},
{
pos = (86,0);
ref = acutecomb.case;
}
);
width = 242;
}
);
unicode = 205;
},
{
glyphname = Ibreve;
kernLeft = H;
kernRight = H;
lastChange = "2024-12-19 13:17:37 +0000";
layers = (
{
background = {
anchors = (
{
name = bottom;
pos = (121,0);
},
{
name = ogonek;
pos = (164,0);
},
{
name = top;
pos = (121,908);
},
{
name = topleft;
pos = (20,710);
}
);
shapes = (
{
closed = 1;
nodes = (
(164,0,l),
(164,710,l),
(78,710,l),
(78,0,l)
);
},
{
closed = 1;
nodes = (
(205,778,o),
(265,829,o),
(269,908,c),
(205,908,l),
(201,870,o),
(180,829,o),
(121,829,cs),
(62,829,o),
(41,870,o),
(37,908,c),
(-27,908,l),
(-23,829,o),
(37,778,o),
(121,778,cs)
);
}
);
};
layerId = "E39CE873-C6CB-4040-8FBA-1D86B139B3E5";
shapes = (
{
ref = I;
},
{
pos = (-27,0);
ref = brevecomb.case;
}
);
width = 242;
}
);
unicode = 300;
},
{
glyphname = Icircumflex;
kernLeft = H;
kernRight = H;
lastChange = "2024-12-19 13:17:37 +0000";
layers = (
{
background = {
anchors = (
{
name = bottom;
pos = (121,0);
},
{
name = ogonek;
pos = (164,0);
},
{
name = top;
pos = (121,898);
},
{
name = topleft;
pos = (20,710);
}
);
shapes = (
{
closed = 1;
nodes = (
(164,0,l),
(164,710,l),
(78,710,l),
(78,0,l)
);
},
{
closed = 1;
nodes = (
(47,768,l),
(138,875,l),
(107,875,l),
(195,768,l),
(265,768,l),
(156,898,l),
(86,898,l),
(-23,768,l)
);
}
);
};
layerId = "E39CE873-C6CB-4040-8FBA-1D86B139B3E5";
shapes = (
{
ref = I;
},
{
pos = (-27,0);
ref = circumflexcomb.case;
}
);
width = 242;
}
);
unicode = 206;
},
{
glyphname = Idieresis;
kernLeft = H;
kernRight = H;
lastChange = "2024-12-19 13:17:37 +0000";
layers = (
{
background = {
anchors = (
{
name = bottom;
pos = (121,0);
},
{
name = ogonek;
pos = (164,0);
},
{
name = top;
pos = (121,896);
},
{
name = topleft;
pos = (20,710);
}
);
shapes = (
{
closed = 1;
nodes = (
(164,0,l),
(164,710,l),
(78,710,l),
(78,0,l)
);
},
{
closed = 1;
nodes = (
(81,806,l),
(81,896,l),
(-2,896,l),
(-2,806,l)
);
},
{
closed = 1;
nodes = (
(244,806,l),
(244,896,l),
(161,896,l),
(161,806,l)
);
}
);
};
layerId = "E39CE873-C6CB-4040-8FBA-1D86B139B3E5";
shapes = (
{
ref = I;
},
{
pos = (-2,0);
ref = dieresiscomb.case;
}
);
width = 242;
}
);
unicode = 207;
},
{
glyphname = Idotaccent;
kernLeft = H;
kernRight = H;
lastChange = "2024-12-19 13:17:37 +0000";
layers = (
{
background = {
anchors = (
{
name = bottom;
pos = (121,0);
},
{
name = ogonek;
pos = (164,0);
},
{
name = top;
pos = (121,896);
},
{
name = topleft;
pos = (20,710);
}
);
shapes = (
{
closed = 1;
nodes = (
(164,0,l),
(164,710,l),
(78,710,l),
(78,0,l)
);
},
{
closed = 1;
nodes = (
(162,806,l),
(162,896,l),
(79,896,l),
(79,806,l)
);
}
);
};
layerId = "E39CE873-C6CB-4040-8FBA-1D86B139B3E5";
shapes = (
{
ref = I;
},
{
pos = (79,0);
ref = dotaccentcomb.case;
}
);
width = 242;
}
);
unicode = 304;
},
{
glyphname = Igrave;
kernLeft = H;
kernRight = H;
lastChange = "2024-12-19 13:17:37 +0000";
layers = (
{
background = {
anchors = (
{
name = bottom;
pos = (121,0);
},
{
name = ogonek;
pos = (164,0);
},
{
name = top;
pos = (78,913);
},
{
name = topleft;
pos = (20,710);
}
);
shapes = (
{
closed = 1;
nodes = (
(164,0,l),
(164,710,l),
(78,710,l),
(78,0,l)
);
},
{
closed = 1;
nodes = (
(156,778,l),
(63,913,l),
(0,893,l),
(100,768,l)
);
}
);
};
layerId = "E39CE873-C6CB-4040-8FBA-1D86B139B3E5";
shapes = (
{
ref = I;
},
{
ref = gravecomb.case;
}
);
width = 242;
}
);
unicode = 204;
},
{
glyphname = Imacron;
kernLeft = H;
kernRight = H;
lastChange = "2024-12-19 13:17:37 +0000";
layers = (
{
background = {
anchors = (
{
name = bottom;
pos = (121,0);
},
{
name = ogonek;
pos = (164,0);
},
{
name = top;
pos = (121,850);
},
{
name = topleft;
pos = (20,710);
}
);
shapes = (
{
closed = 1;
nodes = (
(164,0,l),
(164,710,l),
(78,710,l),
(78,0,l)
);
},
{
closed = 1;
nodes = (
(286,795,l),
(286,850,l),
(-45,850,l),
(-45,795,l)
);
}
);
};
layerId = "E39CE873-C6CB-4040-8FBA-1D86B139B3E5";
shapes = (
{
ref = I;
},
{
pos = (-45,0);
ref = macroncomb.case;
}
);
width = 242;
}
);
unicode = 298;
},
{
glyphname = Iogonek;
kernLeft = H;
kernRight = H;
lastChange = "2024-12-19 13:17:37 +0000";
layers = (
{
background = {
anchors = (
{
name = bottom;
pos = (121,0);
},
{
name = ogonek;
pos = (164,0);
},
{
name = top;
pos = (121,710);
},
{
name = topleft;
pos = (20,710);
}
);
shapes = (
{
closed = 1;
nodes = (
(164,0,l),
(164,710,l),
(78,710,l),
(78,0,l)
);
},
{
closed = 1;
nodes = (
(174,-106,l),
(142,-109,o),
(103,-102,o),
(103,-65,cs),
(103,-37,o),
(128,-19,o),
(154,0,c),
(88,11,l),
(88,2,l),
(58,-21,o),
(34,-44,o),
(34,-80,cs),
(34,-155,o),
(118,-171,o),
(174,-158,c)
);
}
);
};
layerId = "E39CE873-C6CB-4040-8FBA-1D86B139B3E5";
shapes = (
{
ref = I;
},
{
pos = (34,0);
ref = ogonekcomb;
}
);
width = 242;
}
);
unicode = 302;
},
{
glyphname = Itilde;
kernLeft = H;
kernRight = H;
lastChange = "2024-12-19 13:17:37 +0000";
layers = (
{
background = {
anchors = (
{
name = bottom;
pos = (121,0);
},
{
name = ogonek;
pos = (164,0);
},
{
name = top;
pos = (121,894);
},
{
name = topleft;
pos = (20,710);
}
);
shapes = (
{
closed = 1;
nodes = (
(164,0,l),
(164,710,l),
(78,710,l),
(78,0,l)
);
},
{
closed = 1;
nodes = (
(213,790,o),
(253,817,o),
(262,888,c),
(209,888,l),
(207,861,o),
(197,842,o),
(179,842,cs),
(143,842,o),
(123,894,o),
(64,894,cs),
(24,894,o),
(-13,863,o),
(-21,796,c),
(31,796,l),
(33,827,o),
(47,842,o),
(64,842,cs),
(98,842,o),
(121,790,o),
(174,790,cs)
);
}
);
};
layerId = "E39CE873-C6CB-4040-8FBA-1D86B139B3E5";
shapes = (
{
ref = I;
},
{
pos = (-21,0);
ref = tildecomb.case;
}
);
width = 242;
}
);
unicode = 296;
},
{
glyphname = J;
kernLeft = J;
kernRight = J;
lastChange = "2024-12-19 13:17:24 +0000";
layers = (
{
anchors = (
{
name = bottom;
pos = (130,0);
},
{
name = top;
pos = (261,710);
}
);
background = {
anchors = (
{
name = bottom;
pos = (130,0);
},
{
name = top;
pos = (261,710);
}
);
shapes = (
{
closed = 1;
nodes = (
(241,-12,o),
(311,51,o),
(311,185,cs),
(311,710,l),
(225,710,l),
(225,174,ls),
(225,79,o),
(172,56,o),
(117,56,cs),
(88,56,o),
(56,63,o),
(21,72,c),
(21,4,l),
(60,-7,o),
(90,-12,o),
(125,-12,cs)
);
}
);
};
layerId = "E39CE873-C6CB-4040-8FBA-1D86B139B3E5";
shapes = (
{
closed = 1;
nodes = (
(241,-12,o),
(311,51,o),
(311,185,cs),
(311,710,l),
(225,710,l),
(225,174,ls),
(225,79,o),
(172,56,o),
(117,56,cs),
(88,56,o),
(56,63,o),
(21,72,c),
(21,4,l),
(60,-7,o),
(90,-12,o),
(125,-12,cs)
);
}
);
width = 386;
}
);
note = J;
unicode = 74;
},
{
glyphname = Jcircumflex;
kernLeft = J;
kernRight = J;
lastChange = "2024-12-19 13:17:37 +0000";
layers = (
{
background = {
anchors = (
{
name = bottom;
pos = (130,0);
},
{
name = top;
pos = (261,898);
}
);
shapes = (
{
closed = 1;
nodes = (
(241,-12,o),
(311,51,o),
(311,185,cs),
(311,710,l),
(225,710,l),
(225,174,ls),
(225,79,o),
(172,56,o),
(117,56,cs),
(88,56,o),
(56,63,o),
(21,72,c),
(21,4,l),
(60,-7,o),
(90,-12,o),
(125,-12,cs)
);
},
{
closed = 1;
nodes = (
(187,768,l),
(278,875,l),
(247,875,l),
(335,768,l),
(405,768,l),
(296,898,l),
(226,898,l),
(117,768,l)
);
}
);
};
layerId = "E39CE873-C6CB-4040-8FBA-1D86B139B3E5";
shapes = (
{
ref = J;
},
{
pos = (113,0);
ref = circumflexcomb.case;
}
);
width = 386;
}
);
unicode = 308;
},
{
glyphname = K;
kernLeft = H;
kernRight = K;
lastChange = "2024-12-19 13:17:24 +0000";
layers = (
{
anchors = (
{
name = bottom;
pos = (328,0);
},
{
name = top;
pos = (320,710);
}
);
background = {
anchors = (
{
name = bottom;
pos = (328,0);
},
{
name = top;
pos = (320,710);
}
);
shapes = (
{
closed = 1;
nodes = (
(285,362,l),
(315,389,l),
(605,710,l),
(506,710,l),
(130,292,l),
(127,187,l)
);
},
{
closed = 1;
nodes = (
(164,0,l),
(164,710,l),
(78,710,l),
(78,0,l)
);
},
{
closed = 1;
nodes = (
(614,0,l),
(317,420,l),
(247,377,l),
(510,0,l)
);
}
);
};
guides = (
{
angle = 357.2265;
pos = (411,502);
}
);
layerId = "E39CE873-C6CB-4040-8FBA-1D86B139B3E5";
shapes = (
{
closed = 1;
nodes = (
(285,362,l),
(315,389,l),
(605,710,l),
(506,710,l),
(130,292,l),
(127,187,l)
);
},
{
closed = 1;
nodes = (
(164,0,l),
(164,710,l),
(78,710,l),
(78,0,l)
);
},
{
closed = 1;
nodes = (
(614,0,l),
(317,420,l),
(247,377,l),
(510,0,l)
);
}
);
width = 613;
}
);
note = K;
unicode = 75;
},
{
glyphname = Kcommaaccent;
kernLeft = H;
kernRight = K;
lastChange = "2024-12-19 13:17:37 +0000";
layers = (
{
background = {
anchors = (
{
name = bottom;
pos = (328,-242);
},
{
name = top;
pos = (320,710);
}
);
shapes = (
{
closed = 1;
nodes = (
(285,362,l),
(315,389,l),
(605,710,l),
(506,710,l),
(130,292,l),
(127,187,l)
);
},
{
closed = 1;
nodes = (
(164,0,l),
(164,710,l),
(78,710,l),
(78,0,l)
);
},
{
closed = 1;
nodes = (
(614,0,l),
(317,420,l),
(247,377,l),
(510,0,l)
);
},
{
closed = 1;
nodes = (
(337,-242,l),
(372,-142,l),
(372,-75,l),
(284,-75,l),
(284,-158,l),
(316,-158,l),
(288,-242,l)
);
}
);
};
layerId = "E39CE873-C6CB-4040-8FBA-1D86B139B3E5";
shapes = (
{
ref = K;
},
{
pos = (284,0);
ref = commaaccentcomb;
}
);
width = 613;
}
);
unicode = 310;
},
{
glyphname = L;
kernLeft = H;
kernRight = L;
lastChange = "2024-12-19 13:17:24 +0000";
layers = (
{
anchors = (
{
name = bottom;
pos = (265,0);
},
{
name = center;
pos = (265,355);
},
{
name = top;
pos = (120,710);
},
{
name = topright;
pos = (489,710);
}
);
background = {
anchors = (
{
name = bottom;
pos = (265,0);
},
{
name = center;
pos = (265,355);
},
{
name = top;
pos = (120,710);
},
{
name = topright;
pos = (489,710);
}
);
shapes = (
{
closed = 1;
nodes = (
(489,0,l),
(489,70,l),
(144,70,l),
(164,52,l),
(164,710,l),
(78,710,l),
(78,0,l)
);
}
);
};
layerId = "E39CE873-C6CB-4040-8FBA-1D86B139B3E5";
shapes = (
{
closed = 1;
nodes = (
(489,0,l),
(489,70,l),
(144,70,l),
(164,52,l),
(164,710,l),
(78,710,l),
(78,0,l)
);
}
);
width = 509;
}
);
note = L;
unicode = 76;
},
{
glyphname = Lacute;
kernLeft = H;
kernRight = L;
lastChange = "2024-12-19 13:17:37 +0000";
layers = (
{
background = {
anchors = (
{
name = bottom;
pos = (265,0);
},
{
name = center;
pos = (265,355);
},
{
name = top;
pos = (163,913);
},
{
name = topright;
pos = (489,710);
}
);
shapes = (
{
closed = 1;
nodes = (
(489,0,l),
(489,70,l),
(144,70,l),
(164,52,l),
(164,710,l),
(78,710,l),
(78,0,l)
);
},
{
closed = 1;
nodes = (
(241,893,l),
(178,913,l),
(85,778,l),
(141,768,l)
);
}
);
};
layerId = "E39CE873-C6CB-4040-8FBA-1D86B139B3E5";
shapes = (
{
ref = L;
},
{
pos = (85,0);
ref = acutecomb.case;
}
);
width = 509;
}
);
unicode = 313;
},
{
glyphname = Lcaron;
kernLeft = H;
kernRight = L;
lastChange = "2024-12-19 13:17:37 +0000";
layers = (
{
background = {
anchors = (
{
name = bottom;
pos = (265,0);
},
{
name = center;
pos = (265,355);
},
{
name = top;
pos = (120,710);
},
{
name = topright;
pos = (489,710);
}
);
shapes = (
{
closed = 1;
nodes = (
(281,498,l),
(308,710,l),
(240,710,l),
(230,498,l)
);
},
{
closed = 1;
nodes = (
(489,0,l),
(489,70,l),
(144,70,l),
(164,52,l),
(164,710,l),
(78,710,l),
(78,0,l)
);
}
);
};
layerId = "E39CE873-C6CB-4040-8FBA-1D86B139B3E5";
shapes = (
{
closed = 1;
nodes = (
(281,498,l),
(308,710,l),
(240,710,l),
(230,498,l)
);
},
{
ref = L;
}
);
width = 510;
}
);
unicode = 317;
},
{
glyphname = Lcommaaccent;
kernLeft = H;
kernRight = L;
lastChange = "2024-12-19 13:17:37 +0000";
layers = (
{
background = {
anchors = (
{
name = bottom;
pos = (265,-242);
},
{
name = center;
pos = (265,355);
},
{
name = top;
pos = (120,710);
},
{
name = topright;
pos = (489,710);
}
);
shapes = (
{
closed = 1;
nodes = (
(489,0,l),
(489,70,l),
(144,70,l),
(164,52,l),
(164,710,l),
(78,710,l),
(78,0,l)
);
},
{
closed = 1;
nodes = (
(274,-242,l),
(309,-142,l),
(309,-75,l),
(221,-75,l),
(221,-158,l),
(253,-158,l),
(225,-242,l)
);
}
);
};
layerId = "E39CE873-C6CB-4040-8FBA-1D86B139B3E5";
shapes = (
{
ref = L;
},
{
pos = (221,0);
ref = commaaccentcomb;
}
);
width = 509;
}
);
unicode = 315;
},
{
glyphname = Ldot;
kernLeft = H;
kernRight = L;
lastChange = "2024-12-19 13:17:51 +0000";
layers = (
{
background = {
anchors = (
{
name = bottom;
pos = (265,0);
},
{
name = center;
pos = (265,355);
},
{
name = top;
pos = (120,710);
},
{
name = topright;
pos = (489,710);
}
);
shapes = (
{
closed = 1;
nodes = (
(489,0,l),
(489,70,l),
(144,70,l),
(164,52,l),
(164,710,l),
(78,710,l),
(78,0,l)
);
},
{
closed = 1;
nodes = (
(429,334,l),
(429,423,l),
(341,423,l),
(341,334,l)
);
}
);
};
layerId = "E39CE873-C6CB-4040-8FBA-1D86B139B3E5";
shapes = (
{
ref = L;
},
{
pos = (280,40);
ref = periodcentered.case;
}
);
width = 509;
}
);
unicode = 319;
},
{
glyphname = Lslash;
kernRight = L;
lastChange = "2024-12-19 13:17:37 +0000";
layers = (
{
background = {
anchors = (
{
name = bottom;
pos = (310,0);
},
{
name = center;
pos = (310,355);
},
{
name = top;
pos = (165,710);
},
{
name = topright;
pos = (534,710);
}
);
shapes = (
{
closed = 1;
nodes = (
(349,398,l),
(349,472,l),
(31,315,l),
(31,241,l)
);
},
{
closed = 1;
nodes = (
(534,0,l),
(534,70,l),
(189,70,l),
(209,52,l),
(209,710,l),
(123,710,l),
(123,0,l)
);
}
);
};
layerId = "E39CE873-C6CB-4040-8FBA-1D86B139B3E5";
shapes = (
{
closed = 1;
nodes = (
(349,398,l),
(349,472,l),
(31,315,l),
(31,241,l)
);
},
{
pos = (45,0);
ref = L;
}
);
width = 555;
}
);
unicode = 321;
},
{
glyphname = M;
kernLeft = H;
kernRight = H;
lastChange = "2024-12-19 13:17:24 +0000";
layers = (
{
anchors = (
{
name = bottom;
pos = (404,0);
},
{
name = top;
pos = (404,710);
}
);
background = {
anchors = (
{
name = bottom;
pos = (404,0);
},
{
name = top;
pos = (404,710);
}
);
shapes = (
{
closed = 1;
nodes = (
(160,0,l),
(160,612,l),
(162,612,l),
(365,0,l),
(440,0,l),
(643,612,l),
(645,612,l),
(645,0,l),
(729,0,l),
(729,710,l),
(603,710,l),
(406,116,l),
(405,116,l),
(208,710,l),
(78,710,l),
(78,0,l)
);
}
);
};
layerId = "E39CE873-C6CB-4040-8FBA-1D86B139B3E5";
shapes = (
{
closed = 1;
nodes = (
(160,0,l),
(160,612,l),
(162,612,l),
(365,0,l),
(440,0,l),
(643,612,l),
(645,612,l),
(645,0,l),
(729,0,l),
(729,710,l),
(603,710,l),
(406,116,l),
(405,116,l),
(208,710,l),
(78,710,l),
(78,0,l)
);
}
);
width = 807;
}
);
note = M;
unicode = 77;
},
{
glyphname = N;
kernLeft = H;
kernRight = H;
lastChange = "2024-12-19 13:17:24 +0000";
layers = (
{
anchors = (
{
name = bottom;
pos = (334,0);
},
{
name = top;
pos = (334,710);
}
);
background = {
anchors = (
{
name = bottom;
pos = (334,0);
},
{
name = top;
pos = (334,710);
}
);
shapes = (
{
closed = 1;
nodes = (
(154,0,l),
(154,617,l),
(155,617,l),
(518,0,l),
(590,0,l),
(590,710,l),
(514,710,l),
(514,154,l),
(513,154,l),
(186,710,l),
(78,710,l),
(78,0,l)
);
}
);
};
layerId = "E39CE873-C6CB-4040-8FBA-1D86B139B3E5";
shapes = (
{
closed = 1;
nodes = (
(154,0,l),
(154,617,l),
(155,617,l),
(518,0,l),
(590,0,l),
(590,710,l),
(514,710,l),
(514,154,l),
(513,154,l),
(186,710,l),
(78,710,l),
(78,0,l)
);
}
);
width = 668;
}
);
note = N;
unicode = 78;
},
{
glyphname = Nacute;
kernLeft = H;
kernRight = H;
lastChange = "2024-12-19 13:17:37 +0000";
layers = (
{
background = {
anchors = (
{
name = bottom;
pos = (334,0);
},
{
name = top;
pos = (377,913);
}
);
shapes = (
{
closed = 1;
nodes = (
(154,0,l),
(154,617,l),
(155,617,l),
(518,0,l),
(590,0,l),
(590,710,l),
(514,710,l),
(514,154,l),
(513,154,l),
(186,710,l),
(78,710,l),
(78,0,l)
);
},
{
closed = 1;
nodes = (
(455,893,l),
(392,913,l),
(299,778,l),
(355,768,l)
);
}
);
};
layerId = "E39CE873-C6CB-4040-8FBA-1D86B139B3E5";
shapes = (
{
ref = N;
},
{
pos = (299,0);
ref = acutecomb.case;
}
);
width = 668;
}
);
unicode = 323;
},
{
glyphname = Ncaron;
kernLeft = H;
kernRight = H;
lastChange = "2024-12-19 13:17:37 +0000";
layers = (
{
background = {
anchors = (
{
name = bottom;
pos = (334,0);
},
{
name = top;
pos = (334,908);
}
);
shapes = (
{
closed = 1;
nodes = (
(154,0,l),
(154,617,l),
(155,617,l),
(518,0,l),
(590,0,l),
(590,710,l),
(514,710,l),
(514,154,l),
(513,154,l),
(186,710,l),
(78,710,l),
(78,0,l)
);
},
{
closed = 1;
nodes = (
(369,778,l),
(478,908,l),
(408,908,l),
(320,801,l),
(351,801,l),
(260,908,l),
(190,908,l),
(299,778,l)
);
}
);
};
layerId = "E39CE873-C6CB-4040-8FBA-1D86B139B3E5";
shapes = (
{
ref = N;
},
{
pos = (186,0);
ref = caroncomb.case;
}
);
width = 668;
}
);
unicode = 327;
},
{
glyphname = Ncommaaccent;
kernLeft = H;
kernRight = H;
lastChange = "2024-12-19 13:17:37 +0000";
layers = (
{
background = {
anchors = (
{
name = bottom;
pos = (334,-242);
},
{
name = top;
pos = (334,710);
}
);
shapes = (
{
closed = 1;
nodes = (
(154,0,l),
(154,617,l),
(155,617,l),
(518,0,l),
(590,0,l),
(590,710,l),
(514,710,l),
(514,154,l),
(513,154,l),
(186,710,l),
(78,710,l),
(78,0,l)
);
},
{
closed = 1;
nodes = (
(343,-242,l),
(378,-142,l),
(378,-75,l),
(290,-75,l),
(290,-158,l),
(322,-158,l),
(294,-242,l)
);
}
);
};
layerId = "E39CE873-C6CB-4040-8FBA-1D86B139B3E5";
shapes = (
{
ref = N;
},
{
pos = (290,0);
ref = commaaccentcomb;
}
);
width = 668;
}
);
unicode = 325;
},
{
glyphname = Ntilde;
kernLeft = H;
kernRight = H;
lastChange = "2024-12-19 13:17:37 +0000";
layers = (
{
background = {
anchors = (
{
name = bottom;
pos = (334,0);
},
{
name = top;
pos = (334,894);
}
);
shapes = (
{
closed = 1;
nodes = (
(154,0,l),
(154,617,l),
(155,617,l),
(518,0,l),
(590,0,l),
(590,710,l),
(514,710,l),
(514,154,l),
(513,154,l),
(186,710,l),
(78,710,l),
(78,0,l)
);
},
{
closed = 1;
nodes = (
(426,790,o),
(466,817,o),
(475,888,c),
(422,888,l),
(420,861,o),
(410,842,o),
(392,842,cs),
(356,842,o),
(336,894,o),
(277,894,cs),
(237,894,o),
(200,863,o),
(192,796,c),
(244,796,l),
(246,827,o),
(260,842,o),
(277,842,cs),
(311,842,o),
(334,790,o),
(387,790,cs)
);
}
);
};
layerId = "E39CE873-C6CB-4040-8FBA-1D86B139B3E5";
shapes = (
{
ref = N;
},
{
pos = (192,0);
ref = tildecomb.case;
}
);
width = 668;
}
);
unicode = 209;
},
{
glyphname = Eng;
kernLeft = H;
kernRight = H;
lastChange = "2024-12-19 13:17:24 +0000";
layers = (
{
background = {
shapes = (
{
closed = 1;
nodes = (
(518,-173,o),
(590,-105,o),
(590,29,cs),
(590,710,l),
(514,710,l),
(514,154,l),
(513,154,l),
(186,710,l),
(78,710,l),
(78,0,l),
(154,0,l),
(154,617,l),
(155,617,l),
(518,0,l),
(504,40,l),
(504,10,ls),
(504,-75,o),
(456,-105,o),
(378,-105,cs),
(357,-105,o),
(340,-103,o),
(323,-101,c),
(323,-168,l),
(339,-171,o),
(360,-173,o),
(391,-173,cs)
);
}
);
};
layerId = "E39CE873-C6CB-4040-8FBA-1D86B139B3E5";
shapes = (
{
closed = 1;
nodes = (
(518,-173,o),
(590,-105,o),
(590,29,cs),
(590,710,l),
(514,710,l),
(514,154,l),
(513,154,l),
(186,710,l),
(78,710,l),
(78,0,l),
(154,0,l),
(154,617,l),
(155,617,l),
(518,0,l),
(504,40,l),
(504,10,ls),
(504,-75,o),
(456,-105,o),
(378,-105,cs),
(357,-105,o),
(340,-103,o),
(323,-101,c),
(323,-168,l),
(339,-171,o),
(360,-173,o),
(391,-173,cs)
);
}
);
width = 668;
}
);
unicode = 330;
},
{
glyphname = O;
kernLeft = O;
kernRight = O;
lastChange = "2024-12-19 13:17:24 +0000";
layers = (
{
anchors = (
{
name = bottom;
pos = (362,0);
},
{
name = center;
pos = (362,355);
},
{
name = ogonek;
pos = (645,10);
},
{
name = top;
pos = (362,710);
},
{
name = topleft;
pos = (28,710);
},
{
name = topright;
pos = (696,710);
}
);
background = {
anchors = (
{
name = bottom;
pos = (362,0);
},
{
name = center;
pos = (362,355);
},
{
name = ogonek;
pos = (645,10);
},
{
name = top;
pos = (362,710);
},
{
name = topleft;
pos = (28,710);
},
{
name = topright;
pos = (696,710);
}
);
shapes = (
{
closed = 1;
nodes = (
(561,-12,o),
(680,145,o),
(680,354,cs),
(680,564,o),
(561,722,o),
(362,722,cs),
(162,722,o),
(44,563,o),
(44,354,cs),
(44,145,o),
(163,-12,o),
(362,-12,cs)
);
},
{
closed = 1;
nodes = (
(221,57,o),
(131,172,o),
(131,335,cs),
(131,375,ls),
(131,538,o),
(221,653,o),
(362,653,cs),
(503,653,o),
(593,538,o),
(593,375,cs),
(593,335,ls),
(593,172,o),
(503,57,o),
(362,57,cs)
);
}
);
};
layerId = "E39CE873-C6CB-4040-8FBA-1D86B139B3E5";
shapes = (
{
closed = 1;
nodes = (
(561,-12,o),
(680,145,o),
(680,354,cs),
(680,564,o),
(561,722,o),
(362,722,cs),
(162,722,o),
(44,563,o),
(44,354,cs),
(44,145,o),
(163,-12,o),
(362,-12,cs)
);
},
{
closed = 1;
nodes = (
(221,57,o),
(131,172,o),
(131,335,cs),
(131,375,ls),
(131,538,o),
(221,653,o),
(362,653,cs),
(503,653,o),
(593,538,o),
(593,375,cs),
(593,335,ls),
(593,172,o),
(503,57,o),
(362,57,cs)
);
}
);
width = 724;
}
);
note = O;
unicode = 79;
},
{
glyphname = Oacute;
kernLeft = O;
kernRight = O;
lastChange = "2024-12-19 13:17:37 +0000";
layers = (
{
background = {
anchors = (
{
name = bottom;
pos = (362,0);
},
{
name = center;
pos = (362,355);
},
{
name = ogonek;
pos = (645,10);
},
{
name = top;
pos = (405,913);
},
{
name = topleft;
pos = (28,710);
},
{
name = topright;
pos = (696,710);
}
);
shapes = (
{
closed = 1;
nodes = (
(561,-12,o),
(680,145,o),
(680,354,cs),
(680,564,o),
(561,722,o),
(362,722,cs),
(162,722,o),
(44,563,o),
(44,354,cs),
(44,145,o),
(163,-12,o),
(362,-12,cs)
);
},
{
closed = 1;
nodes = (
(221,57,o),
(131,172,o),
(131,335,cs),
(131,375,ls),
(131,538,o),
(221,653,o),
(362,653,cs),
(503,653,o),
(593,538,o),
(593,375,cs),
(593,335,ls),
(593,172,o),
(503,57,o),
(362,57,cs)
);
},
{
closed = 1;
nodes = (
(483,893,l),
(420,913,l),
(327,778,l),
(383,768,l)
);
}
);
};
layerId = "E39CE873-C6CB-4040-8FBA-1D86B139B3E5";
shapes = (
{
ref = O;
},
{
pos = (327,0);
ref = acutecomb.case;
}
);
width = 724;
}
);
unicode = 211;
},
{
glyphname = Obreve;
kernLeft = O;
kernRight = O;
lastChange = "2024-12-19 13:17:37 +0000";
layers = (
{
background = {
anchors = (
{
name = bottom;
pos = (362,0);
},
{
name = center;
pos = (362,355);
},
{
name = ogonek;
pos = (645,10);
},
{
name = top;
pos = (362,908);
},
{
name = topleft;
pos = (28,710);
},
{
name = topright;
pos = (696,710);
}
);
shapes = (
{
closed = 1;
nodes = (
(561,-12,o),
(680,145,o),
(680,354,cs),
(680,564,o),
(561,722,o),
(362,722,cs),
(162,722,o),
(44,563,o),
(44,354,cs),
(44,145,o),
(163,-12,o),
(362,-12,cs)
);
},
{
closed = 1;
nodes = (
(221,57,o),
(131,172,o),
(131,335,cs),
(131,375,ls),
(131,538,o),
(221,653,o),
(362,653,cs),
(503,653,o),
(593,538,o),
(593,375,cs),
(593,335,ls),
(593,172,o),
(503,57,o),
(362,57,cs)
);
},
{
closed = 1;
nodes = (
(446,778,o),
(506,829,o),
(510,908,c),
(446,908,l),
(442,870,o),
(421,829,o),
(362,829,cs),
(303,829,o),
(282,870,o),
(278,908,c),
(214,908,l),
(218,829,o),
(278,778,o),
(362,778,cs)
);
}
);
};
layerId = "E39CE873-C6CB-4040-8FBA-1D86B139B3E5";
shapes = (
{
ref = O;
},
{
pos = (214,0);
ref = brevecomb.case;
}
);
width = 724;
}
);
unicode = 334;
},
{
glyphname = Ocircumflex;
kernLeft = O;
kernRight = O;
lastChange = "2024-12-19 13:17:37 +0000";
layers = (
{
background = {
anchors = (
{
name = bottom;
pos = (362,0);
},
{
name = center;
pos = (362,355);
},
{
name = ogonek;
pos = (645,10);
},
{
name = top;
pos = (362,898);
},
{
name = topleft;
pos = (28,710);
},
{
name = topright;
pos = (696,710);
}
);
shapes = (
{
closed = 1;
nodes = (
(561,-12,o),
(680,145,o),
(680,354,cs),
(680,564,o),
(561,722,o),
(362,722,cs),
(162,722,o),
(44,563,o),
(44,354,cs),
(44,145,o),
(163,-12,o),
(362,-12,cs)
);
},
{
closed = 1;
nodes = (
(221,57,o),
(131,172,o),
(131,335,cs),
(131,375,ls),
(131,538,o),
(221,653,o),
(362,653,cs),
(503,653,o),
(593,538,o),
(593,375,cs),
(593,335,ls),
(593,172,o),
(503,57,o),
(362,57,cs)
);
},
{
closed = 1;
nodes = (
(288,768,l),
(379,875,l),
(348,875,l),
(436,768,l),
(506,768,l),
(397,898,l),
(327,898,l),
(218,768,l)
);
}
);
};
layerId = "E39CE873-C6CB-4040-8FBA-1D86B139B3E5";
shapes = (
{
ref = O;
},
{
pos = (214,0);
ref = circumflexcomb.case;
}
);
width = 724;
}
);
unicode = 212;
},
{
glyphname = Odieresis;
kernLeft = O;
kernRight = O;
lastChange = "2024-12-19 13:17:37 +0000";
layers = (
{
background = {
anchors = (
{
name = bottom;
pos = (362,0);
},
{
name = center;
pos = (362,355);
},
{
name = ogonek;
pos = (645,10);
},
{
name = top;
pos = (362,896);
},
{
name = topleft;
pos = (28,710);
},
{
name = topright;
pos = (696,710);
}
);
shapes = (
{
closed = 1;
nodes = (
(561,-12,o),
(680,145,o),
(680,354,cs),
(680,564,o),
(561,722,o),
(362,722,cs),
(162,722,o),
(44,563,o),
(44,354,cs),
(44,145,o),
(163,-12,o),
(362,-12,cs)
);
},
{
closed = 1;
nodes = (
(221,57,o),
(131,172,o),
(131,335,cs),
(131,375,ls),
(131,538,o),
(221,653,o),
(362,653,cs),
(503,653,o),
(593,538,o),
(593,375,cs),
(593,335,ls),
(593,172,o),
(503,57,o),
(362,57,cs)
);
},
{
closed = 1;
nodes = (
(322,806,l),
(322,896,l),
(239,896,l),
(239,806,l)
);
},
{
closed = 1;
nodes = (
(485,806,l),
(485,896,l),
(402,896,l),
(402,806,l)
);
}
);
};
layerId = "E39CE873-C6CB-4040-8FBA-1D86B139B3E5";
shapes = (
{
ref = O;
},
{
pos = (239,0);
ref = dieresiscomb.case;
}
);
width = 724;
}
);
unicode = 214;
},
{
glyphname = Ograve;
kernLeft = O;
kernRight = O;
lastChange = "2024-12-19 13:17:37 +0000";
layers = (
{
background = {
anchors = (
{
name = bottom;
pos = (362,0);
},
{
name = center;
pos = (362,355);
},
{
name = ogonek;
pos = (645,10);
},
{
name = top;
pos = (319,913);
},
{
name = topleft;
pos = (28,710);
},
{
name = topright;
pos = (696,710);
}
);
shapes = (
{
closed = 1;
nodes = (
(561,-12,o),
(680,145,o),
(680,354,cs),
(680,564,o),
(561,722,o),
(362,722,cs),
(162,722,o),
(44,563,o),
(44,354,cs),
(44,145,o),
(163,-12,o),
(362,-12,cs)
);
},
{
closed = 1;
nodes = (
(221,57,o),
(131,172,o),
(131,335,cs),
(131,375,ls),
(131,538,o),
(221,653,o),
(362,653,cs),
(503,653,o),
(593,538,o),
(593,375,cs),
(593,335,ls),
(593,172,o),
(503,57,o),
(362,57,cs)
);
},
{
closed = 1;
nodes = (
(397,778,l),
(304,913,l),
(241,893,l),
(341,768,l)
);
}
);
};
layerId = "E39CE873-C6CB-4040-8FBA-1D86B139B3E5";
shapes = (
{
ref = O;
},
{
pos = (241,0);
ref = gravecomb.case;
}
);
width = 724;
}
);
unicode = 210;
},
{
glyphname = Ohungarumlaut;
kernLeft = O;
kernRight = O;
lastChange = "2024-12-19 13:17:37 +0000";
layers = (
{
background = {
anchors = (
{
name = bottom;
pos = (362,0);
},
{
name = center;
pos = (362,355);
},
{
name = ogonek;
pos = (645,10);
},
{
name = top;
pos = (405,913);
},
{
name = topleft;
pos = (28,710);
},
{
name = topright;
pos = (696,710);
}
);
shapes = (
{
closed = 1;
nodes = (
(561,-12,o),
(680,145,o),
(680,354,cs),
(680,564,o),
(561,722,o),
(362,722,cs),
(162,722,o),
(44,563,o),
(44,354,cs),
(44,145,o),
(163,-12,o),
(362,-12,cs)
);
},
{
closed = 1;
nodes = (
(221,57,o),
(131,172,o),
(131,335,cs),
(131,375,ls),
(131,538,o),
(221,653,o),
(362,653,cs),
(503,653,o),
(593,538,o),
(593,375,cs),
(593,335,ls),
(593,172,o),
(503,57,o),
(362,57,cs)
);
},
{
closed = 1;
nodes = (
(407,893,l),
(344,913,l),
(251,778,l),
(307,768,l)
);
},
{
closed = 1;
nodes = (
(558,893,l),
(495,913,l),
(392,778,l),
(448,768,l)
);
}
);
};
layerId = "E39CE873-C6CB-4040-8FBA-1D86B139B3E5";
shapes = (
{
ref = O;
},
{
pos = (251,0);
ref = hungarumlautcomb.case;
}
);
width = 724;
}
);
unicode = 336;
},
{
glyphname = Omacron;
kernLeft = O;
kernRight = O;
lastChange = "2024-12-19 13:17:37 +0000";
layers = (
{
background = {
anchors = (
{
name = bottom;
pos = (362,0);
},
{
name = center;
pos = (362,355);
},
{
name = ogonek;
pos = (645,10);
},
{
name = top;
pos = (362,850);
},
{
name = topleft;
pos = (28,710);
},
{
name = topright;
pos = (696,710);
}
);
shapes = (
{
closed = 1;
nodes = (
(561,-12,o),
(680,145,o),
(680,354,cs),
(680,564,o),
(561,722,o),
(362,722,cs),
(162,722,o),
(44,563,o),
(44,354,cs),
(44,145,o),
(163,-12,o),
(362,-12,cs)
);
},
{
closed = 1;
nodes = (
(221,57,o),
(131,172,o),
(131,335,cs),
(131,375,ls),
(131,538,o),
(221,653,o),
(362,653,cs),
(503,653,o),
(593,538,o),
(593,375,cs),
(593,335,ls),
(593,172,o),
(503,57,o),
(362,57,cs)
);
},
{
closed = 1;
nodes = (
(527,795,l),
(527,850,l),
(196,850,l),
(196,795,l)
);
}
);
};
layerId = "E39CE873-C6CB-4040-8FBA-1D86B139B3E5";
shapes = (
{
ref = O;
},
{
pos = (196,0);
ref = macroncomb.case;
}
);
width = 724;
}
);
unicode = 332;
},
{
glyphname = Oslash;
kernLeft = O;
kernRight = O;
lastChange = "2024-12-19 13:17:24 +0000";
layers = (
{
anchors = (
{
name = bottom;
pos = (362,0);
},
{
name = top;
pos = (362,710);
}
);
background = {
anchors = (
{
name = bottom;
pos = (362,0);
},
{
name = top;
pos = (362,710);
}
);
shapes = (
{
closed = 1;
nodes = (
(561,-12,o),
(680,145,o),
(680,354,cs),
(680,564,o),
(561,722,o),
(362,722,cs),
(162,722,o),
(44,563,o),
(44,354,cs),
(44,145,o),
(163,-12,o),
(362,-12,cs)
);
},
{
closed = 1;
nodes = (
(221,57,o),
(131,172,o),
(131,335,cs),
(131,375,ls),
(131,538,o),
(221,653,o),
(362,653,cs),
(503,653,o),
(593,538,o),
(593,375,cs),
(593,335,ls),
(593,172,o),
(503,57,o),
(362,57,cs)
);
},
{
closed = 1;
nodes = (
(660,683,l),
(605,722,l),
(64,27,l),
(119,-12,l)
);
}
);
};
layerId = "E39CE873-C6CB-4040-8FBA-1D86B139B3E5";
shapes = (
{
closed = 1;
nodes = (
(561,-12,o),
(680,145,o),
(680,354,cs),
(680,564,o),
(561,722,o),
(362,722,cs),
(162,722,o),
(44,563,o),
(44,354,cs),
(44,145,o),
(163,-12,o),
(362,-12,cs)
);
},
{
closed = 1;
nodes = (
(221,57,o),
(131,172,o),
(131,335,cs),
(131,375,ls),
(131,538,o),
(221,653,o),
(362,653,cs),
(503,653,o),
(593,538,o),
(593,375,cs),
(593,335,ls),
(593,172,o),
(503,57,o),
(362,57,cs)
);
},
{
closed = 1;
nodes = (
(660,683,l),
(605,722,l),
(64,27,l),
(119,-12,l)
);
}
);
width = 724;
}
);
unicode = 216;
},
{
glyphname = Oslashacute;
kernLeft = O;
kernRight = O;
lastChange = "2024-12-19 13:17:37 +0000";
layers = (
{
background = {
anchors = (
{
name = bottom;
pos = (362,0);
},
{
name = top;
pos = (405,913);
}
);
shapes = (
{
closed = 1;
nodes = (
(561,-12,o),
(680,145,o),
(680,354,cs),
(680,564,o),
(561,722,o),
(362,722,cs),
(162,722,o),
(44,563,o),
(44,354,cs),
(44,145,o),
(163,-12,o),
(362,-12,cs)
);
},
{
closed = 1;
nodes = (
(221,57,o),
(131,172,o),
(131,335,cs),
(131,375,ls),
(131,538,o),
(221,653,o),
(362,653,cs),
(503,653,o),
(593,538,o),
(593,375,cs),
(593,335,ls),
(593,172,o),
(503,57,o),
(362,57,cs)
);
},
{
closed = 1;
nodes = (
(660,683,l),
(605,722,l),
(64,27,l),
(119,-12,l)
);
},
{
closed = 1;
nodes = (
(483,893,l),
(420,913,l),
(327,778,l),
(383,768,l)
);
}
);
};
layerId = "E39CE873-C6CB-4040-8FBA-1D86B139B3E5";
shapes = (
{
ref = Oslash;
},
{
pos = (327,0);
ref = acutecomb.case;
}
);
width = 724;
}
);
unicode = 510;
},
{
glyphname = Otilde;
kernLeft = O;
kernRight = O;
lastChange = "2024-12-19 13:17:37 +0000";
layers = (
{
background = {
anchors = (
{
name = bottom;
pos = (362,0);
},
{
name = center;
pos = (362,355);
},
{
name = ogonek;
pos = (645,10);
},
{
name = top;
pos = (362,894);
},
{
name = topleft;
pos = (28,710);
},
{
name = topright;
pos = (696,710);
}
);
shapes = (
{
closed = 1;
nodes = (
(561,-12,o),
(680,145,o),
(680,354,cs),
(680,564,o),
(561,722,o),
(362,722,cs),
(162,722,o),
(44,563,o),
(44,354,cs),
(44,145,o),
(163,-12,o),
(362,-12,cs)
);
},
{
closed = 1;
nodes = (
(221,57,o),
(131,172,o),
(131,335,cs),
(131,375,ls),
(131,538,o),
(221,653,o),
(362,653,cs),
(503,653,o),
(593,538,o),
(593,375,cs),
(593,335,ls),
(593,172,o),
(503,57,o),
(362,57,cs)
);
},
{
closed = 1;
nodes = (
(454,790,o),
(494,817,o),
(503,888,c),
(450,888,l),
(448,861,o),
(438,842,o),
(420,842,cs),
(384,842,o),
(364,894,o),
(305,894,cs),
(265,894,o),
(228,863,o),
(220,796,c),
(272,796,l),
(274,827,o),
(288,842,o),
(305,842,cs),
(339,842,o),
(362,790,o),
(415,790,cs)
);
}
);
};
layerId = "E39CE873-C6CB-4040-8FBA-1D86B139B3E5";
shapes = (
{
ref = O;
},
{
pos = (220,0);
ref = tildecomb.case;
}
);
width = 724;
}
);
unicode = 213;
},
{
glyphname = OE;
kernRight = E;
lastChange = "2024-12-19 13:17:24 +0000";
layers = (
{
anchors = (
{
name = bottom;
pos = (499,0);
},
{
name = top;
pos = (499,710);
}
);
background = {
anchors = (
{
name = bottom;
pos = (499,0);
},
{
name = top;
pos = (499,710);
}
);
shapes = (
{
closed = 1;
nodes = (
(958,0,l),
(958,70,l),
(564,70,l),
(596,44,l),
(596,670,l),
(564,640,l),
(954,640,l),
(954,710,l),
(382,710,ls),
(154,710,o),
(44,557,o),
(44,355,cs),
(44,153,o),
(154,0,o),
(382,0,cs)
);
},
{
closed = 1;
nodes = (
(210,70,o),
(130,183,o),
(130,336,cs),
(130,374,ls),
(130,527,o),
(210,640,o),
(375,640,cs),
(510,640,l),
(510,70,l),
(375,70,ls)
);
},
{
closed = 1;
nodes = (
(903,329,l),
(903,399,l),
(578,399,l),
(578,329,l)
);
}
);
};
layerId = "E39CE873-C6CB-4040-8FBA-1D86B139B3E5";
shapes = (
{
closed = 1;
nodes = (
(958,0,l),
(958,70,l),
(564,70,l),
(596,44,l),
(596,670,l),
(564,640,l),
(954,640,l),
(954,710,l),
(382,710,ls),
(154,710,o),
(44,557,o),
(44,355,cs),
(44,153,o),
(154,0,o),
(382,0,cs)
);
},
{
closed = 1;
nodes = (
(210,70,o),
(130,183,o),
(130,336,cs),
(130,374,ls),
(130,527,o),
(210,640,o),
(375,640,cs),
(510,640,l),
(510,70,l),
(375,70,ls)
);
},
{
closed = 1;
nodes = (
(903,329,l),
(903,399,l),
(578,399,l),
(578,329,l)
);
}
);
width = 999;
}
);
unicode = 338;
},
{
glyphname = P;
kernLeft = H;
lastChange = "2024-12-19 13:17:24 +0000";
layers = (
{
anchors = (
{
name = bottom;
pos = (307,0);
},
{
name = top;
pos = (307,710);
}
);
background = {
anchors = (
{
name = bottom;
pos = (307,0);
},
{
name = top;
pos = (307,710);
}
);
shapes = (
{
closed = 1;
nodes = (
(164,0,l),
(164,670,l),
(132,640,l),
(344,640,ls),
(447,640,o),
(492,586,o),
(492,503,cs),
(492,492,ls),
(492,414,o),
(449,355,o),
(344,355,cs),
(148,355,l),
(148,285,l),
(350,285,ls),
(499,285,o),
(577,373,o),
(577,501,cs),
(577,623,o),
(505,710,o),
(349,710,cs),
(78,710,l),
(78,0,l)
);
}
);
};
layerId = "E39CE873-C6CB-4040-8FBA-1D86B139B3E5";
shapes = (
{
closed = 1;
nodes = (
(164,0,l),
(164,670,l),
(132,640,l),
(344,640,ls),
(447,640,o),
(492,586,o),
(492,503,cs),
(492,492,ls),
(492,414,o),
(449,355,o),
(344,355,cs),
(148,355,l),
(148,285,l),
(350,285,ls),
(499,285,o),
(577,373,o),
(577,501,cs),
(577,623,o),
(505,710,o),
(349,710,cs),
(78,710,l),
(78,0,l)
);
}
);
width = 604;
}
);
note = P;
unicode = 80;
},
{
glyphname = Thorn;
kernLeft = H;
lastChange = "2024-12-19 13:17:24 +0000";
layers = (
{
anchors = (
{
name = bottom;
pos = (307,0);
},
{
name = top;
pos = (307,710);
}
);
background = {
anchors = (
{
name = bottom;
pos = (307,0);
},
{
name = top;
pos = (307,710);
}
);
shapes = (
{
closed = 1;
nodes = (
(350,149,ls),
(499,149,o),
(577,237,o),
(577,365,cs),
(577,487,o),
(505,574,o),
(349,574,cs),
(122,574,l),
(122,504,l),
(344,504,ls),
(447,504,o),
(492,450,o),
(492,367,cs),
(492,356,ls),
(492,278,o),
(449,219,o),
(344,219,cs),
(122,219,l),
(122,149,l)
);
},
{
closed = 1;
nodes = (
(164,0,l),
(164,710,l),
(78,710,l),
(78,0,l)
);
}
);
};
layerId = "E39CE873-C6CB-4040-8FBA-1D86B139B3E5";
shapes = (
{
closed = 1;
nodes = (
(350,149,ls),
(499,149,o),
(577,237,o),
(577,365,cs),
(577,487,o),
(505,574,o),
(349,574,cs),
(122,574,l),
(122,504,l),
(344,504,ls),
(447,504,o),
(492,450,o),
(492,367,cs),
(492,356,ls),
(492,278,o),
(449,219,o),
(344,219,cs),
(122,219,l),
(122,149,l)
);
},
{
closed = 1;
nodes = (
(164,0,l),
(164,710,l),
(78,710,l),
(78,0,l)
);
}
);
width = 614;
}
);
unicode = 222;
},
{
glyphname = Q;
kernLeft = O;
kernRight = O;
lastChange = "2024-12-19 13:17:24 +0000";
layers = (
{
anchors = (
{
name = bottom;
pos = (362,0);
},
{
name = top;
pos = (362,710);
}
);
background = {
anchors = (
{
name = bottom;
pos = (362,0);
},
{
name = top;
pos = (362,710);
}
);
shapes = (
{
closed = 1;
nodes = (
(561,-12,o),
(680,145,o),
(680,354,cs),
(680,564,o),
(561,722,o),
(362,722,cs),
(162,722,o),
(44,563,o),
(44,354,cs),
(44,145,o),
(163,-12,o),
(362,-12,cs)
);
},
{
closed = 1;
nodes = (
(221,57,o),
(131,172,o),
(131,335,cs),
(131,375,ls),
(131,538,o),
(221,653,o),
(362,653,cs),
(503,653,o),
(593,538,o),
(593,375,cs),
(593,335,ls),
(593,172,o),
(503,57,o),
(362,57,cs)
);
},
{
closed = 1;
nodes = (
(628,-76,l),
(509,69,l),
(450,31,l),
(560,-127,l)
);
}
);
};
layerId = "E39CE873-C6CB-4040-8FBA-1D86B139B3E5";
shapes = (
{
closed = 1;
nodes = (
(561,-12,o),
(680,145,o),
(680,354,cs),
(680,564,o),
(561,722,o),
(362,722,cs),
(162,722,o),
(44,563,o),
(44,354,cs),
(44,145,o),
(163,-12,o),
(362,-12,cs)
);
},
{
closed = 1;
nodes = (
(221,57,o),
(131,172,o),
(131,335,cs),
(131,375,ls),
(131,538,o),
(221,653,o),
(362,653,cs),
(503,653,o),
(593,538,o),
(593,375,cs),
(593,335,ls),
(593,172,o),
(503,57,o),
(362,57,cs)
);
},
{
closed = 1;
nodes = (
(628,-76,l),
(509,69,l),
(450,31,l),
(560,-127,l)
);
}
);
width = 724;
}
);
note = Q;
unicode = 81;
},
{
glyphname = R;
kernLeft = H;
kernRight = R;
lastChange = "2024-12-19 13:17:24 +0000";
layers = (
{
anchors = (
{
name = bottom;
pos = (320,0);
},
{
name = top;
pos = (320,710);
}
);
background = {
anchors = (
{
name = bottom;
pos = (320,0);
},
{
name = top;
pos = (320,710);
}
);
shapes = (
{
closed = 1;
nodes = (
(164,0,l),
(164,681,l),
(125,640,l),
(343,640,ls),
(441,640,o),
(480,589,o),
(480,527,cs),
(480,500,ls),
(480,437,o),
(447,383,o),
(343,383,cs),
(150,383,l),
(150,315,l),
(306,315,l),
(504,0,l),
(601,0,l),
(395,330,l),
(395,316,l),
(514,336,o),
(566,416,o),
(566,515,cs),
(566,623,o),
(500,710,o),
(347,710,cs),
(78,710,l),
(78,0,l)
);
}
);
};
layerId = "E39CE873-C6CB-4040-8FBA-1D86B139B3E5";
shapes = (
{
closed = 1;
nodes = (
(164,0,l),
(164,681,l),
(125,640,l),
(343,640,ls),
(441,640,o),
(480,589,o),
(480,527,cs),
(480,500,ls),
(480,437,o),
(447,383,o),
(343,383,cs),
(150,383,l),
(150,315,l),
(306,315,l),
(504,0,l),
(601,0,l),
(395,330,l),
(395,316,l),
(514,336,o),
(566,416,o),
(566,515,cs),
(566,623,o),
(500,710,o),
(347,710,cs),
(78,710,l),
(78,0,l)
);
}
);
width = 620;
}
);
note = R;
unicode = 82;
},
{
glyphname = Racute;
kernLeft = H;
kernRight = R;
lastChange = "2024-12-19 13:17:37 +0000";
layers = (
{
background = {
anchors = (
{
name = bottom;
pos = (320,0);
},
{
name = top;
pos = (363,913);
}
);
shapes = (
{
closed = 1;
nodes = (
(164,0,l),
(164,681,l),
(125,640,l),
(343,640,ls),
(441,640,o),
(480,589,o),
(480,527,cs),
(480,500,ls),
(480,437,o),
(447,383,o),
(343,383,cs),
(150,383,l),
(150,315,l),
(306,315,l),
(504,0,l),
(601,0,l),
(395,330,l),
(395,316,l),
(514,336,o),
(566,416,o),
(566,515,cs),
(566,623,o),
(500,710,o),
(347,710,cs),
(78,710,l),
(78,0,l)
);
},
{
closed = 1;
nodes = (
(441,893,l),
(378,913,l),
(285,778,l),
(341,768,l)
);
}
);
};
layerId = "E39CE873-C6CB-4040-8FBA-1D86B139B3E5";
shapes = (
{
ref = R;
},
{
pos = (285,0);
ref = acutecomb.case;
}
);
width = 620;
}
);
unicode = 340;
},
{
glyphname = Rcaron;
kernLeft = H;
kernRight = R;
lastChange = "2024-12-19 13:17:37 +0000";
layers = (
{
background = {
anchors = (
{
name = bottom;
pos = (320,0);
},
{
name = top;
pos = (320,908);
}
);
shapes = (
{
closed = 1;
nodes = (
(164,0,l),
(164,681,l),
(125,640,l),
(343,640,ls),
(441,640,o),
(480,589,o),
(480,527,cs),
(480,500,ls),
(480,437,o),
(447,383,o),
(343,383,cs),
(150,383,l),
(150,315,l),
(306,315,l),
(504,0,l),
(601,0,l),
(395,330,l),
(395,316,l),
(514,336,o),
(566,416,o),
(566,515,cs),
(566,623,o),
(500,710,o),
(347,710,cs),
(78,710,l),
(78,0,l)
);
},
{
closed = 1;
nodes = (
(355,778,l),
(464,908,l),
(394,908,l),
(306,801,l),
(337,801,l),
(246,908,l),
(176,908,l),
(285,778,l)
);
}
);
};
layerId = "E39CE873-C6CB-4040-8FBA-1D86B139B3E5";
shapes = (
{
ref = R;
},
{
pos = (172,0);
ref = caroncomb.case;
}
);
width = 620;
}
);
unicode = 344;
},
{
glyphname = Rcommaaccent;
kernLeft = H;
kernRight = R;
lastChange = "2024-12-19 13:17:37 +0000";
layers = (
{
background = {
anchors = (
{
name = bottom;
pos = (320,-242);
},
{
name = top;
pos = (320,710);
}
);
shapes = (
{
closed = 1;
nodes = (
(164,0,l),
(164,681,l),
(125,640,l),
(343,640,ls),
(441,640,o),
(480,589,o),
(480,527,cs),
(480,500,ls),
(480,437,o),
(447,383,o),
(343,383,cs),
(150,383,l),
(150,315,l),
(306,315,l),
(504,0,l),
(601,0,l),
(395,330,l),
(395,316,l),
(514,336,o),
(566,416,o),
(566,515,cs),
(566,623,o),
(500,710,o),
(347,710,cs),
(78,710,l),
(78,0,l)
);
},
{
closed = 1;
nodes = (
(329,-242,l),
(364,-142,l),
(364,-75,l),
(276,-75,l),
(276,-158,l),
(308,-158,l),
(280,-242,l)
);
}
);
};
layerId = "E39CE873-C6CB-4040-8FBA-1D86B139B3E5";
shapes = (
{
ref = R;
},
{
pos = (276,0);
ref = commaaccentcomb;
}
);
width = 620;
}
);
unicode = 342;
},
{
glyphname = S;
kernLeft = S;
kernRight = S;
lastChange = "2024-12-19 13:17:24 +0000";
layers = (
{
anchors = (
{
name = bottom;
pos = (297,0);
},
{
name = top;
pos = (297,710);
}
);
background = {
anchors = (
{
name = bottom;
pos = (297,0);
},
{
name = top;
pos = (297,710);
}
);
shapes = (
{
closed = 1;
nodes = (
(444,-13,o),
(552,53,o),
(552,189,cs),
(552,296,o),
(492,354,o),
(378,383,cs),
(247,416,ls),
(166,436,o),
(135,478,o),
(135,535,cs),
(135,609,o),
(191,657,o),
(294,657,cs),
(393,657,o),
(449,610,o),
(458,519,c),
(536,522,l),
(528,658,o),
(425,722,o),
(293,722,cs),
(158,722,o),
(53,655,o),
(53,528,cs),
(53,450,o),
(101,374,o),
(219,345,cs),
(352,312,ls),
(426,294,o),
(470,265,o),
(470,186,cs),
(470,92,o),
(396,52,o),
(299,53,cs),
(206,54,o),
(124,102,o),
(118,208,c),
(38,203,l),
(43,65,o),
(148,-11,o),
(297,-12,cs)
);
}
);
};
layerId = "E39CE873-C6CB-4040-8FBA-1D86B139B3E5";
shapes = (
{
closed = 1;
nodes = (
(444,-13,o),
(552,53,o),
(552,189,cs),
(552,296,o),
(492,354,o),
(378,383,cs),
(247,416,ls),
(166,436,o),
(135,478,o),
(135,535,cs),
(135,609,o),
(191,657,o),
(294,657,cs),
(393,657,o),
(449,610,o),
(458,519,c),
(536,522,l),
(528,658,o),
(425,722,o),
(293,722,cs),
(158,722,o),
(53,655,o),
(53,528,cs),
(53,450,o),
(101,374,o),
(219,345,cs),
(352,312,ls),
(426,294,o),
(470,265,o),
(470,186,cs),
(470,92,o),
(396,52,o),
(299,53,cs),
(206,54,o),
(124,102,o),
(118,208,c),
(38,203,l),
(43,65,o),
(148,-11,o),
(297,-12,cs)
);
}
);
width = 591;
}
);
note = S;
unicode = 83;
},
{
glyphname = Sacute;
kernLeft = S;
kernRight = S;
lastChange = "2024-12-19 13:17:37 +0000";
layers = (
{
background = {
anchors = (
{
name = bottom;
pos = (297,0);
},
{
name = top;
pos = (340,913);
}
);
shapes = (
{
closed = 1;
nodes = (
(444,-13,o),
(552,53,o),
(552,189,cs),
(552,296,o),
(492,354,o),
(378,383,cs),
(247,416,ls),
(166,436,o),
(135,478,o),
(135,535,cs),
(135,609,o),
(191,657,o),
(294,657,cs),
(393,657,o),
(449,610,o),
(458,519,c),
(536,522,l),
(528,658,o),
(425,722,o),
(293,722,cs),
(158,722,o),
(53,655,o),
(53,528,cs),
(53,450,o),
(101,374,o),
(219,345,cs),
(352,312,ls),
(426,294,o),
(470,265,o),
(470,186,cs),
(470,92,o),
(396,52,o),
(299,53,cs),
(206,54,o),
(124,102,o),
(118,208,c),
(38,203,l),
(43,65,o),
(148,-11,o),
(297,-12,cs)
);
},
{
closed = 1;
nodes = (
(418,893,l),
(355,913,l),
(262,778,l),
(318,768,l)
);
}
);
};
layerId = "E39CE873-C6CB-4040-8FBA-1D86B139B3E5";
shapes = (
{
ref = S;
},
{
pos = (262,0);
ref = acutecomb.case;
}
);
width = 591;
}
);
unicode = 346;
},
{
glyphname = Scaron;
kernLeft = S;
kernRight = S;
lastChange = "2024-12-19 13:17:37 +0000";
layers = (
{
background = {
anchors = (
{
name = bottom;
pos = (297,0);
},
{
name = top;
pos = (297,908);
}
);
shapes = (
{
closed = 1;
nodes = (
(444,-13,o),
(552,53,o),
(552,189,cs),
(552,296,o),
(492,354,o),
(378,383,cs),
(247,416,ls),
(166,436,o),
(135,478,o),
(135,535,cs),
(135,609,o),
(191,657,o),
(294,657,cs),
(393,657,o),
(449,610,o),
(458,519,c),
(536,522,l),
(528,658,o),
(425,722,o),
(293,722,cs),
(158,722,o),
(53,655,o),
(53,528,cs),
(53,450,o),
(101,374,o),
(219,345,cs),
(352,312,ls),
(426,294,o),
(470,265,o),
(470,186,cs),
(470,92,o),
(396,52,o),
(299,53,cs),
(206,54,o),
(124,102,o),
(118,208,c),
(38,203,l),
(43,65,o),
(148,-11,o),
(297,-12,cs)
);
},
{
closed = 1;
nodes = (
(332,778,l),
(441,908,l),
(371,908,l),
(283,801,l),
(314,801,l),
(223,908,l),
(153,908,l),
(262,778,l)
);
}
);
};
layerId = "E39CE873-C6CB-4040-8FBA-1D86B139B3E5";
shapes = (
{
ref = S;
},
{
pos = (149,0);
ref = caroncomb.case;
}
);
width = 591;
}
);
unicode = 352;
},
{
glyphname = Scedilla;
kernLeft = S;
kernRight = S;
lastChange = "2024-12-19 13:17:37 +0000";
layers = (
{
background = {
anchors = (
{
name = bottom;
pos = (322,-159);
},
{
name = top;
pos = (297,710);
}
);
shapes = (
{
closed = 1;
nodes = (
(444,-13,o),
(552,53,o),
(552,189,cs),
(552,296,o),
(492,354,o),
(378,383,cs),
(247,416,ls),
(166,436,o),
(135,478,o),
(135,535,cs),
(135,609,o),
(191,657,o),
(294,657,cs),
(393,657,o),
(449,610,o),
(458,519,c),
(536,522,l),
(528,658,o),
(425,722,o),
(293,722,cs),
(158,722,o),
(53,655,o),
(53,528,cs),
(53,450,o),
(101,374,o),
(219,345,cs),
(352,312,ls),
(426,294,o),
(470,265,o),
(470,186,cs),
(470,92,o),
(396,52,o),
(299,53,cs),
(206,54,o),
(124,102,o),
(118,208,c),
(38,203,l),
(43,65,o),
(148,-11,o),
(297,-12,cs)
);
},
{
closed = 1;
nodes = (
(375,-163,o),
(410,-136,o),
(410,-93,cs),
(410,-41,o),
(359,-31,o),
(302,-26,c),
(327,-54,l),
(325,2,l),
(267,2,l),
(265,-61,l),
(324,-69,o),
(344,-74,o),
(344,-91,cs),
(344,-120,o),
(271,-113,o),
(225,-104,c),
(225,-155,l),
(254,-160,o),
(271,-163,o),
(301,-163,cs)
);
}
);
};
layerId = "E39CE873-C6CB-4040-8FBA-1D86B139B3E5";
shapes = (
{
ref = S;
},
{
pos = (214,0);
ref = cedillacomb;
}
);
width = 591;
}
);
unicode = 350;
},
{
glyphname = Scircumflex;
kernLeft = S;
kernRight = S;
lastChange = "2024-12-19 13:17:37 +0000";
layers = (
{
background = {
anchors = (
{
name = bottom;
pos = (297,0);
},
{
name = top;
pos = (297,898);
}
);
shapes = (
{
closed = 1;
nodes = (
(444,-13,o),
(552,53,o),
(552,189,cs),
(552,296,o),
(492,354,o),
(378,383,cs),
(247,416,ls),
(166,436,o),
(135,478,o),
(135,535,cs),
(135,609,o),
(191,657,o),
(294,657,cs),
(393,657,o),
(449,610,o),
(458,519,c),
(536,522,l),
(528,658,o),
(425,722,o),
(293,722,cs),
(158,722,o),
(53,655,o),
(53,528,cs),
(53,450,o),
(101,374,o),
(219,345,cs),
(352,312,ls),
(426,294,o),
(470,265,o),
(470,186,cs),
(470,92,o),
(396,52,o),
(299,53,cs),
(206,54,o),
(124,102,o),
(118,208,c),
(38,203,l),
(43,65,o),
(148,-11,o),
(297,-12,cs)
);
},
{
closed = 1;
nodes = (
(223,768,l),
(314,875,l),
(283,875,l),
(371,768,l),
(441,768,l),
(332,898,l),
(262,898,l),
(153,768,l)
);
}
);
};
layerId = "E39CE873-C6CB-4040-8FBA-1D86B139B3E5";
shapes = (
{
ref = S;
},
{
pos = (149,0);
ref = circumflexcomb.case;
}
);
width = 591;
}
);
unicode = 348;
},
{
glyphname = Scommaaccent;
kernLeft = S;
kernRight = S;
lastChange = "2024-12-19 13:17:37 +0000";
layers = (
{
background = {
anchors = (
{
name = bottom;
pos = (297,-242);
},
{
name = top;
pos = (297,710);
}
);
shapes = (
{
closed = 1;
nodes = (
(444,-13,o),
(552,53,o),
(552,189,cs),
(552,296,o),
(492,354,o),
(378,383,cs),
(247,416,ls),
(166,436,o),
(135,478,o),
(135,535,cs),
(135,609,o),
(191,657,o),
(294,657,cs),
(393,657,o),
(449,610,o),
(458,519,c),
(536,522,l),
(528,658,o),
(425,722,o),
(293,722,cs),
(158,722,o),
(53,655,o),
(53,528,cs),
(53,450,o),
(101,374,o),
(219,345,cs),
(352,312,ls),
(426,294,o),
(470,265,o),
(470,186,cs),
(470,92,o),
(396,52,o),
(299,53,cs),
(206,54,o),
(124,102,o),
(118,208,c),
(38,203,l),
(43,65,o),
(148,-11,o),
(297,-12,cs)
);
},
{
closed = 1;
nodes = (
(306,-242,l),
(341,-142,l),
(341,-75,l),
(253,-75,l),
(253,-158,l),
(285,-158,l),
(257,-242,l)
);
}
);
};
layerId = "E39CE873-C6CB-4040-8FBA-1D86B139B3E5";
shapes = (
{
ref = S;
},
{
pos = (253,0);
ref = commaaccentcomb;
}
);
width = 591;
}
);
unicode = 536;
},
{
glyphname = Germandbls;
kernLeft = H;
lastChange = "2024-12-19 13:17:24 +0000";
layers = (
{
background = {
shapes = (
{
closed = 1;
nodes = (
(475,-12,o),
(549,87,o),
(549,205,cs),
(549,323,o),
(464,397,o),
(373,419,c),
(377,388,l),
(537,703,l),
(537,710,l),
(78,710,l),
(78,0,l),
(164,0,l),
(164,670,l),
(134,640,l),
(454,640,l),
(438,666,l),
(290,374,l),
(290,367,l),
(405,349,o),
(468,304,o),
(468,209,cs),
(468,59,o),
(358,47,o),
(232,72,c),
(232,0,l),
(256,-6,o),
(290,-12,o),
(329,-12,cs)
);
}
);
};
layerId = "E39CE873-C6CB-4040-8FBA-1D86B139B3E5";
shapes = (
{
closed = 1;
nodes = (
(475,-12,o),
(549,87,o),
(549,205,cs),
(549,323,o),
(464,397,o),
(373,419,c),
(377,388,l),
(537,703,l),
(537,710,l),
(78,710,l),
(78,0,l),
(164,0,l),
(164,670,l),
(134,640,l),
(454,640,l),
(438,666,l),
(290,374,l),
(290,367,l),
(405,349,o),
(468,304,o),
(468,209,cs),
(468,59,o),
(358,47,o),
(232,72,c),
(232,0,l),
(256,-6,o),
(290,-12,o),
(329,-12,cs)
);
}
);
width = 593;
}
);
unicode = 7838;
},
{
glyphname = T;
kernLeft = T;
kernRight = T;
lastChange = "2024-12-19 13:17:24 +0000";
layers = (
{
anchors = (
{
name = bottom;
pos = (298,0);
},
{
name = center;
pos = (298,355);
},
{
name = top;
pos = (298,710);
}
);
background = {
anchors = (
{
name = bottom;
pos = (298,0);
},
{
name = center;
pos = (298,355);
},
{
name = top;
pos = (298,710);
}
);
shapes = (
{
closed = 1;
nodes = (
(341,0,l),
(341,640,l),
(576,640,l),
(576,710,l),
(20,710,l),
(20,640,l),
(255,640,l),
(255,0,l)
);
}
);
};
layerId = "E39CE873-C6CB-4040-8FBA-1D86B139B3E5";
shapes = (
{
closed = 1;
nodes = (
(341,0,l),
(341,640,l),
(576,640,l),
(576,710,l),
(20,710,l),
(20,640,l),
(255,640,l),
(255,0,l)
);
}
);
width = 596;
}
);
note = T;
unicode = 84;
},
{
glyphname = Tbar;
kernLeft = T;
kernRight = T;
lastChange = "2024-12-19 13:17:37 +0000";
layers = (
{
background = {
anchors = (
{
name = bottom;
pos = (302,0);
},
{
name = center;
pos = (302,355);
},
{
name = top;
pos = (302,710);
}
);
shapes = (
{
closed = 1;
nodes = (
(481,331,l),
(481,397,l),
(123,397,l),
(123,331,l)
);
},
{
closed = 1;
nodes = (
(345,0,l),
(345,640,l),
(580,640,l),
(580,710,l),
(24,710,l),
(24,640,l),
(259,640,l),
(259,0,l)
);
}
);
};
layerId = "E39CE873-C6CB-4040-8FBA-1D86B139B3E5";
shapes = (
{
closed = 1;
nodes = (
(481,331,l),
(481,397,l),
(123,397,l),
(123,331,l)
);
},
{
pos = (4,0);
ref = T;
}
);
width = 604;
}
);
unicode = 358;
},
{
glyphname = Tcaron;
kernLeft = T;
kernRight = T;
lastChange = "2024-12-19 13:17:37 +0000";
layers = (
{
background = {
anchors = (
{
name = bottom;
pos = (298,0);
},
{
name = center;
pos = (298,355);
},
{
name = top;
pos = (298,908);
}
);
shapes = (
{
closed = 1;
nodes = (
(341,0,l),
(341,640,l),
(576,640,l),
(576,710,l),
(20,710,l),
(20,640,l),
(255,640,l),
(255,0,l)
);
},
{
closed = 1;
nodes = (
(333,778,l),
(442,908,l),
(372,908,l),
(284,801,l),
(315,801,l),
(224,908,l),
(154,908,l),
(263,778,l)
);
}
);
};
layerId = "E39CE873-C6CB-4040-8FBA-1D86B139B3E5";
shapes = (
{
ref = T;
},
{
pos = (150,0);
ref = caroncomb.case;
}
);
width = 596;
}
);
unicode = 356;
},
{
glyphname = Tcommaaccent;
kernLeft = T;
kernRight = T;
lastChange = "2024-12-19 13:17:37 +0000";
layers = (
{
background = {
anchors = (
{
name = bottom;
pos = (298,-242);
},
{
name = center;
pos = (298,355);
},
{
name = top;
pos = (298,710);
}
);
shapes = (
{
closed = 1;
nodes = (
(341,0,l),
(341,640,l),
(576,640,l),
(576,710,l),
(20,710,l),
(20,640,l),
(255,640,l),
(255,0,l)
);
},
{
closed = 1;
nodes = (
(307,-242,l),
(342,-142,l),
(342,-75,l),
(254,-75,l),
(254,-158,l),
(286,-158,l),
(258,-242,l)
);
}
);
};
layerId = "E39CE873-C6CB-4040-8FBA-1D86B139B3E5";
shapes = (
{
ref = T;
},
{
pos = (254,0);
ref = commaaccentcomb;
}
);
width = 596;
}
);
unicode = 538;
},
{
glyphname = U;
kernLeft = U;
kernRight = U;
lastChange = "2024-12-19 13:17:24 +0000";
layers = (
{
anchors = (
{
name = bottom;
pos = (328,0);
},
{
name = ogonek;
pos = (492,0);
},
{
name = top;
pos = (328,710);
},
{
name = topright;
pos = (632,710);
}
);
background = {
anchors = (
{
name = bottom;
pos = (328,0);
},
{
name = ogonek;
pos = (492,0);
},
{
name = top;
pos = (328,710);
},
{
name = topright;
pos = (632,710);
}
);
shapes = (
{
closed = 1;
nodes = (
(491,-12,o),
(583,70,o),
(583,257,cs),
(583,710,l),
(499,710,l),
(499,241,ls),
(499,113,o),
(431,57,o),
(328,57,cs),
(225,57,o),
(158,113,o),
(158,241,cs),
(158,710,l),
(72,710,l),
(72,259,ls),
(72,71,o),
(166,-12,o),
(328,-12,cs)
);
}
);
};
layerId = "E39CE873-C6CB-4040-8FBA-1D86B139B3E5";
shapes = (
{
closed = 1;
nodes = (
(491,-12,o),
(583,70,o),
(583,257,cs),
(583,710,l),
(499,710,l),
(499,241,ls),
(499,113,o),
(431,57,o),
(328,57,cs),
(225,57,o),
(158,113,o),
(158,241,cs),
(158,710,l),
(72,710,l),
(72,259,ls),
(72,71,o),
(166,-12,o),
(328,-12,cs)
);
}
);
width = 655;
}
);
note = U;
unicode = 85;
},
{
glyphname = Uacute;
kernLeft = U;
kernRight = U;
lastChange = "2024-12-19 13:17:37 +0000";
layers = (
{
background = {
anchors = (
{
name = bottom;
pos = (328,0);
},
{
name = ogonek;
pos = (492,0);
},
{
name = top;
pos = (371,913);
},
{
name = topright;
pos = (632,710);
}
);
shapes = (
{
closed = 1;
nodes = (
(491,-12,o),
(583,70,o),
(583,257,cs),
(583,710,l),
(499,710,l),
(499,241,ls),
(499,113,o),
(431,57,o),
(328,57,cs),
(225,57,o),
(158,113,o),
(158,241,cs),
(158,710,l),
(72,710,l),
(72,259,ls),
(72,71,o),
(166,-12,o),
(328,-12,cs)
);
},
{
closed = 1;
nodes = (
(449,893,l),
(386,913,l),
(293,778,l),
(349,768,l)
);
}
);
};
layerId = "E39CE873-C6CB-4040-8FBA-1D86B139B3E5";
shapes = (
{
ref = U;
},
{
pos = (293,0);
ref = acutecomb.case;
}
);
width = 655;
}
);
unicode = 218;
},
{
glyphname = Ubreve;
kernLeft = U;
kernRight = U;
lastChange = "2024-12-19 13:17:37 +0000";
layers = (
{
background = {
anchors = (
{
name = bottom;
pos = (328,0);
},
{
name = ogonek;
pos = (492,0);
},
{
name = top;
pos = (328,908);
},
{
name = topright;
pos = (632,710);
}
);
shapes = (
{
closed = 1;
nodes = (
(491,-12,o),
(583,70,o),
(583,257,cs),
(583,710,l),
(499,710,l),
(499,241,ls),
(499,113,o),
(431,57,o),
(328,57,cs),
(225,57,o),
(158,113,o),
(158,241,cs),
(158,710,l),
(72,710,l),
(72,259,ls),
(72,71,o),
(166,-12,o),
(328,-12,cs)
);
},
{
closed = 1;
nodes = (
(412,778,o),
(472,829,o),
(476,908,c),
(412,908,l),
(408,870,o),
(387,829,o),
(328,829,cs),
(269,829,o),
(248,870,o),
(244,908,c),
(180,908,l),
(184,829,o),
(244,778,o),
(328,778,cs)
);
}
);
};
layerId = "E39CE873-C6CB-4040-8FBA-1D86B139B3E5";
shapes = (
{
ref = U;
},
{
pos = (180,0);
ref = brevecomb.case;
}
);
width = 655;
}
);
unicode = 364;
},
{
glyphname = Ucircumflex;
kernLeft = U;
kernRight = U;
lastChange = "2024-12-19 13:17:37 +0000";
layers = (
{
background = {
anchors = (
{
name = bottom;
pos = (328,0);
},
{
name = ogonek;
pos = (492,0);
},
{
name = top;
pos = (328,898);
},
{
name = topright;
pos = (632,710);
}
);
shapes = (
{
closed = 1;
nodes = (
(491,-12,o),
(583,70,o),
(583,257,cs),
(583,710,l),
(499,710,l),
(499,241,ls),
(499,113,o),
(431,57,o),
(328,57,cs),
(225,57,o),
(158,113,o),
(158,241,cs),
(158,710,l),
(72,710,l),
(72,259,ls),
(72,71,o),
(166,-12,o),
(328,-12,cs)
);
},
{
closed = 1;
nodes = (
(254,768,l),
(345,875,l),
(314,875,l),
(402,768,l),
(472,768,l),
(363,898,l),
(293,898,l),
(184,768,l)
);
}
);
};
layerId = "E39CE873-C6CB-4040-8FBA-1D86B139B3E5";
shapes = (
{
ref = U;
},
{
pos = (180,0);
ref = circumflexcomb.case;
}
);
width = 655;
}
);
unicode = 219;
},
{
glyphname = Udieresis;
kernLeft = U;
kernRight = U;
lastChange = "2024-12-19 13:17:37 +0000";
layers = (
{
background = {
anchors = (
{
name = bottom;
pos = (328,0);
},
{
name = ogonek;
pos = (492,0);
},
{
name = top;
pos = (328,896);
},
{
name = topright;
pos = (632,710);
}
);
shapes = (
{
closed = 1;
nodes = (
(491,-12,o),
(583,70,o),
(583,257,cs),
(583,710,l),
(499,710,l),
(499,241,ls),
(499,113,o),
(431,57,o),
(328,57,cs),
(225,57,o),
(158,113,o),
(158,241,cs),
(158,710,l),
(72,710,l),
(72,259,ls),
(72,71,o),
(166,-12,o),
(328,-12,cs)
);
},
{
closed = 1;
nodes = (
(288,806,l),
(288,896,l),
(205,896,l),
(205,806,l)
);
},
{
closed = 1;
nodes = (
(451,806,l),
(451,896,l),
(368,896,l),
(368,806,l)
);
}
);
};
layerId = "E39CE873-C6CB-4040-8FBA-1D86B139B3E5";
shapes = (
{
ref = U;
},
{
pos = (205,0);
ref = dieresiscomb.case;
}
);
width = 655;
}
);
unicode = 220;
},
{
glyphname = Ugrave;
kernLeft = U;
kernRight = U;
lastChange = "2024-12-19 13:17:37 +0000";
layers = (
{
background = {
anchors = (
{
name = bottom;
pos = (328,0);
},
{
name = ogonek;
pos = (492,0);
},
{
name = top;
pos = (285,913);
},
{
name = topright;
pos = (632,710);
}
);
shapes = (
{
closed = 1;
nodes = (
(491,-12,o),
(583,70,o),
(583,257,cs),
(583,710,l),
(499,710,l),
(499,241,ls),
(499,113,o),
(431,57,o),
(328,57,cs),
(225,57,o),
(158,113,o),
(158,241,cs),
(158,710,l),
(72,710,l),
(72,259,ls),
(72,71,o),
(166,-12,o),
(328,-12,cs)
);
},
{
closed = 1;
nodes = (
(363,778,l),
(270,913,l),
(207,893,l),
(307,768,l)
);
}
);
};
layerId = "E39CE873-C6CB-4040-8FBA-1D86B139B3E5";
shapes = (
{
ref = U;
},
{
pos = (207,0);
ref = gravecomb.case;
}
);
width = 655;
}
);
unicode = 217;
},
{
glyphname = Uhungarumlaut;
kernLeft = U;
kernRight = U;
lastChange = "2024-12-19 13:17:37 +0000";
layers = (
{
background = {
anchors = (
{
name = bottom;
pos = (328,0);
},
{
name = ogonek;
pos = (492,0);
},
{
name = top;
pos = (371,913);
},
{
name = topright;
pos = (632,710);
}
);
shapes = (
{
closed = 1;
nodes = (
(491,-12,o),
(583,70,o),
(583,257,cs),
(583,710,l),
(499,710,l),
(499,241,ls),
(499,113,o),
(431,57,o),
(328,57,cs),
(225,57,o),
(158,113,o),
(158,241,cs),
(158,710,l),
(72,710,l),
(72,259,ls),
(72,71,o),
(166,-12,o),
(328,-12,cs)
);
},
{
closed = 1;
nodes = (
(373,893,l),
(310,913,l),
(217,778,l),
(273,768,l)
);
},
{
closed = 1;
nodes = (
(524,893,l),
(461,913,l),
(358,778,l),
(414,768,l)
);
}
);
};
layerId = "E39CE873-C6CB-4040-8FBA-1D86B139B3E5";
shapes = (
{
ref = U;
},
{
pos = (217,0);
ref = hungarumlautcomb.case;
}
);
width = 655;
}
);
unicode = 368;
},
{
glyphname = Umacron;
kernLeft = U;
kernRight = U;
lastChange = "2024-12-19 13:17:37 +0000";
layers = (
{
background = {
anchors = (
{
name = bottom;
pos = (328,0);
},
{
name = ogonek;
pos = (492,0);
},
{
name = top;
pos = (328,850);
},
{
name = topright;
pos = (632,710);
}
);
shapes = (
{
closed = 1;
nodes = (
(491,-12,o),
(583,70,o),
(583,257,cs),
(583,710,l),
(499,710,l),
(499,241,ls),
(499,113,o),
(431,57,o),
(328,57,cs),
(225,57,o),
(158,113,o),
(158,241,cs),
(158,710,l),
(72,710,l),
(72,259,ls),
(72,71,o),
(166,-12,o),
(328,-12,cs)
);
},
{
closed = 1;
nodes = (
(493,795,l),
(493,850,l),
(162,850,l),
(162,795,l)
);
}
);
};
layerId = "E39CE873-C6CB-4040-8FBA-1D86B139B3E5";
shapes = (
{
ref = U;
},
{
pos = (162,0);
ref = macroncomb.case;
}
);
width = 655;
}
);
unicode = 362;
},
{
glyphname = Uogonek;
kernLeft = U;
kernRight = U;
lastChange = "2024-12-19 13:17:24 +0000";
layers = (
{
background = {
shapes = (
{
closed = 1;
nodes = (
(522,-106,l),
(487,-109,o),
(446,-98,o),
(446,-51,cs),
(446,-14,o),
(467,10,o),
(502,42,cs),
(552,88,o),
(583,153,o),
(583,257,cs),
(583,710,l),
(499,710,l),
(499,241,ls),
(499,113,o),
(431,57,o),
(328,57,cs),
(225,57,o),
(158,113,o),
(158,241,cs),
(158,710,l),
(72,710,l),
(72,259,ls),
(72,71,o),
(166,-12,o),
(328,-12,cs),
(358,-12,o),
(385,-9,o),
(410,-4,c),
(393,-25,o),
(382,-51,o),
(382,-76,cs),
(382,-159,o),
(466,-170,o),
(522,-158,c)
);
}
);
};
layerId = "E39CE873-C6CB-4040-8FBA-1D86B139B3E5";
shapes = (
{
closed = 1;
nodes = (
(522,-106,l),
(487,-109,o),
(446,-98,o),
(446,-51,cs),
(446,-14,o),
(467,10,o),
(502,42,cs),
(552,88,o),
(583,153,o),
(583,257,cs),
(583,710,l),
(499,710,l),
(499,241,ls),
(499,113,o),
(431,57,o),
(328,57,cs),
(225,57,o),
(158,113,o),
(158,241,cs),
(158,710,l),
(72,710,l),
(72,259,ls),
(72,71,o),
(166,-12,o),
(328,-12,cs),
(358,-12,o),
(385,-9,o),
(410,-4,c),
(393,-25,o),
(382,-51,o),
(382,-76,cs),
(382,-159,o),
(466,-170,o),
(522,-158,c)
);
}
);
width = 655;
}
);
unicode = 370;
},
{
glyphname = Uring;
kernLeft = U;
kernRight = U;
lastChange = "2024-12-19 13:17:37 +0000";
layers = (
{
background = {
anchors = (
{
name = bottom;
pos = (328,0);
},
{
name = ogonek;
pos = (492,0);
},
{
name = top;
pos = (328,869);
},
{
name = topright;
pos = (632,710);
}
);
shapes = (
{
closed = 1;
nodes = (
(491,-12,o),
(583,70,o),
(583,257,cs),
(583,710,l),
(499,710,l),
(499,241,ls),
(499,113,o),
(431,57,o),
(328,57,cs),
(225,57,o),
(158,113,o),
(158,241,cs),
(158,710,l),
(72,710,l),
(72,259,ls),
(72,71,o),
(166,-12,o),
(328,-12,cs)
);
},
{
closed = 1;
nodes = (
(389,660,o),
(436,705,o),
(436,764,cs),
(436,824,o),
(389,869,o),
(328,869,cs),
(267,869,o),
(220,824,o),
(220,764,cs),
(220,705,o),
(267,660,o),
(328,660,cs)
);
},
{
closed = 1;
nodes = (
(297,710,o),
(275,733,o),
(275,764,cs),
(275,797,o),
(297,819,o),
(328,819,cs),
(359,819,o),
(381,797,o),
(381,764,cs),
(381,733,o),
(359,710,o),
(328,710,cs)
);
}
);
};
layerId = "E39CE873-C6CB-4040-8FBA-1D86B139B3E5";
shapes = (
{
ref = U;
},
{
pos = (220,0);
ref = ringcomb.case;
}
);
width = 655;
}
);
unicode = 366;
},
{
glyphname = Utilde;
kernLeft = U;
kernRight = U;
lastChange = "2024-12-19 13:17:37 +0000";
layers = (
{
background = {
anchors = (
{
name = bottom;
pos = (328,0);
},
{
name = ogonek;
pos = (492,0);
},
{
name = top;
pos = (328,894);
},
{
name = topright;
pos = (632,710);
}
);
shapes = (
{
closed = 1;
nodes = (
(491,-12,o),
(583,70,o),
(583,257,cs),
(583,710,l),
(499,710,l),
(499,241,ls),
(499,113,o),
(431,57,o),
(328,57,cs),
(225,57,o),
(158,113,o),
(158,241,cs),
(158,710,l),
(72,710,l),
(72,259,ls),
(72,71,o),
(166,-12,o),
(328,-12,cs)
);
},
{
closed = 1;
nodes = (
(420,790,o),
(460,817,o),
(469,888,c),
(416,888,l),
(414,861,o),
(404,842,o),
(386,842,cs),
(350,842,o),
(330,894,o),
(271,894,cs),
(231,894,o),
(194,863,o),
(186,796,c),
(238,796,l),
(240,827,o),
(254,842,o),
(271,842,cs),
(305,842,o),
(328,790,o),
(381,790,cs)
);
}
);
};
layerId = "E39CE873-C6CB-4040-8FBA-1D86B139B3E5";
shapes = (
{
ref = U;
},
{
pos = (186,0);
ref = tildecomb.case;
}
);
width = 655;
}
);
unicode = 360;
},
{
glyphname = V;
lastChange = "2024-12-19 13:17:24 +0000";
layers = (
{
anchors = (
{
name = bottom;
pos = (315,0);
},
{
name = top;
pos = (315,710);
}
);
background = {
anchors = (
{
name = bottom;
pos = (315,0);
},
{
name = top;
pos = (315,710);
}
);
shapes = (
{
closed = 1;
nodes = (
(364,0,l),
(616,710,l),
(526,710,l),
(314,91,l),
(317,91,l),
(104,710,l),
(14,710,l),
(265,0,l)
);
}
);
};
layerId = "E39CE873-C6CB-4040-8FBA-1D86B139B3E5";
shapes = (
{
closed = 1;
nodes = (
(364,0,l),
(616,710,l),
(526,710,l),
(314,91,l),
(317,91,l),
(104,710,l),
(14,710,l),
(265,0,l)
);
}
);
width = 629;
}
);
note = V;
unicode = 86;
},
{
glyphname = W;
kernLeft = W;
kernRight = W;
lastChange = "2024-12-19 13:17:24 +0000";
layers = (
{
anchors = (
{
name = bottom;
pos = (451,0);
},
{
name = top;
pos = (451,710);
}
);
background = {
anchors = (
{
name = bottom;
pos = (451,0);
},
{
name = top;
pos = (451,710);
}
);
shapes = (
{
closed = 1;
nodes = (
(291,0,l),
(451,588,l),
(450,588,l),
(610,0,l),
(710,0,l),
(882,710,l),
(795,710,l),
(658,109,l),
(659,109,l),
(493,710,l),
(410,710,l),
(244,109,l),
(245,109,l),
(108,710,l),
(19,710,l),
(191,0,l)
);
}
);
};
guides = (
{
pos = (419,107);
}
);
layerId = "E39CE873-C6CB-4040-8FBA-1D86B139B3E5";
shapes = (
{
closed = 1;
nodes = (
(291,0,l),
(451,588,l),
(450,588,l),
(610,0,l),
(710,0,l),
(882,710,l),
(795,710,l),
(658,109,l),
(659,109,l),
(493,710,l),
(410,710,l),
(244,109,l),
(245,109,l),
(108,710,l),
(19,710,l),
(191,0,l)
);
}
);
width = 901;
}
);
note = W;
unicode = 87;
},
{
glyphname = Wacute;
kernLeft = W;
kernRight = W;
lastChange = "2024-12-19 13:17:37 +0000";
layers = (
{
background = {
anchors = (
{
name = bottom;
pos = (451,0);
},
{
name = top;
pos = (494,913);
}
);
shapes = (
{
closed = 1;
nodes = (
(291,0,l),
(451,588,l),
(450,588,l),
(610,0,l),
(710,0,l),
(882,710,l),
(795,710,l),
(658,109,l),
(659,109,l),
(493,710,l),
(410,710,l),
(244,109,l),
(245,109,l),
(108,710,l),
(19,710,l),
(191,0,l)
);
},
{
closed = 1;
nodes = (
(572,893,l),
(509,913,l),
(416,778,l),
(472,768,l)
);
}
);
};
layerId = "E39CE873-C6CB-4040-8FBA-1D86B139B3E5";
shapes = (
{
ref = W;
},
{
pos = (416,0);
ref = acutecomb.case;
}
);
width = 901;
}
);
unicode = 7810;
},
{
glyphname = Wcircumflex;
kernLeft = W;
kernRight = W;
lastChange = "2024-12-19 13:17:37 +0000";
layers = (
{
background = {
anchors = (
{
name = bottom;
pos = (451,0);
},
{
name = top;
pos = (451,898);
}
);
shapes = (
{
closed = 1;
nodes = (
(291,0,l),
(451,588,l),
(450,588,l),
(610,0,l),
(710,0,l),
(882,710,l),
(795,710,l),
(658,109,l),
(659,109,l),
(493,710,l),
(410,710,l),
(244,109,l),
(245,109,l),
(108,710,l),
(19,710,l),
(191,0,l)
);
},
{
closed = 1;
nodes = (
(377,768,l),
(468,875,l),
(437,875,l),
(525,768,l),
(595,768,l),
(486,898,l),
(416,898,l),
(307,768,l)
);
}
);
};
layerId = "E39CE873-C6CB-4040-8FBA-1D86B139B3E5";
shapes = (
{
ref = W;
},
{
pos = (303,0);
ref = circumflexcomb.case;
}
);
width = 901;
}
);
unicode = 372;
},
{
glyphname = Wdieresis;
kernLeft = W;
kernRight = W;
lastChange = "2024-12-19 13:17:37 +0000";
layers = (
{
background = {
anchors = (
{
name = bottom;
pos = (451,0);
},
{
name = top;
pos = (451,896);
}
);
shapes = (
{
closed = 1;
nodes = (
(291,0,l),
(451,588,l),
(450,588,l),
(610,0,l),
(710,0,l),
(882,710,l),
(795,710,l),
(658,109,l),
(659,109,l),
(493,710,l),
(410,710,l),
(244,109,l),
(245,109,l),
(108,710,l),
(19,710,l),
(191,0,l)
);
},
{
closed = 1;
nodes = (
(411,806,l),
(411,896,l),
(328,896,l),
(328,806,l)
);
},
{
closed = 1;
nodes = (
(574,806,l),
(574,896,l),
(491,896,l),
(491,806,l)
);
}
);
};
layerId = "E39CE873-C6CB-4040-8FBA-1D86B139B3E5";
shapes = (
{
ref = W;
},
{
pos = (328,0);
ref = dieresiscomb.case;
}
);
width = 901;
}
);
unicode = 7812;
},
{
glyphname = Wgrave;
kernLeft = W;
kernRight = W;
lastChange = "2024-12-19 13:17:37 +0000";
layers = (
{
background = {
anchors = (
{
name = bottom;
pos = (451,0);
},
{
name = top;
pos = (408,913);
}
);
shapes = (
{
closed = 1;
nodes = (
(291,0,l),
(451,588,l),
(450,588,l),
(610,0,l),
(710,0,l),
(882,710,l),
(795,710,l),
(658,109,l),
(659,109,l),
(493,710,l),
(410,710,l),
(244,109,l),
(245,109,l),
(108,710,l),
(19,710,l),
(191,0,l)
);
},
{
closed = 1;
nodes = (
(486,778,l),
(393,913,l),
(330,893,l),
(430,768,l)
);
}
);
};
layerId = "E39CE873-C6CB-4040-8FBA-1D86B139B3E5";
shapes = (
{
ref = W;
},
{
pos = (330,0);
ref = gravecomb.case;
}
);
width = 901;
}
);
unicode = 7808;
},
{
glyphname = X;
lastChange = "2024-12-19 13:17:24 +0000";
layers = (
{
anchors = (
{
name = bottom;
pos = (299,0);
},
{
name = top;
pos = (299,710);
}
);
background = {
anchors = (
{
name = bottom;
pos = (299,0);
},
{
name = top;
pos = (299,710);
}
);
shapes = (
{
closed = 1;
nodes = (
(107,0,l),
(296,296,l),
(484,0,l),
(586,0,l),
(350,357,l),
(584,710,l),
(487,710,l),
(301,415,l),
(114,710,l),
(12,710,l),
(246,357,l),
(10,0,l)
);
}
);
};
layerId = "E39CE873-C6CB-4040-8FBA-1D86B139B3E5";
shapes = (
{
closed = 1;
nodes = (
(107,0,l),
(296,296,l),
(484,0,l),
(586,0,l),
(350,357,l),
(584,710,l),
(487,710,l),
(301,415,l),
(114,710,l),
(12,710,l),
(246,357,l),
(10,0,l)
);
}
);
width = 596;
}
);
note = X;
unicode = 88;
},
{
glyphname = Y;
kernLeft = Y;
kernRight = Y;
lastChange = "2024-12-19 13:17:24 +0000";
layers = (
{
anchors = (
{
name = bottom;
pos = (300,0);
},
{
name = top;
pos = (300,710);
},
{
name = topleft;
pos = (24,710);
}
);
background = {
anchors = (
{
name = bottom;
pos = (300,0);
},
{
name = top;
pos = (300,710);
},
{
name = topleft;
pos = (24,710);
}
);
shapes = (
{
closed = 1;
nodes = (
(343,0,l),
(343,299,l),
(585,710,l),
(491,710,l),
(287,344,l),
(315,344,l),
(111,710,l),
(14,710,l),
(256,299,l),
(256,0,l)
);
}
);
};
layerId = "E39CE873-C6CB-4040-8FBA-1D86B139B3E5";
shapes = (
{
closed = 1;
nodes = (
(343,0,l),
(343,299,l),
(585,710,l),
(491,710,l),
(287,344,l),
(315,344,l),
(111,710,l),
(14,710,l),
(256,299,l),
(256,0,l)
);
}
);
width = 599;
}
);
note = Y;
unicode = 89;
},
{
glyphname = Yacute;
kernLeft = Y;
kernRight = Y;
lastChange = "2024-12-19 13:17:37 +0000";
layers = (
{
background = {
anchors = (
{
name = bottom;
pos = (300,0);
},
{
name = top;
pos = (343,913);
},
{
name = topleft;
pos = (24,710);
}
);
shapes = (
{
closed = 1;
nodes = (
(343,0,l),
(343,299,l),
(585,710,l),
(491,710,l),
(287,344,l),
(315,344,l),
(111,710,l),
(14,710,l),
(256,299,l),
(256,0,l)
);
},
{
closed = 1;
nodes = (
(421,893,l),
(358,913,l),
(265,778,l),
(321,768,l)
);
}
);
};
layerId = "E39CE873-C6CB-4040-8FBA-1D86B139B3E5";
shapes = (
{
ref = Y;
},
{
pos = (265,0);
ref = acutecomb.case;
}
);
width = 599;
}
);
unicode = 221;
},
{
glyphname = Ycircumflex;
kernLeft = Y;
kernRight = Y;
lastChange = "2024-12-19 13:17:37 +0000";
layers = (
{
background = {
anchors = (
{
name = bottom;
pos = (300,0);
},
{
name = top;
pos = (300,898);
},
{
name = topleft;
pos = (24,710);
}
);
shapes = (
{
closed = 1;
nodes = (
(343,0,l),
(343,299,l),
(585,710,l),
(491,710,l),
(287,344,l),
(315,344,l),
(111,710,l),
(14,710,l),
(256,299,l),
(256,0,l)
);
},
{
closed = 1;
nodes = (
(226,768,l),
(317,875,l),
(286,875,l),
(374,768,l),
(444,768,l),
(335,898,l),
(265,898,l),
(156,768,l)
);
}
);
};
layerId = "E39CE873-C6CB-4040-8FBA-1D86B139B3E5";
shapes = (
{
ref = Y;
},
{
pos = (152,0);
ref = circumflexcomb.case;
}
);
width = 599;
}
);
unicode = 374;
},
{
glyphname = Ydieresis;
kernLeft = Y;
kernRight = Y;
lastChange = "2024-12-19 13:17:37 +0000";
layers = (
{
background = {
anchors = (
{
name = bottom;
pos = (300,0);
},
{
name = top;
pos = (300,896);
},
{
name = topleft;
pos = (24,710);
}
);
shapes = (
{
closed = 1;
nodes = (
(343,0,l),
(343,299,l),
(585,710,l),
(491,710,l),
(287,344,l),
(315,344,l),
(111,710,l),
(14,710,l),
(256,299,l),
(256,0,l)
);
},
{
closed = 1;
nodes = (
(260,806,l),
(260,896,l),
(177,896,l),
(177,806,l)
);
},
{
closed = 1;
nodes = (
(423,806,l),
(423,896,l),
(340,896,l),
(340,806,l)
);
}
);
};
layerId = "E39CE873-C6CB-4040-8FBA-1D86B139B3E5";
shapes = (
{
ref = Y;
},
{
pos = (177,0);
ref = dieresiscomb.case;
}
);
width = 599;
}
);
unicode = 376;
},
{
glyphname = Ygrave;
kernLeft = Y;
kernRight = Y;
lastChange = "2024-12-19 13:17:37 +0000";
layers = (
{
background = {
anchors = (
{
name = bottom;
pos = (300,0);
},
{
name = top;
pos = (257,913);
},
{
name = topleft;
pos = (24,710);
}
);
shapes = (
{
closed = 1;
nodes = (
(343,0,l),
(343,299,l),
(585,710,l),
(491,710,l),
(287,344,l),
(315,344,l),
(111,710,l),
(14,710,l),
(256,299,l),
(256,0,l)
);
},
{
closed = 1;
nodes = (
(335,778,l),
(242,913,l),
(179,893,l),
(279,768,l)
);
}
);
};
layerId = "E39CE873-C6CB-4040-8FBA-1D86B139B3E5";
shapes = (
{
ref = Y;
},
{
pos = (179,0);
ref = gravecomb.case;
}
);
width = 599;
}
);
unicode = 7922;
},
{
glyphname = Z;
kernLeft = Z;
kernRight = Z;
lastChange = "2024-12-19 13:17:24 +0000";
layers = (
{
anchors = (
{
name = bottom;
pos = (283,0);
},
{
name = center;
pos = (283,355);
},
{
name = top;
pos = (283,710);
}
);
background = {
anchors = (
{
name = bottom;
pos = (283,0);
},
{
name = center;
pos = (283,355);
},
{
name = top;
pos = (283,710);
}
);
shapes = (
{
closed = 1;
nodes = (
(533,0,l),
(533,70,l),
(129,70,l),
(526,648,l),
(526,710,l),
(37,710,l),
(37,640,l),
(427,640,l),
(31,62,l),
(31,0,l)
);
}
);
};
layerId = "E39CE873-C6CB-4040-8FBA-1D86B139B3E5";
shapes = (
{
closed = 1;
nodes = (
(533,0,l),
(533,70,l),
(129,70,l),
(526,648,l),
(526,710,l),
(37,710,l),
(37,640,l),
(427,640,l),
(31,62,l),
(31,0,l)
);
}
);
width = 563;
}
);
note = Z;
unicode = 90;
},
{
glyphname = Zacute;
kernLeft = Z;
kernRight = Z;
lastChange = "2024-12-19 13:17:37 +0000";
layers = (
{
background = {
anchors = (
{
name = bottom;
pos = (283,0);
},
{
name = center;
pos = (283,355);
},
{
name = top;
pos = (326,913);
}
);
shapes = (
{
closed = 1;
nodes = (
(533,0,l),
(533,70,l),
(129,70,l),
(526,648,l),
(526,710,l),
(37,710,l),
(37,640,l),
(427,640,l),
(31,62,l),
(31,0,l)
);
},
{
closed = 1;
nodes = (
(404,893,l),
(341,913,l),
(248,778,l),
(304,768,l)
);
}
);
};
layerId = "E39CE873-C6CB-4040-8FBA-1D86B139B3E5";
shapes = (
{
ref = Z;
},
{
pos = (248,0);
ref = acutecomb.case;
}
);
width = 563;
}
);
unicode = 377;
},
{
glyphname = Zcaron;
kernLeft = Z;
kernRight = Z;
lastChange = "2024-12-19 13:17:37 +0000";
layers = (
{
background = {
anchors = (
{
name = bottom;
pos = (283,0);
},
{
name = center;
pos = (283,355);
},
{
name = top;
pos = (283,908);
}
);
shapes = (
{
closed = 1;
nodes = (
(533,0,l),
(533,70,l),
(129,70,l),
(526,648,l),
(526,710,l),
(37,710,l),
(37,640,l),
(427,640,l),
(31,62,l),
(31,0,l)
);
},
{
closed = 1;
nodes = (
(318,778,l),
(427,908,l),
(357,908,l),
(269,801,l),
(300,801,l),
(209,908,l),
(139,908,l),
(248,778,l)
);
}
);
};
layerId = "E39CE873-C6CB-4040-8FBA-1D86B139B3E5";
shapes = (
{
ref = Z;
},
{
pos = (135,0);
ref = caroncomb.case;
}
);
width = 563;
}
);
unicode = 381;
},
{
glyphname = Zdotaccent;
kernLeft = Z;
kernRight = Z;
lastChange = "2024-12-19 13:17:37 +0000";
layers = (
{
background = {
anchors = (
{
name = bottom;
pos = (283,0);
},
{
name = center;
pos = (283,355);
},
{
name = top;
pos = (283,896);
}
);
shapes = (
{
closed = 1;
nodes = (
(533,0,l),
(533,70,l),
(129,70,l),
(526,648,l),
(526,710,l),
(37,710,l),
(37,640,l),
(427,640,l),
(31,62,l),
(31,0,l)
);
},
{
closed = 1;
nodes = (
(324,806,l),
(324,896,l),
(241,896,l),
(241,806,l)
);
}
);
};
layerId = "E39CE873-C6CB-4040-8FBA-1D86B139B3E5";
shapes = (
{
ref = Z;
},
{
pos = (241,0);
ref = dotaccentcomb.case;
}
);
width = 563;
}
);
unicode = 379;
},
{
glyphname = a;
kernLeft = a;
kernRight = a;
lastChange = "2024-12-19 13:17:24 +0000";
layers = (
{
anchors = (
{
name = bottom;
pos = (245,0);
},
{
name = ogonek;
pos = (432,0);
},
{
name = top;
pos = (240,504);
}
);
background = {
anchors = (
{
name = bottom;
pos = (245,0);
},
{
name = ogonek;
pos = (432,0);
},
{
name = top;
pos = (240,504);
}
);
shapes = (
{
closed = 1;
nodes = (
(439,0,l),
(432,74,o),
(431,101,o),
(431,134,cs),
(431,324,ls),
(431,449,o),
(360,516,o),
(246,516,cs),
(142,516,o),
(69,457,o),
(52,371,c),
(124,357,l),
(138,420,o),
(181,450,o),
(240,450,cs),
(299,450,o),
(348,421,o),
(348,336,cs),
(348,79,l),
(350,79,l),
(362,0,l)
);
},
{
closed = 1;
nodes = (
(297,-9,o),
(366,45,o),
(388,152,c),
(348,159,l),
(348,92,o),
(283,53,o),
(214,53,cs),
(156,53,o),
(122,76,o),
(122,135,cs),
(122,188,o),
(162,212,o),
(225,229,cs),
(367,267,l),
(367,326,l),
(202,285,ls),
(97,259,o),
(39,213,o),
(39,131,cs),
(39,38,o),
(106,-9,o),
(197,-9,cs)
);
}
);
};
layerId = "E39CE873-C6CB-4040-8FBA-1D86B139B3E5";
shapes = (
{
closed = 1;
nodes = (
(439,0,l),
(432,74,o),
(431,101,o),
(431,134,cs),
(431,324,ls),
(431,449,o),
(360,516,o),
(246,516,cs),
(142,516,o),
(69,457,o),
(52,371,c),
(124,357,l),
(138,420,o),
(181,450,o),
(240,450,cs),
(299,450,o),
(348,421,o),
(348,336,cs),
(348,79,l),
(350,79,l),
(362,0,l)
);
},
{
closed = 1;
nodes = (
(297,-9,o),
(366,45,o),
(388,152,c),
(348,159,l),
(348,92,o),
(283,53,o),
(214,53,cs),
(156,53,o),
(122,76,o),
(122,135,cs),
(122,188,o),
(162,212,o),
(225,229,cs),
(367,267,l),
(367,326,l),
(202,285,ls),
(97,259,o),
(39,213,o),
(39,131,cs),
(39,38,o),
(106,-9,o),
(197,-9,cs)
);
}
);
width = 495;
}
);
note = a;
unicode = 97;
},
{
glyphname = aacute;
kernLeft = a;
kernRight = a;
lastChange = "2024-12-19 13:17:37 +0000";
layers = (
{
anchors = (
{
name = bottom;
pos = (245,0);
},
{
name = ogonek;
pos = (443,10);
},
{
name = top;
pos = (240,504);
}
);
background = {
anchors = (
{
name = bottom;
pos = (245,0);
},
{
name = ogonek;
pos = (443,10);
},
{
name = top;
pos = (240,504);
}
);
shapes = (
{
closed = 1;
nodes = (
(439,0,l),
(432,74,o),
(431,101,o),
(431,134,cs),
(431,324,ls),
(431,449,o),
(360,516,o),
(246,516,cs),
(142,516,o),
(69,457,o),
(52,371,c),
(124,357,l),
(138,420,o),
(181,450,o),
(240,450,cs),
(299,450,o),
(348,421,o),
(348,336,cs),
(348,79,l),
(350,79,l),
(362,0,l)
);
},
{
closed = 1;
nodes = (
(297,-9,o),
(366,45,o),
(388,152,c),
(348,159,l),
(348,92,o),
(283,53,o),
(214,53,cs),
(156,53,o),
(122,76,o),
(122,135,cs),
(122,188,o),
(162,212,o),
(225,229,cs),
(367,267,l),
(367,326,l),
(202,285,ls),
(97,259,o),
(39,213,o),
(39,131,cs),
(39,38,o),
(106,-9,o),
(197,-9,cs)
);
},
{
closed = 1;
nodes = (
(376,722,l),
(313,742,l),
(210,582,l),
(266,572,l)
);
}
);
};
layerId = "E39CE873-C6CB-4040-8FBA-1D86B139B3E5";
shapes = (
{
ref = a;
},
{
pos = (210,0);
ref = acutecomb;
}
);
width = 495;
}
);
unicode = 225;
},
{
glyphname = abreve;
kernLeft = a;
kernRight = a;
lastChange = "2024-12-19 13:17:37 +0000";
layers = (
{
anchors = (
{
name = bottom;
pos = (245,0);
},
{
name = ogonek;
pos = (443,10);
},
{
name = top;
pos = (240,504);
}
);
background = {
anchors = (
{
name = bottom;
pos = (245,0);
},
{
name = ogonek;
pos = (443,10);
},
{
name = top;
pos = (240,504);
}
);
shapes = (
{
closed = 1;
nodes = (
(439,0,l),
(432,74,o),
(431,101,o),
(431,134,cs),
(431,324,ls),
(431,449,o),
(360,516,o),
(246,516,cs),
(142,516,o),
(69,457,o),
(52,371,c),
(124,357,l),
(138,420,o),
(181,450,o),
(240,450,cs),
(299,450,o),
(348,421,o),
(348,336,cs),
(348,79,l),
(350,79,l),
(362,0,l)
);
},
{
closed = 1;
nodes = (
(297,-9,o),
(366,45,o),
(388,152,c),
(348,159,l),
(348,92,o),
(283,53,o),
(214,53,cs),
(156,53,o),
(122,76,o),
(122,135,cs),
(122,188,o),
(162,212,o),
(225,229,cs),
(367,267,l),
(367,326,l),
(202,285,ls),
(97,259,o),
(39,213,o),
(39,131,cs),
(39,38,o),
(106,-9,o),
(197,-9,cs)
);
},
{
closed = 1;
nodes = (
(321,582,o),
(374,633,o),
(378,722,c),
(320,722,l),
(316,670,o),
(292,635,o),
(240,635,cs),
(188,635,o),
(164,670,o),
(160,722,c),
(102,722,l),
(106,633,o),
(159,582,o),
(240,582,cs)
);
}
);
};
layerId = "E39CE873-C6CB-4040-8FBA-1D86B139B3E5";
shapes = (
{
ref = a;
},
{
pos = (102,0);
ref = brevecomb;
}
);
width = 495;
}
);
unicode = 259;
},
{
glyphname = acircumflex;
kernLeft = a;
kernRight = a;
lastChange = "2024-12-19 13:17:37 +0000";
layers = (
{
anchors = (
{
name = bottom;
pos = (245,0);
},
{
name = ogonek;
pos = (443,10);
},
{
name = top;
pos = (240,504);
}
);
background = {
anchors = (
{
name = bottom;
pos = (245,0);
},
{
name = ogonek;
pos = (443,10);
},
{
name = top;
pos = (240,504);
}
);
shapes = (
{
closed = 1;
nodes = (
(439,0,l),
(432,74,o),
(431,101,o),
(431,134,cs),
(431,324,ls),
(431,449,o),
(360,516,o),
(246,516,cs),
(142,516,o),
(69,457,o),
(52,371,c),
(124,357,l),
(138,420,o),
(181,450,o),
(240,450,cs),
(299,450,o),
(348,421,o),
(348,336,cs),
(348,79,l),
(350,79,l),
(362,0,l)
);
},
{
closed = 1;
nodes = (
(297,-9,o),
(366,45,o),
(388,152,c),
(348,159,l),
(348,92,o),
(283,53,o),
(214,53,cs),
(156,53,o),
(122,76,o),
(122,135,cs),
(122,188,o),
(162,212,o),
(225,229,cs),
(367,267,l),
(367,326,l),
(202,285,ls),
(97,259,o),
(39,213,o),
(39,131,cs),
(39,38,o),
(106,-9,o),
(197,-9,cs)
);
},
{
closed = 1;
nodes = (
(172,582,l),
(257,689,l),
(225,689,l),
(308,582,l),
(379,582,l),
(275,712,l),
(205,712,l),
(101,582,l)
);
}
);
};
layerId = "E39CE873-C6CB-4040-8FBA-1D86B139B3E5";
shapes = (
{
ref = a;
},
{
pos = (101,0);
ref = circumflexcomb;
}
);
width = 495;
}
);
unicode = 226;
},
{
glyphname = adieresis;
kernLeft = a;
kernRight = a;
lastChange = "2024-12-19 13:17:37 +0000";
layers = (
{
anchors = (
{
name = bottom;
pos = (245,0);
},
{
name = ogonek;
pos = (443,10);
},
{
name = top;
pos = (240,504);
}
);
background = {
anchors = (
{
name = bottom;
pos = (245,0);
},
{
name = ogonek;
pos = (443,10);
},
{
name = top;
pos = (240,504);
}
);
shapes = (
{
closed = 1;
nodes = (
(439,0,l),
(432,74,o),
(431,101,o),
(431,134,cs),
(431,324,ls),
(431,449,o),
(360,516,o),
(246,516,cs),
(142,516,o),
(69,457,o),
(52,371,c),
(124,357,l),
(138,420,o),
(181,450,o),
(240,450,cs),
(299,450,o),
(348,421,o),
(348,336,cs),
(348,79,l),
(350,79,l),
(362,0,l)
);
},
{
closed = 1;
nodes = (
(297,-9,o),
(366,45,o),
(388,152,c),
(348,159,l),
(348,92,o),
(283,53,o),
(214,53,cs),
(156,53,o),
(122,76,o),
(122,135,cs),
(122,188,o),
(162,212,o),
(225,229,cs),
(367,267,l),
(367,326,l),
(202,285,ls),
(97,259,o),
(39,213,o),
(39,131,cs),
(39,38,o),
(106,-9,o),
(197,-9,cs)
);
},
{
closed = 1;
nodes = (
(200,610,l),
(200,700,l),
(117,700,l),
(117,610,l)
);
},
{
closed = 1;
nodes = (
(363,610,l),
(363,700,l),
(280,700,l),
(280,610,l)
);
}
);
};
layerId = "E39CE873-C6CB-4040-8FBA-1D86B139B3E5";
shapes = (
{
ref = a;
},
{
pos = (117,0);
ref = dieresiscomb;
}
);
width = 495;
}
);
unicode = 228;
},
{
glyphname = agrave;
kernLeft = a;
kernRight = a;
lastChange = "2024-12-19 13:17:51 +0000";
layers = (
{
anchors = (
{
name = bottom;
pos = (245,0);
},
{
name = ogonek;
pos = (443,10);
},
{
name = top;
pos = (240,504);
}
);
background = {
anchors = (
{
name = bottom;
pos = (245,0);
},
{
name = ogonek;
pos = (443,10);
},
{
name = top;
pos = (240,504);
}
);
shapes = (
{
closed = 1;
nodes = (
(439,0,l),
(432,74,o),
(431,101,o),
(431,134,cs),
(431,324,ls),
(431,449,o),
(360,516,o),
(246,516,cs),
(142,516,o),
(69,457,o),
(52,371,c),
(124,357,l),
(138,420,o),
(181,450,o),
(240,450,cs),
(299,450,o),
(348,421,o),
(348,336,cs),
(348,79,l),
(350,79,l),
(362,0,l)
);
},
{
closed = 1;
nodes = (
(297,-9,o),
(366,45,o),
(388,152,c),
(348,159,l),
(348,92,o),
(283,53,o),
(214,53,cs),
(156,53,o),
(122,76,o),
(122,135,cs),
(122,188,o),
(162,212,o),
(225,229,cs),
(367,267,l),
(367,326,l),
(202,285,ls),
(97,259,o),
(39,213,o),
(39,131,cs),
(39,38,o),
(106,-9,o),
(197,-9,cs)
);
},
{
closed = 1;
nodes = (
(260,582,l),
(157,742,l),
(94,722,l),
(204,572,l)
);
}
);
};
layerId = "E39CE873-C6CB-4040-8FBA-1D86B139B3E5";
shapes = (
{
ref = a;
},
{
pos = (104,0);
ref = gravecomb;
}
);
width = 495;
}
);
unicode = 224;
},
{
glyphname = amacron;
kernLeft = a;
kernRight = a;
lastChange = "2024-12-19 13:17:37 +0000";
layers = (
{
background = {
anchors = (
{
name = bottom;
pos = (245,0);
},
{
name = ogonek;
pos = (432,0);
},
{
name = top;
pos = (240,654);
}
);
shapes = (
{
closed = 1;
nodes = (
(439,0,l),
(432,74,o),
(431,101,o),
(431,134,cs),
(431,324,ls),
(431,449,o),
(360,516,o),
(246,516,cs),
(142,516,o),
(69,457,o),
(52,371,c),
(124,357,l),
(138,420,o),
(181,450,o),
(240,450,cs),
(299,450,o),
(348,421,o),
(348,336,cs),
(348,79,l),
(350,79,l),
(362,0,l)
);
},
{
closed = 1;
nodes = (
(297,-9,o),
(366,45,o),
(388,152,c),
(348,159,l),
(348,92,o),
(283,53,o),
(214,53,cs),
(156,53,o),
(122,76,o),
(122,135,cs),
(122,188,o),
(162,212,o),
(225,229,cs),
(367,267,l),
(367,326,l),
(202,285,ls),
(97,259,o),
(39,213,o),
(39,131,cs),
(39,38,o),
(106,-9,o),
(197,-9,cs)
);
},
{
closed = 1;
nodes = (
(392,599,l),
(392,654,l),
(87,654,l),
(87,599,l)
);
}
);
};
layerId = "E39CE873-C6CB-4040-8FBA-1D86B139B3E5";
shapes = (
{
ref = a;
},
{
pos = (87,0);
ref = macroncomb;
}
);
width = 495;
}
);
unicode = 257;
},
{
glyphname = aogonek;
kernLeft = a;
kernRight = a;
lastChange = "2024-12-19 13:17:24 +0000";
layers = (
{
background = {
shapes = (
{
closed = 1;
nodes = (
(450,-106,l),
(418,-109,o),
(387,-101,o),
(387,-66,cs),
(387,-40,o),
(407,-19,o),
(429,0,c),
(439,0,l),
(432,74,o),
(431,101,o),
(431,134,cs),
(431,324,ls),
(431,449,o),
(360,516,o),
(246,516,cs),
(142,516,o),
(69,457,o),
(52,371,c),
(124,357,l),
(138,420,o),
(181,450,o),
(240,450,cs),
(299,450,o),
(348,421,o),
(348,336,cs),
(348,79,l),
(350,79,l),
(362,0,l),
(405,0,l),
(392,24,l),
(356,-1,o),
(319,-39,o),
(319,-84,cs),
(319,-156,o),
(398,-171,o),
(450,-158,c)
);
},
{
closed = 1;
nodes = (
(297,-9,o),
(366,45,o),
(388,152,c),
(348,159,l),
(348,92,o),
(283,53,o),
(214,53,cs),
(156,53,o),
(122,76,o),
(122,135,cs),
(122,188,o),
(162,212,o),
(225,229,cs),
(367,267,l),
(367,326,l),
(202,285,ls),
(97,259,o),
(39,213,o),
(39,131,cs),
(39,38,o),
(106,-9,o),
(197,-9,cs)
);
}
);
};
layerId = "E39CE873-C6CB-4040-8FBA-1D86B139B3E5";
shapes = (
{
closed = 1;
nodes = (
(450,-106,l),
(418,-109,o),
(387,-101,o),
(387,-66,cs),
(387,-40,o),
(407,-19,o),
(429,0,c),
(439,0,l),
(432,74,o),
(431,101,o),
(431,134,cs),
(431,324,ls),
(431,449,o),
(360,516,o),
(246,516,cs),
(142,516,o),
(69,457,o),
(52,371,c),
(124,357,l),
(138,420,o),
(181,450,o),
(240,450,cs),
(299,450,o),
(348,421,o),
(348,336,cs),
(348,79,l),
(350,79,l),
(362,0,l),
(405,0,l),
(392,24,l),
(356,-1,o),
(319,-39,o),
(319,-84,cs),
(319,-156,o),
(398,-171,o),
(450,-158,c)
);
},
{
closed = 1;
nodes = (
(297,-9,o),
(366,45,o),
(388,152,c),
(348,159,l),
(348,92,o),
(283,53,o),
(214,53,cs),
(156,53,o),
(122,76,o),
(122,135,cs),
(122,188,o),
(162,212,o),
(225,229,cs),
(367,267,l),
(367,326,l),
(202,285,ls),
(97,259,o),
(39,213,o),
(39,131,cs),
(39,38,o),
(106,-9,o),
(197,-9,cs)
);
}
);
width = 495;
}
);
unicode = 261;
},
{
glyphname = aring;
kernLeft = a;
kernRight = a;
lastChange = "2024-12-19 13:17:37 +0000";
layers = (
{
anchors = (
{
name = bottom;
pos = (245,0);
},
{
name = ogonek;
pos = (443,10);
},
{
name = top;
pos = (240,504);
}
);
background = {
anchors = (
{
name = bottom;
pos = (245,0);
},
{
name = ogonek;
pos = (443,10);
},
{
name = top;
pos = (240,504);
}
);
shapes = (
{
closed = 1;
nodes = (
(439,0,l),
(432,74,o),
(431,101,o),
(431,134,cs),
(431,324,ls),
(431,449,o),
(360,516,o),
(246,516,cs),
(142,516,o),
(69,457,o),
(52,371,c),
(124,357,l),
(138,420,o),
(181,450,o),
(240,450,cs),
(299,450,o),
(348,421,o),
(348,336,cs),
(348,79,l),
(350,79,l),
(362,0,l)
);
},
{
closed = 1;
nodes = (
(297,-9,o),
(366,45,o),
(388,152,c),
(348,159,l),
(348,92,o),
(283,53,o),
(214,53,cs),
(156,53,o),
(122,76,o),
(122,135,cs),
(122,188,o),
(162,212,o),
(225,229,cs),
(367,267,l),
(367,326,l),
(202,285,ls),
(97,259,o),
(39,213,o),
(39,131,cs),
(39,38,o),
(106,-9,o),
(197,-9,cs)
);
},
{
closed = 1;
nodes = (
(291,574,o),
(330,612,o),
(330,661,cs),
(330,711,o),
(291,748,o),
(240,748,cs),
(189,748,o),
(150,711,o),
(150,661,cs),
(150,612,o),
(189,574,o),
(240,574,cs)
);
},
{
closed = 1;
nodes = (
(214,616,o),
(196,635,o),
(196,661,cs),
(196,688,o),
(214,707,o),
(240,707,cs),
(266,707,o),
(284,688,o),
(284,661,cs),
(284,635,o),
(266,616,o),
(240,616,cs)
);
}
);
};
layerId = "E39CE873-C6CB-4040-8FBA-1D86B139B3E5";
shapes = (
{
ref = a;
},
{
pos = (150,0);
ref = ringcomb;
}
);
width = 495;
}
);
unicode = 229;
},
{
glyphname = atilde;
kernLeft = a;
kernRight = a;
lastChange = "2024-12-19 13:17:37 +0000";
layers = (
{
anchors = (
{
name = bottom;
pos = (245,0);
},
{
name = ogonek;
pos = (443,10);
},
{
name = top;
pos = (240,504);
}
);
background = {
anchors = (
{
name = bottom;
pos = (245,0);
},
{
name = ogonek;
pos = (443,10);
},
{
name = top;
pos = (240,504);
}
);
shapes = (
{
closed = 1;
nodes = (
(439,0,l),
(432,74,o),
(431,101,o),
(431,134,cs),
(431,324,ls),
(431,449,o),
(360,516,o),
(246,516,cs),
(142,516,o),
(69,457,o),
(52,371,c),
(124,357,l),
(138,420,o),
(181,450,o),
(240,450,cs),
(299,450,o),
(348,421,o),
(348,336,cs),
(348,79,l),
(350,79,l),
(362,0,l)
);
},
{
closed = 1;
nodes = (
(297,-9,o),
(366,45,o),
(388,152,c),
(348,159,l),
(348,92,o),
(283,53,o),
(214,53,cs),
(156,53,o),
(122,76,o),
(122,135,cs),
(122,188,o),
(162,212,o),
(225,229,cs),
(367,267,l),
(367,326,l),
(202,285,ls),
(97,259,o),
(39,213,o),
(39,131,cs),
(39,38,o),
(106,-9,o),
(197,-9,cs)
);
},
{
closed = 1;
nodes = (
(328,594,o),
(368,621,o),
(377,692,c),
(324,692,l),
(322,665,o),
(312,646,o),
(294,646,cs),
(258,646,o),
(238,698,o),
(179,698,cs),
(139,698,o),
(102,667,o),
(94,600,c),
(146,600,l),
(148,631,o),
(162,646,o),
(179,646,cs),
(213,646,o),
(236,594,o),
(289,594,cs)
);
}
);
};
layerId = "E39CE873-C6CB-4040-8FBA-1D86B139B3E5";
shapes = (
{
ref = a;
},
{
pos = (94,0);
ref = tildecomb;
}
);
width = 495;
}
);
unicode = 227;
},
{
glyphname = ae;
kernLeft = a;
kernRight = e;
lastChange = "2024-12-19 13:17:24 +0000";
layers = (
{
anchors = (
{
name = bottom;
pos = (411,0);
},
{
name = top;
pos = (408,504);
}
);
background = {
anchors = (
{
name = bottom;
pos = (411,0);
},
{
name = top;
pos = (408,504);
}
);
shapes = (
{
closed = 1;
nodes = (
(672,-12,o),
(754,48,o),
(770,148,c),
(702,164,l),
(683,88,o),
(638,56,o),
(574,56,cs),
(482,56,o),
(429,126,o),
(429,256,cs),
(429,281,ls),
(429,392,o),
(492,448,o),
(572,448,cs),
(650,448,o),
(694,386,o),
(694,308,cs),
(694,281,l),
(724,308,l),
(419,308,l),
(418,244,l),
(767,244,l),
(782,384,o),
(721,516,o),
(570,516,cs),
(495,516,o),
(428,480,o),
(391,408,c),
(409,408,l),
(380,478,o),
(327,516,o),
(246,516,cs),
(142,516,o),
(69,457,o),
(52,371,c),
(124,357,l),
(138,420,o),
(181,450,o),
(240,450,cs),
(299,450,o),
(348,421,o),
(348,336,cs),
(348,89,l),
(390,99,l),
(430,19,o),
(498,-12,o),
(574,-12,cs)
);
},
{
closed = 1;
nodes = (
(325,-12,o),
(401,52,o),
(412,159,c),
(348,169,l),
(348,89,o),
(283,50,o),
(214,50,cs),
(156,50,o),
(122,75,o),
(122,135,cs),
(122,188,o),
(162,212,o),
(225,229,cs),
(367,267,l),
(367,326,l),
(202,285,ls),
(97,259,o),
(39,213,o),
(39,131,cs),
(39,35,o),
(110,-12,o),
(207,-12,cs)
);
}
);
};
layerId = "E39CE873-C6CB-4040-8FBA-1D86B139B3E5";
shapes = (
{
closed = 1;
nodes = (
(672,-12,o),
(754,48,o),
(770,148,c),
(702,164,l),
(683,88,o),
(638,56,o),
(574,56,cs),
(482,56,o),
(429,126,o),
(429,256,cs),
(429,281,ls),
(429,392,o),
(492,448,o),
(572,448,cs),
(650,448,o),
(694,386,o),
(694,308,cs),
(694,281,l),
(724,308,l),
(419,308,l),
(418,244,l),
(767,244,l),
(782,384,o),
(721,516,o),
(570,516,cs),
(495,516,o),
(428,480,o),
(391,408,c),
(409,408,l),
(380,478,o),
(327,516,o),
(246,516,cs),
(142,516,o),
(69,457,o),
(52,371,c),
(124,357,l),
(138,420,o),
(181,450,o),
(240,450,cs),
(299,450,o),
(348,421,o),
(348,336,cs),
(348,89,l),
(390,99,l),
(430,19,o),
(498,-12,o),
(574,-12,cs)
);
},
{
closed = 1;
nodes = (
(325,-12,o),
(401,52,o),
(412,159,c),
(348,169,l),
(348,89,o),
(283,50,o),
(214,50,cs),
(156,50,o),
(122,75,o),
(122,135,cs),
(122,188,o),
(162,212,o),
(225,229,cs),
(367,267,l),
(367,326,l),
(202,285,ls),
(97,259,o),
(39,213,o),
(39,131,cs),
(39,35,o),
(110,-12,o),
(207,-12,cs)
);
}
);
width = 812;
}
);
unicode = 230;
},
{
glyphname = aeacute;
kernLeft = a;
kernRight = e;
lastChange = "2024-12-19 13:17:37 +0000";
layers = (
{
background = {
anchors = (
{
name = bottom;
pos = (411,0);
},
{
name = top;
pos = (476,719);
}
);
shapes = (
{
closed = 1;
nodes = (
(672,-12,o),
(754,48,o),
(770,148,c),
(702,164,l),
(683,88,o),
(638,56,o),
(574,56,cs),
(482,56,o),
(429,126,o),
(429,256,cs),
(429,281,ls),
(429,392,o),
(492,448,o),
(572,448,cs),
(650,448,o),
(694,386,o),
(694,308,cs),
(694,281,l),
(724,308,l),
(419,308,l),
(418,244,l),
(767,244,l),
(782,384,o),
(721,516,o),
(570,516,cs),
(495,516,o),
(428,480,o),
(391,408,c),
(409,408,l),
(380,478,o),
(327,516,o),
(246,516,cs),
(142,516,o),
(69,457,o),
(52,371,c),
(124,357,l),
(138,420,o),
(181,450,o),
(240,450,cs),
(299,450,o),
(348,421,o),
(348,336,cs),
(348,89,l),
(390,99,l),
(430,19,o),
(498,-12,o),
(574,-12,cs)
);
},
{
closed = 1;
nodes = (
(325,-12,o),
(401,52,o),
(412,159,c),
(348,169,l),
(348,89,o),
(283,50,o),
(214,50,cs),
(156,50,o),
(122,75,o),
(122,135,cs),
(122,188,o),
(162,212,o),
(225,229,cs),
(367,267,l),
(367,326,l),
(202,285,ls),
(97,259,o),
(39,213,o),
(39,131,cs),
(39,35,o),
(110,-12,o),
(207,-12,cs)
);
},
{
closed = 1;
nodes = (
(544,722,l),
(481,742,l),
(378,582,l),
(434,572,l)
);
}
);
};
layerId = "E39CE873-C6CB-4040-8FBA-1D86B139B3E5";
shapes = (
{
ref = ae;
},
{
pos = (378,0);
ref = acutecomb;
}
);
width = 812;
}
);
unicode = 509;
},
{
glyphname = b;
kernLeft = h;
kernRight = b;
lastChange = "2024-12-19 13:17:24 +0000";
layers = (
{
anchors = (
{
name = bottom;
pos = (271,0);
},
{
name = center;
pos = (271,252);
},
{
name = top;
pos = (271,504);
}
);
background = {
anchors = (
{
name = bottom;
pos = (271,0);
},
{
name = center;
pos = (271,252);
},
{
name = top;
pos = (271,504);
}
);
shapes = (
{
closed = 1;
nodes = (
(406,-12,o),
(508,73,o),
(508,253,cs),
(508,431,o),
(413,516,o),
(301,516,cs),
(216,516,o),
(153,465,o),
(124,382,c),
(151,272,l),
(151,402,o),
(220,450,o),
(290,450,cs),
(370,450,o),
(425,392,o),
(425,266,cs),
(425,238,ls),
(425,112,o),
(370,54,o),
(291,54,cs),
(221,54,o),
(151,102,o),
(151,232,c),
(124,118,l),
(153,36,o),
(207,-12,o),
(301,-12,cs)
);
},
{
closed = 1;
nodes = (
(138,0,l),
(151,87,l),
(151,710,l),
(68,710,l),
(68,0,l)
);
}
);
};
layerId = "E39CE873-C6CB-4040-8FBA-1D86B139B3E5";
shapes = (
{
closed = 1;
nodes = (
(406,-12,o),
(508,73,o),
(508,253,cs),
(508,431,o),
(413,516,o),
(301,516,cs),
(216,516,o),
(153,465,o),
(124,382,c),
(151,272,l),
(151,402,o),
(220,450,o),
(290,450,cs),
(370,450,o),
(425,392,o),
(425,266,cs),
(425,238,ls),
(425,112,o),
(370,54,o),
(291,54,cs),
(221,54,o),
(151,102,o),
(151,232,c),
(124,118,l),
(153,36,o),
(207,-12,o),
(301,-12,cs)
);
},
{
closed = 1;
nodes = (
(138,0,l),
(151,87,l),
(151,710,l),
(68,710,l),
(68,0,l)
);
}
);
width = 549;
}
);
note = b;
unicode = 98;
},
{
glyphname = c;
kernLeft = o;
kernRight = c;
lastChange = "2024-12-19 13:17:24 +0000";
layers = (
{
anchors = (
{
name = bottom;
pos = (276,0);
},
{
name = top;
pos = (254,504);
}
);
background = {
anchors = (
{
name = bottom;
pos = (276,0);
},
{
name = top;
pos = (254,504);
}
);
shapes = (
{
closed = 1;
nodes = (
(371,-12,o),
(461,48,o),
(478,160,c),
(406,172,l),
(392,95,o),
(340,56,o),
(272,56,cs),
(179,56,o),
(122,130,o),
(122,239,cs),
(122,266,ls),
(122,374,o),
(177,448,o),
(271,448,cs),
(329,448,o),
(384,417,o),
(403,333,c),
(475,345,l),
(456,457,o),
(367,516,o),
(270,516,cs),
(134,516,o),
(39,406,o),
(39,252,cs),
(39,97,o),
(134,-12,o),
(272,-12,cs)
);
}
);
};
layerId = "E39CE873-C6CB-4040-8FBA-1D86B139B3E5";
shapes = (
{
closed = 1;
nodes = (
(371,-12,o),
(461,48,o),
(478,160,c),
(406,172,l),
(392,95,o),
(340,56,o),
(272,56,cs),
(179,56,o),
(122,130,o),
(122,239,cs),
(122,266,ls),
(122,374,o),
(177,448,o),
(271,448,cs),
(329,448,o),
(384,417,o),
(403,333,c),
(475,345,l),
(456,457,o),
(367,516,o),
(270,516,cs),
(134,516,o),
(39,406,o),
(39,252,cs),
(39,97,o),
(134,-12,o),
(272,-12,cs)
);
}
);
width = 512;
}
);
note = c;
unicode = 99;
},
{
glyphname = cacute;
kernLeft = o;
kernRight = c;
lastChange = "2024-12-19 13:17:37 +0000";
layers = (
{
anchors = (
{
name = bottom;
pos = (254,0);
},
{
name = top;
pos = (254,504);
}
);
background = {
anchors = (
{
name = bottom;
pos = (254,0);
},
{
name = top;
pos = (254,504);
}
);
shapes = (
{
closed = 1;
nodes = (
(371,-12,o),
(461,48,o),
(478,160,c),
(406,172,l),
(392,95,o),
(340,56,o),
(272,56,cs),
(179,56,o),
(122,130,o),
(122,239,cs),
(122,266,ls),
(122,374,o),
(177,448,o),
(271,448,cs),
(329,448,o),
(384,417,o),
(403,333,c),
(475,345,l),
(456,457,o),
(367,516,o),
(270,516,cs),
(134,516,o),
(39,406,o),
(39,252,cs),
(39,97,o),
(134,-12,o),
(272,-12,cs)
);
},
{
closed = 1;
nodes = (
(390,722,l),
(327,742,l),
(224,582,l),
(280,572,l)
);
}
);
};
layerId = "E39CE873-C6CB-4040-8FBA-1D86B139B3E5";
shapes = (
{
ref = c;
},
{
pos = (224,0);
ref = acutecomb;
}
);
width = 512;
}
);
unicode = 263;
},
{
glyphname = ccaron;
kernLeft = o;
kernRight = c;
lastChange = "2024-12-19 13:17:37 +0000";
layers = (
{
anchors = (
{
name = bottom;
pos = (254,0);
},
{
name = top;
pos = (254,504);
}
);
background = {
anchors = (
{
name = bottom;
pos = (254,0);
},
{
name = top;
pos = (254,504);
}
);
shapes = (
{
closed = 1;
nodes = (
(371,-12,o),
(461,48,o),
(478,160,c),
(406,172,l),
(392,95,o),
(340,56,o),
(272,56,cs),
(179,56,o),
(122,130,o),
(122,239,cs),
(122,266,ls),
(122,374,o),
(177,448,o),
(271,448,cs),
(329,448,o),
(384,417,o),
(403,333,c),
(475,345,l),
(456,457,o),
(367,516,o),
(270,516,cs),
(134,516,o),
(39,406,o),
(39,252,cs),
(39,97,o),
(134,-12,o),
(272,-12,cs)
);
},
{
closed = 1;
nodes = (
(289,582,l),
(393,712,l),
(322,712,l),
(239,605,l),
(271,605,l),
(186,712,l),
(115,712,l),
(219,582,l)
);
}
);
};
layerId = "E39CE873-C6CB-4040-8FBA-1D86B139B3E5";
shapes = (
{
ref = c;
},
{
pos = (115,0);
ref = caroncomb;
}
);
width = 512;
}
);
unicode = 269;
},
{
glyphname = ccedilla;
kernLeft = o;
kernRight = c;
lastChange = "2024-12-19 13:17:37 +0000";
layers = (
{
anchors = (
{
name = bottom;
pos = (254,0);
},
{
name = top;
pos = (254,504);
}
);
background = {
anchors = (
{
name = bottom;
pos = (254,0);
},
{
name = top;
pos = (254,504);
}
);
shapes = (
{
closed = 1;
nodes = (
(371,-12,o),
(461,48,o),
(478,160,c),
(406,172,l),
(392,95,o),
(340,56,o),
(272,56,cs),
(179,56,o),
(122,130,o),
(122,239,cs),
(122,266,ls),
(122,374,o),
(177,448,o),
(271,448,cs),
(329,448,o),
(384,417,o),
(403,333,c),
(475,345,l),
(456,457,o),
(367,516,o),
(270,516,cs),
(134,516,o),
(39,406,o),
(39,252,cs),
(39,97,o),
(134,-12,o),
(272,-12,cs)
);
},
{
closed = 1;
nodes = (
(343,-163,o),
(378,-136,o),
(378,-93,cs),
(378,-41,o),
(327,-31,o),
(270,-26,c),
(295,-54,l),
(293,2,l),
(235,2,l),
(233,-61,l),
(292,-69,o),
(312,-74,o),
(312,-91,cs),
(312,-120,o),
(239,-113,o),
(193,-104,c),
(193,-155,l),
(222,-160,o),
(239,-163,o),
(269,-163,cs)
);
}
);
};
layerId = "E39CE873-C6CB-4040-8FBA-1D86B139B3E5";
shapes = (
{
ref = c;
},
{
pos = (193,0);
ref = cedillacomb;
}
);
width = 512;
}
);
unicode = 231;
},
{
glyphname = ccircumflex;
kernLeft = o;
kernRight = c;
lastChange = "2024-12-19 13:17:37 +0000";
layers = (
{
anchors = (
{
name = bottom;
pos = (254,0);
},
{
name = top;
pos = (254,504);
}
);
background = {
anchors = (
{
name = bottom;
pos = (254,0);
},
{
name = top;
pos = (254,504);
}
);
shapes = (
{
closed = 1;
nodes = (
(371,-12,o),
(461,48,o),
(478,160,c),
(406,172,l),
(392,95,o),
(340,56,o),
(272,56,cs),
(179,56,o),
(122,130,o),
(122,239,cs),
(122,266,ls),
(122,374,o),
(177,448,o),
(271,448,cs),
(329,448,o),
(384,417,o),
(403,333,c),
(475,345,l),
(456,457,o),
(367,516,o),
(270,516,cs),
(134,516,o),
(39,406,o),
(39,252,cs),
(39,97,o),
(134,-12,o),
(272,-12,cs)
);
},
{
closed = 1;
nodes = (
(186,582,l),
(271,689,l),
(239,689,l),
(322,582,l),
(393,582,l),
(289,712,l),
(219,712,l),
(115,582,l)
);
}
);
};
layerId = "E39CE873-C6CB-4040-8FBA-1D86B139B3E5";
shapes = (
{
ref = c;
},
{
pos = (115,0);
ref = circumflexcomb;
}
);
width = 512;
}
);
unicode = 265;
},
{
glyphname = cdotaccent;
kernLeft = o;
kernRight = c;
lastChange = "2024-12-19 13:17:37 +0000";
layers = (
{
anchors = (
{
name = bottom;
pos = (254,0);
},
{
name = top;
pos = (254,504);
}
);
background = {
anchors = (
{
name = bottom;
pos = (254,0);
},
{
name = top;
pos = (254,504);
}
);
shapes = (
{
closed = 1;
nodes = (
(371,-12,o),
(461,48,o),
(478,160,c),
(406,172,l),
(392,95,o),
(340,56,o),
(272,56,cs),
(179,56,o),
(122,130,o),
(122,239,cs),
(122,266,ls),
(122,374,o),
(177,448,o),
(271,448,cs),
(329,448,o),
(384,417,o),
(403,333,c),
(475,345,l),
(456,457,o),
(367,516,o),
(270,516,cs),
(134,516,o),
(39,406,o),
(39,252,cs),
(39,97,o),
(134,-12,o),
(272,-12,cs)
);
},
{
closed = 1;
nodes = (
(295,610,l),
(295,700,l),
(212,700,l),
(212,610,l)
);
}
);
};
layerId = "E39CE873-C6CB-4040-8FBA-1D86B139B3E5";
shapes = (
{
ref = c;
},
{
pos = (212,0);
ref = dotaccentcomb;
}
);
width = 512;
}
);
unicode = 267;
},
{
glyphname = d;
kernLeft = d;
kernRight = d;
lastChange = "2024-12-19 13:17:24 +0000";
layers = (
{
anchors = (
{
name = bottom;
pos = (278,0);
},
{
name = center;
pos = (278,252);
},
{
name = top;
pos = (278,758);
},
{
name = topright;
pos = (535,758);
}
);
background = {
anchors = (
{
name = bottom;
pos = (278,0);
},
{
name = center;
pos = (278,252);
},
{
name = top;
pos = (278,758);
},
{
name = topright;
pos = (535,758);
}
);
shapes = (
{
closed = 1;
nodes = (
(342,-12,o),
(398,36,o),
(427,118,c),
(398,232,l),
(398,102,o),
(328,54,o),
(258,54,cs),
(179,54,o),
(124,112,o),
(124,238,cs),
(124,266,ls),
(124,392,o),
(179,450,o),
(259,450,cs),
(329,450,o),
(398,402,o),
(398,272,c),
(427,382,l),
(398,465,o),
(333,516,o),
(248,516,cs),
(136,516,o),
(41,431,o),
(41,253,cs),
(41,73,o),
(143,-12,o),
(248,-12,cs)
);
},
{
closed = 1;
nodes = (
(481,0,l),
(481,710,l),
(398,710,l),
(398,123,l),
(398,112,l),
(398,0,l)
);
}
);
};
layerId = "E39CE873-C6CB-4040-8FBA-1D86B139B3E5";
shapes = (
{
closed = 1;
nodes = (
(342,-12,o),
(398,36,o),
(427,118,c),
(398,232,l),
(398,102,o),
(328,54,o),
(258,54,cs),
(179,54,o),
(124,112,o),
(124,238,cs),
(124,266,ls),
(124,392,o),
(179,450,o),
(259,450,cs),
(329,450,o),
(398,402,o),
(398,272,c),
(427,382,l),
(398,465,o),
(333,516,o),
(248,516,cs),
(136,516,o),
(41,431,o),
(41,253,cs),
(41,73,o),
(143,-12,o),
(248,-12,cs)
);
},
{
closed = 1;
nodes = (
(481,0,l),
(481,710,l),
(398,710,l),
(398,123,l),
(398,112,l),
(398,0,l)
);
}
);
width = 549;
}
);
note = d;
unicode = 100;
},
{
glyphname = dcaron;
kernLeft = d;
kernRight = dcaron;
lastChange = "2024-12-19 13:17:37 +0000";
layers = (
{
background = {
anchors = (
{
name = bottom;
pos = (278,0);
},
{
name = center;
pos = (278,252);
},
{
name = top;
pos = (278,758);
},
{
name = topright;
pos = (535,758);
}
);
shapes = (
{
closed = 1;
nodes = (
(590,498,l),
(617,710,l),
(549,710,l),
(539,498,l)
);
},
{
closed = 1;
nodes = (
(342,-12,o),
(398,36,o),
(427,118,c),
(398,232,l),
(398,102,o),
(328,54,o),
(258,54,cs),
(179,54,o),
(124,112,o),
(124,238,cs),
(124,266,ls),
(124,392,o),
(179,450,o),
(259,450,cs),
(329,450,o),
(398,402,o),
(398,272,c),
(427,382,l),
(398,465,o),
(333,516,o),
(248,516,cs),
(136,516,o),
(41,431,o),
(41,253,cs),
(41,73,o),
(143,-12,o),
(248,-12,cs)
);
},
{
closed = 1;
nodes = (
(481,0,l),
(481,710,l),
(398,710,l),
(398,123,l),
(398,112,l),
(398,0,l)
);
}
);
};
layerId = "E39CE873-C6CB-4040-8FBA-1D86B139B3E5";
shapes = (
{
closed = 1;
nodes = (
(590,498,l),
(617,710,l),
(549,710,l),
(539,498,l)
);
},
{
ref = d;
}
);
width = 588;
}
);
unicode = 271;
},
{
glyphname = dcroat;
kernLeft = d;
kernRight = d;
lastChange = "2024-12-19 13:17:38 +0000";
layers = (
{
background = {
anchors = (
{
name = bottom;
pos = (278,0);
},
{
name = center;
pos = (278,252);
},
{
name = top;
pos = (278,758);
},
{
name = topright;
pos = (535,758);
}
);
shapes = (
{
closed = 1;
nodes = (
(544,580,l),
(544,640,l),
(252,640,l),
(252,580,l)
);
},
{
closed = 1;
nodes = (
(342,-12,o),
(398,36,o),
(427,118,c),
(398,232,l),
(398,102,o),
(328,54,o),
(258,54,cs),
(179,54,o),
(124,112,o),
(124,238,cs),
(124,266,ls),
(124,392,o),
(179,450,o),
(259,450,cs),
(329,450,o),
(398,402,o),
(398,272,c),
(427,382,l),
(398,465,o),
(333,516,o),
(248,516,cs),
(136,516,o),
(41,431,o),
(41,253,cs),
(41,73,o),
(143,-12,o),
(248,-12,cs)
);
},
{
closed = 1;
nodes = (
(481,0,l),
(481,710,l),
(398,710,l),
(398,123,l),
(398,112,l),
(398,0,l)
);
}
);
};
layerId = "E39CE873-C6CB-4040-8FBA-1D86B139B3E5";
shapes = (
{
closed = 1;
nodes = (
(544,580,l),
(544,640,l),
(252,640,l),
(252,580,l)
);
},
{
ref = d;
}
);
width = 549;
}
);
unicode = 273;
},
{
glyphname = eth;
lastChange = "2024-12-19 13:17:24 +0000";
layers = (
{
background = {
shapes = (
{
closed = 1;
nodes = (
(398,-12,o),
(496,75,o),
(496,262,cs),
(496,395,o),
(476,606,o),
(195,722,c),
(158,663,l),
(292,608,o),
(361,536,o),
(392,455,c),
(400,458,l),
(363,497,o),
(311,516,o),
(253,516,cs),
(132,516,o),
(40,420,o),
(40,252,cs),
(40,84,o),
(138,-12,o),
(268,-12,cs)
);
},
{
closed = 1;
nodes = (
(182,54,o),
(123,111,o),
(123,236,cs),
(123,268,ls),
(123,393,o),
(182,450,o),
(268,450,cs),
(353,450,o),
(413,392,o),
(413,266,cs),
(413,238,ls),
(413,112,o),
(353,54,o),
(268,54,cs)
);
},
{
closed = 1;
nodes = (
(435,662,l),
(435,722,l),
(158,591,l),
(158,531,l)
);
}
);
};
guides = (
{
angle = 180;
pos = (191,722);
}
);
layerId = "E39CE873-C6CB-4040-8FBA-1D86B139B3E5";
shapes = (
{
closed = 1;
nodes = (
(398,-12,o),
(496,75,o),
(496,262,cs),
(496,395,o),
(476,606,o),
(195,722,c),
(158,663,l),
(292,608,o),
(361,536,o),
(392,455,c),
(400,458,l),
(363,497,o),
(311,516,o),
(253,516,cs),
(132,516,o),
(40,420,o),
(40,252,cs),
(40,84,o),
(138,-12,o),
(268,-12,cs)
);
},
{
closed = 1;
nodes = (
(182,54,o),
(123,111,o),
(123,236,cs),
(123,268,ls),
(123,393,o),
(182,450,o),
(268,450,cs),
(353,450,o),
(413,392,o),
(413,266,cs),
(413,238,ls),
(413,112,o),
(353,54,o),
(268,54,cs)
);
},
{
closed = 1;
nodes = (
(435,662,l),
(435,722,l),
(158,591,l),
(158,531,l)
);
}
);
width = 541;
}
);
unicode = 240;
userData = {
RMXScaler = {
source = o;
};
};
},
{
glyphname = e;
kernLeft = o;
kernRight = e;
lastChange = "2024-12-19 13:17:24 +0000";
layers = (
{
anchors = (
{
name = bottom;
pos = (260,0);
},
{
name = ogonek;
pos = (418,0);
},
{
name = top;
pos = (269,504);
}
);
background = {
anchors = (
{
name = bottom;
pos = (260,0);
},
{
name = ogonek;
pos = (418,0);
},
{
name = top;
pos = (269,504);
}
);
shapes = (
{
closed = 1;
nodes = (
(374,-12,o),
(456,48,o),
(472,148,c),
(404,164,l),
(385,88,o),
(340,56,o),
(269,56,cs),
(175,56,o),
(122,126,o),
(122,256,cs),
(122,281,ls),
(122,392,o),
(185,448,o),
(268,448,cs),
(353,448,o),
(396,392,o),
(396,290,cs),
(396,260,l),
(413,308,l),
(105,308,l),
(104,244,l),
(469,244,l),
(484,384,o),
(425,516,o),
(269,516,cs),
(134,516,o),
(40,414,o),
(40,250,cs),
(40,91,o),
(133,-12,o),
(269,-12,cs)
);
}
);
};
layerId = "E39CE873-C6CB-4040-8FBA-1D86B139B3E5";
shapes = (
{
closed = 1;
nodes = (
(374,-12,o),
(456,48,o),
(472,148,c),
(404,164,l),
(385,88,o),
(340,56,o),
(269,56,cs),
(175,56,o),
(122,126,o),
(122,256,cs),
(122,281,ls),
(122,392,o),
(185,448,o),
(268,448,cs),
(353,448,o),
(396,392,o),
(396,290,cs),
(396,260,l),
(413,308,l),
(105,308,l),
(104,244,l),
(469,244,l),
(484,384,o),
(425,516,o),
(269,516,cs),
(134,516,o),
(40,414,o),
(40,250,cs),
(40,91,o),
(133,-12,o),
(269,-12,cs)
);
}
);
width = 513;
}
);
note = e;
unicode = 101;
},
{
glyphname = eacute;
kernLeft = o;
kernRight = e;
lastChange = "2024-12-19 13:17:38 +0000";
layers = (
{
anchors = (
{
name = bottom;
pos = (260,0);
},
{
name = ogonek;
pos = (467,10);
},
{
name = top;
pos = (268,504);
}
);
background = {
anchors = (
{
name = bottom;
pos = (260,0);
},
{
name = ogonek;
pos = (467,10);
},
{
name = top;
pos = (268,504);
}
);
shapes = (
{
closed = 1;
nodes = (
(374,-12,o),
(456,48,o),
(472,148,c),
(404,164,l),
(385,88,o),
(340,56,o),
(269,56,cs),
(175,56,o),
(122,126,o),
(122,256,cs),
(122,281,ls),
(122,392,o),
(185,448,o),
(268,448,cs),
(353,448,o),
(396,392,o),
(396,290,cs),
(396,260,l),
(413,308,l),
(105,308,l),
(104,244,l),
(469,244,l),
(484,384,o),
(425,516,o),
(269,516,cs),
(134,516,o),
(40,414,o),
(40,250,cs),
(40,91,o),
(133,-12,o),
(269,-12,cs)
);
},
{
closed = 1;
nodes = (
(405,722,l),
(342,742,l),
(239,582,l),
(295,572,l)
);
}
);
};
layerId = "E39CE873-C6CB-4040-8FBA-1D86B139B3E5";
shapes = (
{
ref = e;
},
{
pos = (239,0);
ref = acutecomb;
}
);
width = 513;
}
);
unicode = 233;
},
{
glyphname = ebreve;
kernLeft = o;
kernRight = e;
lastChange = "2024-12-19 13:17:38 +0000";
layers = (
{
anchors = (
{
name = bottom;
pos = (260,0);
},
{
name = ogonek;
pos = (467,10);
},
{
name = top;
pos = (268,504);
}
);
background = {
anchors = (
{
name = bottom;
pos = (260,0);
},
{
name = ogonek;
pos = (467,10);
},
{
name = top;
pos = (268,504);
}
);
shapes = (
{
closed = 1;
nodes = (
(374,-12,o),
(456,48,o),
(472,148,c),
(404,164,l),
(385,88,o),
(340,56,o),
(269,56,cs),
(175,56,o),
(122,126,o),
(122,256,cs),
(122,281,ls),
(122,392,o),
(185,448,o),
(268,448,cs),
(353,448,o),
(396,392,o),
(396,290,cs),
(396,260,l),
(413,308,l),
(105,308,l),
(104,244,l),
(469,244,l),
(484,384,o),
(425,516,o),
(269,516,cs),
(134,516,o),
(40,414,o),
(40,250,cs),
(40,91,o),
(133,-12,o),
(269,-12,cs)
);
},
{
closed = 1;
nodes = (
(350,582,o),
(403,633,o),
(407,722,c),
(349,722,l),
(345,670,o),
(321,635,o),
(269,635,cs),
(217,635,o),
(193,670,o),
(189,722,c),
(131,722,l),
(135,633,o),
(188,582,o),
(269,582,cs)
);
}
);
};
layerId = "E39CE873-C6CB-4040-8FBA-1D86B139B3E5";
shapes = (
{
ref = e;
},
{
pos = (131,0);
ref = brevecomb;
}
);
width = 513;
}
);
unicode = 277;
},
{
glyphname = ecaron;
kernLeft = o;
kernRight = e;
lastChange = "2024-12-19 13:17:38 +0000";
layers = (
{
anchors = (
{
name = bottom;
pos = (260,0);
},
{
name = ogonek;
pos = (467,10);
},
{
name = top;
pos = (268,504);
}
);
background = {
anchors = (
{
name = bottom;
pos = (260,0);
},
{
name = ogonek;
pos = (467,10);
},
{
name = top;
pos = (268,504);
}
);
shapes = (
{
closed = 1;
nodes = (
(374,-12,o),
(456,48,o),
(472,148,c),
(404,164,l),
(385,88,o),
(340,56,o),
(269,56,cs),
(175,56,o),
(122,126,o),
(122,256,cs),
(122,281,ls),
(122,392,o),
(185,448,o),
(268,448,cs),
(353,448,o),
(396,392,o),
(396,290,cs),
(396,260,l),
(413,308,l),
(105,308,l),
(104,244,l),
(469,244,l),
(484,384,o),
(425,516,o),
(269,516,cs),
(134,516,o),
(40,414,o),
(40,250,cs),
(40,91,o),
(133,-12,o),
(269,-12,cs)
);
},
{
closed = 1;
nodes = (
(304,582,l),
(408,712,l),
(337,712,l),
(254,605,l),
(286,605,l),
(201,712,l),
(130,712,l),
(234,582,l)
);
}
);
};
layerId = "E39CE873-C6CB-4040-8FBA-1D86B139B3E5";
shapes = (
{
ref = e;
},
{
pos = (130,0);
ref = caroncomb;
}
);
width = 513;
}
);
unicode = 283;
},
{
glyphname = ecircumflex;
kernLeft = o;
kernRight = e;
lastChange = "2024-12-19 13:17:38 +0000";
layers = (
{
anchors = (
{
name = bottom;
pos = (260,0);
},
{
name = ogonek;
pos = (467,10);
},
{
name = top;
pos = (268,504);
}
);
background = {
anchors = (
{
name = bottom;
pos = (260,0);
},
{
name = ogonek;
pos = (467,10);
},
{
name = top;
pos = (268,504);
}
);
shapes = (
{
closed = 1;
nodes = (
(374,-12,o),
(456,48,o),
(472,148,c),
(404,164,l),
(385,88,o),
(340,56,o),
(269,56,cs),
(175,56,o),
(122,126,o),
(122,256,cs),
(122,281,ls),
(122,392,o),
(185,448,o),
(268,448,cs),
(353,448,o),
(396,392,o),
(396,290,cs),
(396,260,l),
(413,308,l),
(105,308,l),
(104,244,l),
(469,244,l),
(484,384,o),
(425,516,o),
(269,516,cs),
(134,516,o),
(40,414,o),
(40,250,cs),
(40,91,o),
(133,-12,o),
(269,-12,cs)
);
},
{
closed = 1;
nodes = (
(201,582,l),
(286,689,l),
(254,689,l),
(337,582,l),
(408,582,l),
(304,712,l),
(234,712,l),
(130,582,l)
);
}
);
};
layerId = "E39CE873-C6CB-4040-8FBA-1D86B139B3E5";
shapes = (
{
ref = e;
},
{
pos = (130,0);
ref = circumflexcomb;
}
);
width = 513;
}
);
unicode = 234;
},
{
glyphname = edieresis;
kernLeft = o;
kernRight = e;
lastChange = "2024-12-19 13:17:38 +0000";
layers = (
{
background = {
anchors = (
{
name = bottom;
pos = (260,0);
},
{
name = ogonek;
pos = (418,0);
},
{
name = top;
pos = (269,700);
}
);
shapes = (
{
closed = 1;
nodes = (
(374,-12,o),
(456,48,o),
(472,148,c),
(404,164,l),
(385,88,o),
(340,56,o),
(269,56,cs),
(175,56,o),
(122,126,o),
(122,256,cs),
(122,281,ls),
(122,392,o),
(185,448,o),
(268,448,cs),
(353,448,o),
(396,392,o),
(396,290,cs),
(396,260,l),
(413,308,l),
(105,308,l),
(104,244,l),
(469,244,l),
(484,384,o),
(425,516,o),
(269,516,cs),
(134,516,o),
(40,414,o),
(40,250,cs),
(40,91,o),
(133,-12,o),
(269,-12,cs)
);
},
{
closed = 1;
nodes = (
(229,610,l),
(229,700,l),
(146,700,l),
(146,610,l)
);
},
{
closed = 1;
nodes = (
(392,610,l),
(392,700,l),
(309,700,l),
(309,610,l)
);
}
);
};
layerId = "E39CE873-C6CB-4040-8FBA-1D86B139B3E5";
shapes = (
{
ref = e;
},
{
pos = (146,0);
ref = dieresiscomb;
}
);
width = 513;
}
);
unicode = 235;
},
{
glyphname = edotaccent;
kernLeft = o;
kernRight = e;
lastChange = "2024-12-19 13:17:38 +0000";
layers = (
{
background = {
anchors = (
{
name = bottom;
pos = (260,0);
},
{
name = ogonek;
pos = (418,0);
},
{
name = top;
pos = (269,700);
}
);
shapes = (
{
closed = 1;
nodes = (
(374,-12,o),
(456,48,o),
(472,148,c),
(404,164,l),
(385,88,o),
(340,56,o),
(269,56,cs),
(175,56,o),
(122,126,o),
(122,256,cs),
(122,281,ls),
(122,392,o),
(185,448,o),
(268,448,cs),
(353,448,o),
(396,392,o),
(396,290,cs),
(396,260,l),
(413,308,l),
(105,308,l),
(104,244,l),
(469,244,l),
(484,384,o),
(425,516,o),
(269,516,cs),
(134,516,o),
(40,414,o),
(40,250,cs),
(40,91,o),
(133,-12,o),
(269,-12,cs)
);
},
{
closed = 1;
nodes = (
(310,610,l),
(310,700,l),
(227,700,l),
(227,610,l)
);
}
);
};
layerId = "E39CE873-C6CB-4040-8FBA-1D86B139B3E5";
shapes = (
{
ref = e;
},
{
pos = (227,0);
ref = dotaccentcomb;
}
);
width = 513;
}
);
unicode = 279;
},
{
glyphname = egrave;
kernLeft = o;
kernRight = e;
lastChange = "2024-12-19 13:17:51 +0000";
layers = (
{
anchors = (
{
name = bottom;
pos = (260,0);
},
{
name = ogonek;
pos = (467,10);
},
{
name = top;
pos = (268,504);
}
);
background = {
anchors = (
{
name = bottom;
pos = (260,0);
},
{
name = ogonek;
pos = (467,10);
},
{
name = top;
pos = (268,504);
}
);
shapes = (
{
closed = 1;
nodes = (
(374,-12,o),
(456,48,o),
(472,148,c),
(404,164,l),
(385,88,o),
(340,56,o),
(269,56,cs),
(175,56,o),
(122,126,o),
(122,256,cs),
(122,281,ls),
(122,392,o),
(185,448,o),
(268,448,cs),
(353,448,o),
(396,392,o),
(396,290,cs),
(396,260,l),
(413,308,l),
(105,308,l),
(104,244,l),
(469,244,l),
(484,384,o),
(425,516,o),
(269,516,cs),
(134,516,o),
(40,414,o),
(40,250,cs),
(40,91,o),
(133,-12,o),
(269,-12,cs)
);
},
{
closed = 1;
nodes = (
(289,582,l),
(186,742,l),
(123,722,l),
(233,572,l)
);
}
);
};
layerId = "E39CE873-C6CB-4040-8FBA-1D86B139B3E5";
shapes = (
{
ref = e;
},
{
pos = (133,0);
ref = gravecomb;
}
);
width = 513;
}
);
unicode = 232;
},
{
glyphname = emacron;
kernLeft = o;
kernRight = e;
lastChange = "2024-12-19 13:17:38 +0000";
layers = (
{
background = {
anchors = (
{
name = bottom;
pos = (260,0);
},
{
name = ogonek;
pos = (418,0);
},
{
name = top;
pos = (269,654);
}
);
shapes = (
{
closed = 1;
nodes = (
(374,-12,o),
(456,48,o),
(472,148,c),
(404,164,l),
(385,88,o),
(340,56,o),
(269,56,cs),
(175,56,o),
(122,126,o),
(122,256,cs),
(122,281,ls),
(122,392,o),
(185,448,o),
(268,448,cs),
(353,448,o),
(396,392,o),
(396,290,cs),
(396,260,l),
(413,308,l),
(105,308,l),
(104,244,l),
(469,244,l),
(484,384,o),
(425,516,o),
(269,516,cs),
(134,516,o),
(40,414,o),
(40,250,cs),
(40,91,o),
(133,-12,o),
(269,-12,cs)
);
},
{
closed = 1;
nodes = (
(421,599,l),
(421,654,l),
(116,654,l),
(116,599,l)
);
}
);
};
layerId = "E39CE873-C6CB-4040-8FBA-1D86B139B3E5";
shapes = (
{
ref = e;
},
{
pos = (116,0);
ref = macroncomb;
}
);
width = 513;
}
);
unicode = 275;
},
{
glyphname = eogonek;
kernLeft = o;
kernRight = e;
lastChange = "2024-12-19 13:17:24 +0000";
layers = (
{
background = {
shapes = (
{
closed = 1;
nodes = (
(428,-106,l),
(396,-109,o),
(357,-102,o),
(357,-60,cs),
(357,-32,o),
(378,1,o),
(409,34,cs),
(443,70,o),
(465,103,o),
(472,148,c),
(404,164,l),
(385,88,o),
(340,56,o),
(269,56,cs),
(175,56,o),
(122,126,o),
(122,256,cs),
(122,281,ls),
(122,392,o),
(185,448,o),
(268,448,cs),
(353,448,o),
(396,392,o),
(396,290,cs),
(396,269,l),
(413,308,l),
(105,308,l),
(104,244,l),
(469,244,l),
(484,384,o),
(425,516,o),
(269,516,cs),
(134,516,o),
(40,414,o),
(40,250,cs),
(40,91,o),
(133,-12,o),
(269,-12,cs),
(295,-12,o),
(317,-8,o),
(341,-3,c),
(337,8,l),
(310,-17,o),
(288,-45,o),
(288,-80,cs),
(288,-155,o),
(372,-171,o),
(428,-158,c)
);
}
);
};
layerId = "E39CE873-C6CB-4040-8FBA-1D86B139B3E5";
shapes = (
{
closed = 1;
nodes = (
(428,-106,l),
(396,-109,o),
(357,-102,o),
(357,-60,cs),
(357,-32,o),
(378,1,o),
(409,34,cs),
(443,70,o),
(465,103,o),
(472,148,c),
(404,164,l),
(385,88,o),
(340,56,o),
(269,56,cs),
(175,56,o),
(122,126,o),
(122,256,cs),
(122,281,ls),
(122,392,o),
(185,448,o),
(268,448,cs),
(353,448,o),
(396,392,o),
(396,290,cs),
(396,269,l),
(413,308,l),
(105,308,l),
(104,244,l),
(469,244,l),
(484,384,o),
(425,516,o),
(269,516,cs),
(134,516,o),
(40,414,o),
(40,250,cs),
(40,91,o),
(133,-12,o),
(269,-12,cs),
(295,-12,o),
(317,-8,o),
(341,-3,c),
(337,8,l),
(310,-17,o),
(288,-45,o),
(288,-80,cs),
(288,-155,o),
(372,-171,o),
(428,-158,c)
);
}
);
width = 513;
}
);
unicode = 281;
},
{
glyphname = f;
kernLeft = f;
kernRight = f;
lastChange = "2024-12-19 13:17:24 +0000";
layers = (
{
anchors = (
{
name = bottom;
pos = (154,0);
},
{
name = top;
pos = (154,728);
}
);
background = {
anchors = (
{
name = bottom;
pos = (154,0);
},
{
name = top;
pos = (154,728);
}
);
shapes = (
{
closed = 1;
nodes = (
(181,0,l),
(181,567,ls),
(181,630,o),
(215,655,o),
(267,655,cs),
(284,655,o),
(305,652,o),
(333,645,c),
(333,710,l),
(307,718,o),
(287,722,o),
(260,722,cs),
(176,722,o),
(98,672,o),
(98,563,cs),
(98,0,l)
);
},
{
closed = 1;
nodes = (
(301,438,l),
(301,504,l),
(17,504,l),
(17,438,l)
);
}
);
};
guides = (
{
angle = 180;
pos = (856,493);
}
);
layerId = "E39CE873-C6CB-4040-8FBA-1D86B139B3E5";
shapes = (
{
closed = 1;
nodes = (
(181,0,l),
(181,567,ls),
(181,630,o),
(215,655,o),
(267,655,cs),
(284,655,o),
(305,652,o),
(333,645,c),
(333,710,l),
(307,718,o),
(287,722,o),
(260,722,cs),
(176,722,o),
(98,672,o),
(98,563,cs),
(98,0,l)
);
},
{
closed = 1;
nodes = (
(301,438,l),
(301,504,l),
(17,504,l),
(17,438,l)
);
}
);
width = 311;
}
);
note = f;
unicode = 102;
},
{
glyphname = g;
kernLeft = g;
kernRight = g;
lastChange = "2024-12-19 13:17:24 +0000";
layers = (
{
anchors = (
{
name = bottom;
pos = (266,-165);
},
{
name = top;
pos = (251,504);
}
);
background = {
anchors = (
{
name = bottom;
pos = (266,-165);
},
{
name = top;
pos = (251,504);
}
);
shapes = (
{
closed = 1;
nodes = (
(421,-177,o),
(513,-126,o),
(513,-32,cs),
(513,40,o),
(463,88,o),
(373,95,cs),
(209,107,ls),
(167,110,o),
(147,121,o),
(147,148,cs),
(147,171,o),
(164,187,o),
(200,205,c),
(155,226,l),
(95,202,o),
(73,165,o),
(73,129,cs),
(73,102,o),
(86,63,o),
(140,53,c),
(152,43,l),
(349,29,ls),
(416,24,o),
(434,-5,o),
(434,-37,cs),
(434,-89,o),
(388,-117,o),
(263,-117,cs),
(161,-117,o),
(101,-96,o),
(101,-34,cs),
(101,10,o),
(142,42,o),
(203,53,c),
(138,74,l),
(70,53,o),
(25,5,o),
(25,-50,cs),
(25,-119,o),
(83,-177,o),
(261,-177,cs)
);
},
{
closed = 1;
nodes = (
(383,180,o),
(461,252,o),
(461,347,cs),
(461,442,o),
(385,516,o),
(252,516,cs),
(119,516,o),
(43,442,o),
(43,347,cs),
(43,252,o),
(121,180,o),
(252,180,cs)
);
},
{
closed = 1;
nodes = (
(167,240,o),
(126,282,o),
(126,347,cs),
(126,412,o),
(166,456,o),
(252,456,cs),
(338,456,o),
(378,412,o),
(378,347,cs),
(378,282,o),
(337,240,o),
(252,240,cs)
);
},
{
closed = 1;
nodes = (
(423,483,o),
(473,484,o),
(508,478,c),
(508,555,l),
(498,557,o),
(487,558,o),
(477,558,cs),
(413,558,o),
(372,521,o),
(356,466,c),
(389,443,l)
);
}
);
};
layerId = "E39CE873-C6CB-4040-8FBA-1D86B139B3E5";
shapes = (
{
closed = 1;
nodes = (
(421,-177,o),
(513,-126,o),
(513,-32,cs),
(513,40,o),
(463,88,o),
(373,95,cs),
(209,107,ls),
(167,110,o),
(147,121,o),
(147,148,cs),
(147,171,o),
(164,187,o),
(200,205,c),
(155,226,l),
(95,202,o),
(73,165,o),
(73,129,cs),
(73,102,o),
(86,63,o),
(140,53,c),
(152,43,l),
(349,29,ls),
(416,24,o),
(434,-5,o),
(434,-37,cs),
(434,-89,o),
(388,-117,o),
(263,-117,cs),
(161,-117,o),
(101,-96,o),
(101,-34,cs),
(101,10,o),
(142,42,o),
(203,53,c),
(138,74,l),
(70,53,o),
(25,5,o),
(25,-50,cs),
(25,-119,o),
(83,-177,o),
(261,-177,cs)
);
},
{
closed = 1;
nodes = (
(383,180,o),
(461,252,o),
(461,347,cs),
(461,442,o),
(385,516,o),
(252,516,cs),
(119,516,o),
(43,442,o),
(43,347,cs),
(43,252,o),
(121,180,o),
(252,180,cs)
);
},
{
closed = 1;
nodes = (
(167,240,o),
(126,282,o),
(126,347,cs),
(126,412,o),
(166,456,o),
(252,456,cs),
(338,456,o),
(378,412,o),
(378,347,cs),
(378,282,o),
(337,240,o),
(252,240,cs)
);
},
{
closed = 1;
nodes = (
(423,483,o),
(473,484,o),
(508,478,c),
(508,555,l),
(498,557,o),
(487,558,o),
(477,558,cs),
(413,558,o),
(372,521,o),
(356,466,c),
(389,443,l)
);
}
);
width = 532;
}
);
note = g;
unicode = 103;
},
{
glyphname = gbreve;
kernLeft = g;
kernRight = g;
lastChange = "2024-12-19 13:17:38 +0000";
layers = (
{
background = {
anchors = (
{
name = bottom;
pos = (266,-165);
},
{
name = top;
pos = (251,722);
}
);
shapes = (
{
closed = 1;
nodes = (
(421,-177,o),
(513,-126,o),
(513,-32,cs),
(513,40,o),
(463,88,o),
(373,95,cs),
(209,107,ls),
(167,110,o),
(147,121,o),
(147,148,cs),
(147,171,o),
(164,187,o),
(200,205,c),
(155,226,l),
(95,202,o),
(73,165,o),
(73,129,cs),
(73,102,o),
(86,63,o),
(140,53,c),
(152,43,l),
(349,29,ls),
(416,24,o),
(434,-5,o),
(434,-37,cs),
(434,-89,o),
(388,-117,o),
(263,-117,cs),
(161,-117,o),
(101,-96,o),
(101,-34,cs),
(101,10,o),
(142,42,o),
(203,53,c),
(138,74,l),
(70,53,o),
(25,5,o),
(25,-50,cs),
(25,-119,o),
(83,-177,o),
(261,-177,cs)
);
},
{
closed = 1;
nodes = (
(383,180,o),
(461,252,o),
(461,347,cs),
(461,442,o),
(385,516,o),
(252,516,cs),
(119,516,o),
(43,442,o),
(43,347,cs),
(43,252,o),
(121,180,o),
(252,180,cs)
);
},
{
closed = 1;
nodes = (
(167,240,o),
(126,282,o),
(126,347,cs),
(126,412,o),
(166,456,o),
(252,456,cs),
(338,456,o),
(378,412,o),
(378,347,cs),
(378,282,o),
(337,240,o),
(252,240,cs)
);
},
{
closed = 1;
nodes = (
(423,483,o),
(473,484,o),
(508,478,c),
(508,555,l),
(498,557,o),
(487,558,o),
(477,558,cs),
(413,558,o),
(372,521,o),
(356,466,c),
(389,443,l)
);
},
{
closed = 1;
nodes = (
(332,582,o),
(385,633,o),
(389,722,c),
(331,722,l),
(327,670,o),
(303,635,o),
(251,635,cs),
(199,635,o),
(175,670,o),
(171,722,c),
(113,722,l),
(117,633,o),
(170,582,o),
(251,582,cs)
);
}
);
};
layerId = "E39CE873-C6CB-4040-8FBA-1D86B139B3E5";
shapes = (
{
ref = g;
},
{
pos = (113,0);
ref = brevecomb;
}
);
width = 532;
}
);
unicode = 287;
},
{
glyphname = gcircumflex;
kernLeft = g;
kernRight = g;
lastChange = "2024-12-19 13:17:38 +0000";
layers = (
{
anchors = (
{
name = bottom;
pos = (266,-165);
},
{
name = top;
pos = (266,504);
}
);
background = {
anchors = (
{
name = bottom;
pos = (266,-165);
},
{
name = top;
pos = (266,504);
}
);
shapes = (
{
closed = 1;
nodes = (
(421,-177,o),
(513,-126,o),
(513,-32,cs),
(513,40,o),
(463,88,o),
(373,95,cs),
(209,107,ls),
(167,110,o),
(147,121,o),
(147,148,cs),
(147,171,o),
(164,187,o),
(200,205,c),
(155,226,l),
(95,202,o),
(73,165,o),
(73,129,cs),
(73,102,o),
(86,63,o),
(140,53,c),
(152,43,l),
(349,29,ls),
(416,24,o),
(434,-5,o),
(434,-37,cs),
(434,-89,o),
(388,-117,o),
(263,-117,cs),
(161,-117,o),
(101,-96,o),
(101,-34,cs),
(101,10,o),
(142,42,o),
(203,53,c),
(138,74,l),
(70,53,o),
(25,5,o),
(25,-50,cs),
(25,-119,o),
(83,-177,o),
(261,-177,cs)
);
},
{
closed = 1;
nodes = (
(383,180,o),
(461,252,o),
(461,347,cs),
(461,442,o),
(385,516,o),
(252,516,cs),
(119,516,o),
(43,442,o),
(43,347,cs),
(43,252,o),
(121,180,o),
(252,180,cs)
);
},
{
closed = 1;
nodes = (
(167,240,o),
(126,282,o),
(126,347,cs),
(126,412,o),
(166,456,o),
(252,456,cs),
(338,456,o),
(378,412,o),
(378,347,cs),
(378,282,o),
(337,240,o),
(252,240,cs)
);
},
{
closed = 1;
nodes = (
(423,483,o),
(473,484,o),
(508,478,c),
(508,555,l),
(498,557,o),
(487,558,o),
(477,558,cs),
(413,558,o),
(372,521,o),
(356,466,c),
(389,443,l)
);
},
{
closed = 1;
nodes = (
(183,582,l),
(268,689,l),
(236,689,l),
(319,582,l),
(390,582,l),
(286,712,l),
(216,712,l),
(112,582,l)
);
}
);
};
layerId = "E39CE873-C6CB-4040-8FBA-1D86B139B3E5";
shapes = (
{
ref = g;
},
{
pos = (112,0);
ref = circumflexcomb;
}
);
width = 532;
}
);
unicode = 285;
},
{
glyphname = gcommaaccent;
kernLeft = g;
kernRight = g;
lastChange = "2024-12-19 13:17:38 +0000";
layers = (
{
background = {
anchors = (
{
name = bottom;
pos = (266,-165);
},
{
name = top;
pos = (251,746);
}
);
shapes = (
{
closed = 1;
nodes = (
(421,-177,o),
(513,-126,o),
(513,-32,cs),
(513,40,o),
(463,88,o),
(373,95,cs),
(209,107,ls),
(167,110,o),
(147,121,o),
(147,148,cs),
(147,171,o),
(164,187,o),
(200,205,c),
(155,226,l),
(95,202,o),
(73,165,o),
(73,129,cs),
(73,102,o),
(86,63,o),
(140,53,c),
(152,43,l),
(349,29,ls),
(416,24,o),
(434,-5,o),
(434,-37,cs),
(434,-89,o),
(388,-117,o),
(263,-117,cs),
(161,-117,o),
(101,-96,o),
(101,-34,cs),
(101,10,o),
(142,42,o),
(203,53,c),
(138,74,l),
(70,53,o),
(25,5,o),
(25,-50,cs),
(25,-119,o),
(83,-177,o),
(261,-177,cs)
);
},
{
closed = 1;
nodes = (
(383,180,o),
(461,252,o),
(461,347,cs),
(461,442,o),
(385,516,o),
(252,516,cs),
(119,516,o),
(43,442,o),
(43,347,cs),
(43,252,o),
(121,180,o),
(252,180,cs)
);
},
{
closed = 1;
nodes = (
(167,240,o),
(126,282,o),
(126,347,cs),
(126,412,o),
(166,456,o),
(252,456,cs),
(338,456,o),
(378,412,o),
(378,347,cs),
(378,282,o),
(337,240,o),
(252,240,cs)
);
},
{
closed = 1;
nodes = (
(423,483,o),
(473,484,o),
(508,478,c),
(508,555,l),
(498,557,o),
(487,558,o),
(477,558,cs),
(413,558,o),
(372,521,o),
(356,466,c),
(389,443,l)
);
},
{
closed = 1;
nodes = (
(242,746,l),
(207,646,l),
(207,579,l),
(295,579,l),
(295,662,l),
(263,662,l),
(291,746,l)
);
}
);
};
layerId = "E39CE873-C6CB-4040-8FBA-1D86B139B3E5";
shapes = (
{
ref = g;
},
{
angle = 180;
pos = (295,504);
ref = commaaccentcomb;
}
);
width = 532;
}
);
unicode = 291;
},
{
glyphname = gdotaccent;
kernLeft = g;
kernRight = g;
lastChange = "2024-12-19 13:17:38 +0000";
layers = (
{
anchors = (
{
name = bottom;
pos = (266,-165);
},
{
name = top;
pos = (266,504);
}
);
background = {
anchors = (
{
name = bottom;
pos = (266,-165);
},
{
name = top;
pos = (266,504);
}
);
shapes = (
{
closed = 1;
nodes = (
(421,-177,o),
(513,-126,o),
(513,-32,cs),
(513,40,o),
(463,88,o),
(373,95,cs),
(209,107,ls),
(167,110,o),
(147,121,o),
(147,148,cs),
(147,171,o),
(164,187,o),
(200,205,c),
(155,226,l),
(95,202,o),
(73,165,o),
(73,129,cs),
(73,102,o),
(86,63,o),
(140,53,c),
(152,43,l),
(349,29,ls),
(416,24,o),
(434,-5,o),
(434,-37,cs),
(434,-89,o),
(388,-117,o),
(263,-117,cs),
(161,-117,o),
(101,-96,o),
(101,-34,cs),
(101,10,o),
(142,42,o),
(203,53,c),
(138,74,l),
(70,53,o),
(25,5,o),
(25,-50,cs),
(25,-119,o),
(83,-177,o),
(261,-177,cs)
);
},
{
closed = 1;
nodes = (
(383,180,o),
(461,252,o),
(461,347,cs),
(461,442,o),
(385,516,o),
(252,516,cs),
(119,516,o),
(43,442,o),
(43,347,cs),
(43,252,o),
(121,180,o),
(252,180,cs)
);
},
{
closed = 1;
nodes = (
(167,240,o),
(126,282,o),
(126,347,cs),
(126,412,o),
(166,456,o),
(252,456,cs),
(338,456,o),
(378,412,o),
(378,347,cs),
(378,282,o),
(337,240,o),
(252,240,cs)
);
},
{
closed = 1;
nodes = (
(423,483,o),
(473,484,o),
(508,478,c),
(508,555,l),
(498,557,o),
(487,558,o),
(477,558,cs),
(413,558,o),
(372,521,o),
(356,466,c),
(389,443,l)
);
},
{
closed = 1;
nodes = (
(292,610,l),
(292,700,l),
(209,700,l),
(209,610,l)
);
}
);
};
layerId = "E39CE873-C6CB-4040-8FBA-1D86B139B3E5";
shapes = (
{
ref = g;
},
{
pos = (209,0);
ref = dotaccentcomb;
}
);
width = 532;
}
);
unicode = 289;
},
{
glyphname = h;
kernLeft = h;
kernRight = n;
lastChange = "2024-12-19 13:17:24 +0000";
layers = (
{
anchors = (
{
name = bottom;
pos = (268,0);
},
{
name = center;
pos = (253,379);
},
{
name = top;
pos = (210,710);
}
);
background = {
anchors = (
{
name = bottom;
pos = (268,0);
},
{
name = center;
pos = (253,379);
},
{
name = top;
pos = (210,710);
}
);
shapes = (
{
closed = 1;
nodes = (
(468,0,l),
(468,332,ls),
(468,446,o),
(400,516,o),
(300,516,cs),
(218,516,o),
(153,466,o),
(129,366,c),
(151,314,l),
(151,413,o),
(215,449,o),
(278,449,cs),
(345,449,o),
(385,410,o),
(385,323,cs),
(385,0,l)
);
},
{
closed = 1;
nodes = (
(151,0,l),
(151,710,l),
(68,710,l),
(68,0,l)
);
}
);
};
layerId = "E39CE873-C6CB-4040-8FBA-1D86B139B3E5";
shapes = (
{
closed = 1;
nodes = (
(468,0,l),
(468,332,ls),
(468,446,o),
(400,516,o),
(300,516,cs),
(218,516,o),
(153,466,o),
(129,366,c),
(151,314,l),
(151,413,o),
(215,449,o),
(278,449,cs),
(345,449,o),
(385,410,o),
(385,323,cs),
(385,0,l)
);
},
{
closed = 1;
nodes = (
(151,0,l),
(151,710,l),
(68,710,l),
(68,0,l)
);
}
);
width = 532;
}
);
note = h;
unicode = 104;
},
{
glyphname = hbar;
kernLeft = h;
kernRight = n;
lastChange = "2024-12-19 13:17:38 +0000";
layers = (
{
background = {
anchors = (
{
name = bottom;
pos = (268,0);
},
{
name = center;
pos = (253,379);
},
{
name = top;
pos = (210,710);
}
);
shapes = (
{
closed = 1;
nodes = (
(289,580,l),
(289,640,l),
(-3,640,l),
(-3,580,l)
);
},
{
closed = 1;
nodes = (
(468,0,l),
(468,332,ls),
(468,446,o),
(400,516,o),
(300,516,cs),
(218,516,o),
(153,466,o),
(129,366,c),
(151,314,l),
(151,413,o),
(215,449,o),
(278,449,cs),
(345,449,o),
(385,410,o),
(385,323,cs),
(385,0,l)
);
},
{
closed = 1;
nodes = (
(151,0,l),
(151,710,l),
(68,710,l),
(68,0,l)
);
}
);
};
layerId = "E39CE873-C6CB-4040-8FBA-1D86B139B3E5";
shapes = (
{
closed = 1;
nodes = (
(289,580,l),
(289,640,l),
(-3,640,l),
(-3,580,l)
);
},
{
ref = h;
}
);
width = 532;
}
);
unicode = 295;
},
{
glyphname = hcircumflex;
kernLeft = h;
kernRight = n;
lastChange = "2024-12-19 13:17:38 +0000";
layers = (
{
background = {
anchors = (
{
name = bottom;
pos = (268,0);
},
{
name = center;
pos = (253,379);
},
{
name = top;
pos = (210,898);
}
);
shapes = (
{
closed = 1;
nodes = (
(468,0,l),
(468,332,ls),
(468,446,o),
(400,516,o),
(300,516,cs),
(218,516,o),
(153,466,o),
(129,366,c),
(151,314,l),
(151,413,o),
(215,449,o),
(278,449,cs),
(345,449,o),
(385,410,o),
(385,323,cs),
(385,0,l)
);
},
{
closed = 1;
nodes = (
(151,0,l),
(151,710,l),
(68,710,l),
(68,0,l)
);
},
{
closed = 1;
nodes = (
(136,768,l),
(227,875,l),
(196,875,l),
(284,768,l),
(354,768,l),
(245,898,l),
(175,898,l),
(66,768,l)
);
}
);
};
layerId = "E39CE873-C6CB-4040-8FBA-1D86B139B3E5";
shapes = (
{
ref = h;
},
{
pos = (62,0);
ref = circumflexcomb.case;
}
);
width = 532;
}
);
unicode = 293;
},
{
glyphname = i;
kernLeft = i;
kernRight = i;
lastChange = "2024-12-19 13:17:24 +0000";
layers = (
{
anchors = (
{
name = bottom;
pos = (109,0);
}
);
background = {
anchors = (
{
name = bottom;
pos = (109,0);
}
);
shapes = (
{
closed = 1;
nodes = (
(151,0,l),
(151,504,l),
(68,504,l),
(68,0,l)
);
},
{
closed = 1;
nodes = (
(151,610,l),
(151,700,l),
(68,700,l),
(68,610,l)
);
}
);
};
layerId = "E39CE873-C6CB-4040-8FBA-1D86B139B3E5";
shapes = (
{
closed = 1;
nodes = (
(151,0,l),
(151,504,l),
(68,504,l),
(68,0,l)
);
},
{
closed = 1;
nodes = (
(151,610,l),
(151,700,l),
(68,700,l),
(68,610,l)
);
}
);
width = 219;
}
);
note = i;
unicode = 105;
},
{
glyphname = idotless;
kernLeft = i;
kernRight = i;
lastChange = "2024-12-19 13:17:24 +0000";
layers = (
{
anchors = (
{
name = bottom;
pos = (110,0);
},
{
name = ogonek;
pos = (151,0);
},
{
name = top;
pos = (110,504);
}
);
background = {
anchors = (
{
name = bottom;
pos = (110,0);
},
{
name = ogonek;
pos = (151,0);
},
{
name = top;
pos = (110,504);
}
);
shapes = (
{
closed = 1;
nodes = (
(151,0,l),
(151,504,l),
(68,504,l),
(68,0,l)
);
}
);
};
layerId = "E39CE873-C6CB-4040-8FBA-1D86B139B3E5";
shapes = (
{
closed = 1;
nodes = (
(151,0,l),
(151,504,l),
(68,504,l),
(68,0,l)
);
}
);
width = 219;
}
);
unicode = 305;
},
{
glyphname = iacute;
kernLeft = i;
kernRight = i;
lastChange = "2024-12-19 13:17:38 +0000";
layers = (
{
background = {
anchors = (
{
name = bottom;
pos = (110,0);
},
{
name = ogonek;
pos = (151,0);
},
{
name = top;
pos = (178,719);
}
);
shapes = (
{
closed = 1;
nodes = (
(151,0,l),
(151,504,l),
(68,504,l),
(68,0,l)
);
},
{
closed = 1;
nodes = (
(246,722,l),
(183,742,l),
(80,582,l),
(136,572,l)
);
}
);
};
layerId = "E39CE873-C6CB-4040-8FBA-1D86B139B3E5";
shapes = (
{
ref = idotless;
},
{
pos = (80,0);
ref = acutecomb;
}
);
width = 219;
}
);
unicode = 237;
},
{
glyphname = ibreve;
kernLeft = i;
kernRight = i;
lastChange = "2024-12-19 13:17:38 +0000";
layers = (
{
background = {
anchors = (
{
name = bottom;
pos = (110,0);
},
{
name = ogonek;
pos = (151,0);
},
{
name = top;
pos = (110,722);
}
);
shapes = (
{
closed = 1;
nodes = (
(151,0,l),
(151,504,l),
(68,504,l),
(68,0,l)
);
},
{
closed = 1;
nodes = (
(191,582,o),
(244,633,o),
(248,722,c),
(190,722,l),
(186,670,o),
(162,635,o),
(110,635,cs),
(58,635,o),
(34,670,o),
(30,722,c),
(-28,722,l),
(-24,633,o),
(29,582,o),
(110,582,cs)
);
}
);
};
layerId = "E39CE873-C6CB-4040-8FBA-1D86B139B3E5";
shapes = (
{
ref = idotless;
},
{
pos = (-28,0);
ref = brevecomb;
}
);
width = 219;
}
);
unicode = 301;
},
{
glyphname = icircumflex;
kernLeft = i;
kernRight = i;
lastChange = "2024-12-19 13:17:38 +0000";
layers = (
{
background = {
anchors = (
{
name = bottom;
pos = (110,0);
},
{
name = ogonek;
pos = (151,0);
},
{
name = top;
pos = (110,723);
}
);
shapes = (
{
closed = 1;
nodes = (
(151,0,l),
(151,504,l),
(68,504,l),
(68,0,l)
);
},
{
closed = 1;
nodes = (
(42,593,l),
(127,700,l),
(95,700,l),
(178,593,l),
(249,593,l),
(145,723,l),
(75,723,l),
(-29,593,l)
);
}
);
};
layerId = "E39CE873-C6CB-4040-8FBA-1D86B139B3E5";
shapes = (
{
ref = idotless;
},
{
pos = (-29,0);
ref = circumflexcomb.short;
}
);
width = 219;
}
);
unicode = 238;
},
{
glyphname = idieresis;
kernLeft = i;
kernRight = i;
lastChange = "2024-12-19 13:17:38 +0000";
layers = (
{
background = {
anchors = (
{
name = bottom;
pos = (110,0);
},
{
name = ogonek;
pos = (151,0);
},
{
name = top;
pos = (110,700);
}
);
shapes = (
{
closed = 1;
nodes = (
(151,0,l),
(151,504,l),
(68,504,l),
(68,0,l)
);
},
{
closed = 1;
nodes = (
(77,610,l),
(77,700,l),
(-6,700,l),
(-6,610,l)
);
},
{
closed = 1;
nodes = (
(226,610,l),
(226,700,l),
(143,700,l),
(143,610,l)
);
}
);
};
layerId = "E39CE873-C6CB-4040-8FBA-1D86B139B3E5";
shapes = (
{
ref = idotless;
},
{
pos = (-6,0);
ref = dieresiscomb.short;
}
);
width = 219;
}
);
unicode = 239;
},
{
glyphname = igrave;
kernLeft = i;
kernRight = i;
lastChange = "2024-12-19 13:17:51 +0000";
layers = (
{
background = {
anchors = (
{
name = bottom;
pos = (110,0);
},
{
name = ogonek;
pos = (151,0);
},
{
name = top;
pos = (32,719);
}
);
shapes = (
{
closed = 1;
nodes = (
(151,0,l),
(151,504,l),
(68,504,l),
(68,0,l)
);
},
{
closed = 1;
nodes = (
(130,582,l),
(27,742,l),
(-36,722,l),
(74,572,l)
);
}
);
};
layerId = "E39CE873-C6CB-4040-8FBA-1D86B139B3E5";
shapes = (
{
ref = idotless;
},
{
pos = (-26,0);
ref = gravecomb;
}
);
width = 219;
}
);
unicode = 236;
},
{
glyphname = imacron;
kernLeft = i;
kernRight = i;
lastChange = "2024-12-19 13:17:38 +0000";
layers = (
{
background = {
anchors = (
{
name = bottom;
pos = (110,0);
},
{
name = ogonek;
pos = (151,0);
},
{
name = top;
pos = (110.44,654);
}
);
shapes = (
{
closed = 1;
nodes = (
(151,0,l),
(151,504,l),
(68,504,l),
(68,0,l)
);
},
{
closed = 1;
nodes = (
(231,599,l),
(231,654,l),
(-11,654,l),
(-11,599,l)
);
}
);
};
layerId = "E39CE873-C6CB-4040-8FBA-1D86B139B3E5";
shapes = (
{
ref = idotless;
},
{
pos = (-11,0);
ref = macroncomb.short;
scale = (0.88,1);
}
);
width = 219;
}
);
unicode = 299;
},
{
glyphname = iogonek;
kernLeft = i;
kernRight = i;
lastChange = "2024-12-19 13:17:24 +0000";
layers = (
{
background = {
shapes = (
{
closed = 1;
nodes = (
(165,-106,l),
(133,-109,o),
(94,-102,o),
(94,-65,cs),
(94,-37,o),
(114,-19,o),
(140,0,c),
(151,0,l),
(151,504,l),
(68,504,l),
(68,0,l),
(79,0,l),
(51,-22,o),
(25,-45,o),
(25,-80,cs),
(25,-155,o),
(109,-171,o),
(165,-158,c)
);
},
{
closed = 1;
nodes = (
(151,610,l),
(151,700,l),
(68,700,l),
(68,610,l)
);
}
);
};
layerId = "E39CE873-C6CB-4040-8FBA-1D86B139B3E5";
shapes = (
{
closed = 1;
nodes = (
(165,-106,l),
(133,-109,o),
(94,-102,o),
(94,-65,cs),
(94,-37,o),
(114,-19,o),
(140,0,c),
(151,0,l),
(151,504,l),
(68,504,l),
(68,0,l),
(79,0,l),
(51,-22,o),
(25,-45,o),
(25,-80,cs),
(25,-155,o),
(109,-171,o),
(165,-158,c)
);
},
{
closed = 1;
nodes = (
(151,610,l),
(151,700,l),
(68,700,l),
(68,610,l)
);
}
);
width = 219;
}
);
unicode = 303;
},
{
glyphname = itilde;
kernLeft = i;
kernRight = i;
lastChange = "2024-12-19 13:17:38 +0000";
layers = (
{
background = {
anchors = (
{
name = bottom;
pos = (110,0);
},
{
name = ogonek;
pos = (151,0);
},
{
name = top;
pos = (110,688);
}
);
shapes = (
{
closed = 1;
nodes = (
(151,0,l),
(151,504,l),
(68,504,l),
(68,0,l)
);
},
{
closed = 1;
nodes = (
(198,584,o),
(236,610,o),
(244,682,c),
(193,682,l),
(191,656,o),
(182,636,o),
(164,636,cs),
(131,636,o),
(111,688,o),
(56,688,cs),
(17,688,o),
(-18,657,o),
(-25,590,c),
(26,590,l),
(28,620,o),
(40,636,o),
(57,636,cs),
(88,636,o),
(111,584,o),
(161,584,cs)
);
}
);
};
layerId = "E39CE873-C6CB-4040-8FBA-1D86B139B3E5";
shapes = (
{
ref = idotless;
},
{
pos = (-25,0);
ref = tildecomb.short;
}
);
width = 219;
}
);
unicode = 297;
},
{
glyphname = ij;
kernLeft = i;
kernRight = i;
lastChange = "2024-12-19 13:17:38 +0000";
layers = (
{
background = {
anchors = (
{
name = bottom;
pos = (109,0);
}
);
shapes = (
{
closed = 1;
nodes = (
(151,0,l),
(151,504,l),
(68,504,l),
(68,0,l)
);
},
{
closed = 1;
nodes = (
(151,610,l),
(151,700,l),
(68,700,l),
(68,610,l)
);
},
{
closed = 1;
nodes = (
(309,-177,o),
(370,-131,o),
(370,-35,cs),
(370,504,l),
(287,504,l),
(287,-31,ls),
(287,-103,o),
(246,-114,o),
(214,-114,cs),
(187,-114,o),
(164,-109,o),
(141,-102,c),
(141,-164,l),
(167,-172,o),
(194,-177,o),
(225,-177,cs)
);
},
{
closed = 1;
nodes = (
(370,610,l),
(370,700,l),
(287,700,l),
(287,610,l)
);
}
);
};
layerId = "E39CE873-C6CB-4040-8FBA-1D86B139B3E5";
shapes = (
{
ref = i;
},
{
pos = (219,0);
ref = j;
}
);
width = 438;
}
);
metricLeft = i;
metricRight = j;
unicode = 307;
},
{
glyphname = j;
kernLeft = i;
kernRight = i;
lastChange = "2024-12-19 13:17:24 +0000";
layers = (
{
background = {
shapes = (
{
closed = 1;
nodes = (
(90,-177,o),
(151,-131,o),
(151,-35,cs),
(151,504,l),
(68,504,l),
(68,-31,ls),
(68,-103,o),
(27,-114,o),
(-5,-114,cs),
(-32,-114,o),
(-55,-109,o),
(-78,-102,c),
(-78,-164,l),
(-52,-172,o),
(-25,-177,o),
(6,-177,cs)
);
},
{
closed = 1;
nodes = (
(151,610,l),
(151,700,l),
(68,700,l),
(68,610,l)
);
}
);
};
guides = (
{
angle = 180;
pos = (143,-185);
}
);
layerId = "E39CE873-C6CB-4040-8FBA-1D86B139B3E5";
shapes = (
{
closed = 1;
nodes = (
(90,-177,o),
(151,-131,o),
(151,-35,cs),
(151,504,l),
(68,504,l),
(68,-31,ls),
(68,-103,o),
(27,-114,o),
(-5,-114,cs),
(-32,-114,o),
(-55,-109,o),
(-78,-102,c),
(-78,-164,l),
(-52,-172,o),
(-25,-177,o),
(6,-177,cs)
);
},
{
closed = 1;
nodes = (
(151,610,l),
(151,700,l),
(68,700,l),
(68,610,l)
);
}
);
width = 219;
}
);
note = j;
unicode = 106;
},
{
glyphname = jdotless;
kernLeft = i;
kernRight = i;
lastChange = "2024-12-19 13:17:24 +0000";
layers = (
{
anchors = (
{
name = bottom;
pos = (108,-165);
},
{
name = top;
pos = (108,504);
}
);
background = {
anchors = (
{
name = bottom;
pos = (108,-165);
},
{
name = top;
pos = (108,504);
}
);
shapes = (
{
closed = 1;
nodes = (
(90,-177,o),
(151,-131,o),
(151,-35,cs),
(151,504,l),
(68,504,l),
(68,-31,ls),
(68,-103,o),
(27,-114,o),
(-5,-114,cs),
(-32,-114,o),
(-55,-109,o),
(-78,-102,c),
(-78,-164,l),
(-52,-172,o),
(-25,-177,o),
(6,-177,cs)
);
}
);
};
layerId = "E39CE873-C6CB-4040-8FBA-1D86B139B3E5";
shapes = (
{
closed = 1;
nodes = (
(90,-177,o),
(151,-131,o),
(151,-35,cs),
(151,504,l),
(68,504,l),
(68,-31,ls),
(68,-103,o),
(27,-114,o),
(-5,-114,cs),
(-32,-114,o),
(-55,-109,o),
(-78,-102,c),
(-78,-164,l),
(-52,-172,o),
(-25,-177,o),
(6,-177,cs)
);
}
);
width = 219;
}
);
unicode = 567;
},
{
glyphname = jcircumflex;
kernLeft = i;
kernRight = i;
lastChange = "2024-12-19 13:17:38 +0000";
layers = (
{
background = {
anchors = (
{
name = bottom;
pos = (108,-165);
},
{
name = top;
pos = (108,723);
}
);
shapes = (
{
closed = 1;
nodes = (
(90,-177,o),
(151,-131,o),
(151,-35,cs),
(151,504,l),
(68,504,l),
(68,-31,ls),
(68,-103,o),
(27,-114,o),
(-5,-114,cs),
(-32,-114,o),
(-55,-109,o),
(-78,-102,c),
(-78,-164,l),
(-52,-172,o),
(-25,-177,o),
(6,-177,cs)
);
},
{
closed = 1;
nodes = (
(40,593,l),
(125,700,l),
(93,700,l),
(176,593,l),
(247,593,l),
(143,723,l),
(73,723,l),
(-31,593,l)
);
}
);
};
layerId = "E39CE873-C6CB-4040-8FBA-1D86B139B3E5";
shapes = (
{
ref = jdotless;
},
{
pos = (-31,0);
ref = circumflexcomb.short;
}
);
width = 219;
}
);
unicode = 309;
},
{
glyphname = k;
kernLeft = h;
kernRight = k;
lastChange = "2024-12-19 13:17:24 +0000";
layers = (
{
anchors = (
{
name = bottom;
pos = (243,0);
},
{
name = top;
pos = (243,758);
}
);
background = {
anchors = (
{
name = bottom;
pos = (243,0);
},
{
name = top;
pos = (243,758);
}
);
shapes = (
{
closed = 1;
nodes = (
(151,0,l),
(151,710,l),
(68,710,l),
(68,0,l)
);
},
{
closed = 1;
nodes = (
(462,0,l),
(261,330,l),
(192,295,l),
(368,0,l)
);
},
{
closed = 1;
nodes = (
(226,256,l),
(242,271,l),
(464,504,l),
(370,504,l),
(136,252,l),
(140,161,l)
);
}
);
};
layerId = "E39CE873-C6CB-4040-8FBA-1D86B139B3E5";
shapes = (
{
closed = 1;
nodes = (
(151,0,l),
(151,710,l),
(68,710,l),
(68,0,l)
);
},
{
closed = 1;
nodes = (
(462,0,l),
(261,330,l),
(192,295,l),
(368,0,l)
);
},
{
closed = 1;
nodes = (
(226,256,l),
(242,271,l),
(464,504,l),
(370,504,l),
(136,252,l),
(140,161,l)
);
}
);
width = 470;
}
);
note = k;
unicode = 107;
},
{
glyphname = kcommaaccent;
kernLeft = h;
kernRight = k;
lastChange = "2024-12-19 13:17:38 +0000";
layers = (
{
background = {
anchors = (
{
name = bottom;
pos = (243,-242);
},
{
name = top;
pos = (243,758);
}
);
shapes = (
{
closed = 1;
nodes = (
(151,0,l),
(151,710,l),
(68,710,l),
(68,0,l)
);
},
{
closed = 1;
nodes = (
(462,0,l),
(261,330,l),
(192,295,l),
(368,0,l)
);
},
{
closed = 1;
nodes = (
(226,256,l),
(242,271,l),
(464,504,l),
(370,504,l),
(136,252,l),
(140,161,l)
);
},
{
closed = 1;
nodes = (
(252,-242,l),
(287,-142,l),
(287,-75,l),
(199,-75,l),
(199,-158,l),
(231,-158,l),
(203,-242,l)
);
}
);
};
layerId = "E39CE873-C6CB-4040-8FBA-1D86B139B3E5";
shapes = (
{
ref = k;
},
{
pos = (199,0);
ref = commaaccentcomb;
}
);
width = 470;
}
);
unicode = 311;
},
{
glyphname = kgreenlandic;
kernLeft = n;
kernRight = k;
lastChange = "2024-12-19 13:17:24 +0000";
layers = (
{
anchors = (
{
name = bottom;
pos = (244,0);
},
{
name = top;
pos = (244,504);
}
);
background = {
anchors = (
{
name = bottom;
pos = (244,0);
},
{
name = top;
pos = (244,504);
}
);
shapes = (
{
closed = 1;
nodes = (
(226,256,l),
(242,271,l),
(464,504,l),
(370,504,l),
(136,252,l),
(140,161,l)
);
},
{
closed = 1;
nodes = (
(151,0,l),
(151,504,l),
(68,504,l),
(68,0,l)
);
},
{
closed = 1;
nodes = (
(462,0,l),
(261,330,l),
(192,295,l),
(368,0,l)
);
}
);
};
layerId = "E39CE873-C6CB-4040-8FBA-1D86B139B3E5";
shapes = (
{
closed = 1;
nodes = (
(226,256,l),
(242,271,l),
(464,504,l),
(370,504,l),
(136,252,l),
(140,161,l)
);
},
{
closed = 1;
nodes = (
(151,0,l),
(151,504,l),
(68,504,l),
(68,0,l)
);
},
{
closed = 1;
nodes = (
(462,0,l),
(261,330,l),
(192,295,l),
(368,0,l)
);
}
);
width = 470;
}
);
unicode = 312;
},
{
glyphname = l;
kernLeft = h;
kernRight = d;
lastChange = "2024-12-19 13:17:24 +0000";
layers = (
{
anchors = (
{
name = bottom;
pos = (110,0);
},
{
name = center;
pos = (110,379);
},
{
name = top;
pos = (118,710);
},
{
name = topright;
pos = (185,710);
}
);
background = {
anchors = (
{
name = bottom;
pos = (110,0);
},
{
name = center;
pos = (110,379);
},
{
name = top;
pos = (118,710);
},
{
name = topright;
pos = (185,710);
}
);
shapes = (
{
closed = 1;
nodes = (
(151,0,l),
(151,710,l),
(68,710,l),
(68,0,l)
);
}
);
};
layerId = "E39CE873-C6CB-4040-8FBA-1D86B139B3E5";
shapes = (
{
closed = 1;
nodes = (
(151,0,l),
(151,710,l),
(68,710,l),
(68,0,l)
);
}
);
width = 219;
}
);
note = l;
unicode = 108;
},
{
glyphname = lacute;
kernLeft = h;
kernRight = d;
lastChange = "2024-12-19 13:17:38 +0000";
layers = (
{
background = {
anchors = (
{
name = bottom;
pos = (110,0);
},
{
name = center;
pos = (110,379);
},
{
name = top;
pos = (161,913);
},
{
name = topright;
pos = (185,710);
}
);
shapes = (
{
closed = 1;
nodes = (
(151,0,l),
(151,710,l),
(68,710,l),
(68,0,l)
);
},
{
closed = 1;
nodes = (
(239,893,l),
(176,913,l),
(83,778,l),
(139,768,l)
);
}
);
};
layerId = "E39CE873-C6CB-4040-8FBA-1D86B139B3E5";
shapes = (
{
ref = l;
},
{
pos = (83,0);
ref = acutecomb.case;
}
);
width = 219;
}
);
unicode = 314;
},
{
glyphname = lcaron;
kernLeft = h;
kernRight = dcaron;
lastChange = "2024-12-19 13:17:38 +0000";
layers = (
{
background = {
anchors = (
{
name = bottom;
pos = (110,0);
},
{
name = center;
pos = (110,379);
},
{
name = top;
pos = (118,710);
},
{
name = topright;
pos = (185,710);
}
);
shapes = (
{
closed = 1;
nodes = (
(260,498,l),
(287,710,l),
(219,710,l),
(209,498,l)
);
},
{
closed = 1;
nodes = (
(151,0,l),
(151,710,l),
(68,710,l),
(68,0,l)
);
}
);
};
layerId = "E39CE873-C6CB-4040-8FBA-1D86B139B3E5";
shapes = (
{
closed = 1;
nodes = (
(260,498,l),
(287,710,l),
(219,710,l),
(209,498,l)
);
},
{
ref = l;
userData = {
UFO.identifier = 40A5FE0B;
};
}
);
width = 258;
}
);
unicode = 318;
},
{
glyphname = lcommaaccent;
kernLeft = h;
kernRight = d;
lastChange = "2024-12-19 13:17:38 +0000";
layers = (
{
background = {
anchors = (
{
name = bottom;
pos = (110,-242);
},
{
name = center;
pos = (110,379);
},
{
name = top;
pos = (118,710);
},
{
name = topright;
pos = (185,710);
}
);
shapes = (
{
closed = 1;
nodes = (
(151,0,l),
(151,710,l),
(68,710,l),
(68,0,l)
);
},
{
closed = 1;
nodes = (
(119,-242,l),
(154,-142,l),
(154,-75,l),
(66,-75,l),
(66,-158,l),
(98,-158,l),
(70,-242,l)
);
}
);
};
layerId = "E39CE873-C6CB-4040-8FBA-1D86B139B3E5";
shapes = (
{
ref = l;
},
{
pos = (66,0);
ref = commaaccentcomb;
}
);
width = 219;
}
);
unicode = 316;
},
{
glyphname = ldot;
kernLeft = h;
lastChange = "2024-12-19 16:22:40 +0000";
layers = (
{
background = {
anchors = (
{
name = bottom;
pos = (110,0);
},
{
name = center;
pos = (110,379);
},
{
name = top;
pos = (118,710);
},
{
name = topright;
pos = (185,710);
}
);
shapes = (
{
closed = 1;
nodes = (
(151,0,l),
(151,710,l),
(68,710,l),
(68,0,l)
);
},
{
closed = 1;
nodes = (
(279,246,l),
(279,335,l),
(191,335,l),
(191,246,l)
);
}
);
};
layerId = "E39CE873-C6CB-4040-8FBA-1D86B139B3E5";
shapes = (
{
alignment = -1;
ref = l;
userData = {
UFO.identifier = 2A8B7583;
};
},
{
alignment = -1;
pos = (133,0);
ref = periodcentered;
}
);
width = 249;
}
);
unicode = 320;
},
{
glyphname = lslash;
lastChange = "2024-12-19 13:17:38 +0000";
layers = (
{
background = {
anchors = (
{
name = bottom;
pos = (150,0);
},
{
name = center;
pos = (150,379);
},
{
name = top;
pos = (158,710);
},
{
name = topright;
pos = (225,710);
}
);
shapes = (
{
closed = 1;
nodes = (
(275,382,l),
(275,451,l),
(23,310,l),
(23,241,l)
);
},
{
closed = 1;
nodes = (
(191,0,l),
(191,710,l),
(108,710,l),
(108,0,l)
);
}
);
};
layerId = "E39CE873-C6CB-4040-8FBA-1D86B139B3E5";
shapes = (
{
closed = 1;
nodes = (
(275,382,l),
(275,451,l),
(23,310,l),
(23,241,l)
);
},
{
pos = (40,0);
ref = l;
}
);
width = 296;
}
);
unicode = 322;
},
{
glyphname = m;
kernLeft = n;
kernRight = n;
lastChange = "2024-12-19 13:17:24 +0000";
layers = (
{
anchors = (
{
name = bottom;
pos = (400,0);
},
{
name = top;
pos = (400,493);
}
);
background = {
anchors = (
{
name = bottom;
pos = (400,0);
},
{
name = top;
pos = (400,493);
}
);
shapes = (
{
closed = 1;
nodes = (
(450,0,l),
(450,314,ls),
(450,413,o),
(509,449,o),
(569,449,cs),
(626,449,o),
(666,410,o),
(666,323,cs),
(666,0,l),
(749,0,l),
(749,332,ls),
(749,446,o),
(677,516,o),
(583,516,cs),
(503,516,o),
(447,465,o),
(421,400,c),
(440,406,l),
(423,471,o),
(372,516,o),
(293,516,cs),
(220,516,o),
(150,476,o),
(126,366,c),
(151,314,l),
(151,413,o),
(210,449,o),
(270,449,cs),
(327,449,o),
(367,410,o),
(367,323,cs),
(367,0,l)
);
},
{
closed = 1;
nodes = (
(151,0,l),
(151,382,l),
(151,390,l),
(151,504,l),
(68,504,l),
(68,0,l)
);
}
);
};
guides = (
{
pos = (258,426);
}
);
layerId = "E39CE873-C6CB-4040-8FBA-1D86B139B3E5";
shapes = (
{
closed = 1;
nodes = (
(450,0,l),
(450,314,ls),
(450,413,o),
(509,449,o),
(569,449,cs),
(626,449,o),
(666,410,o),
(666,323,cs),
(666,0,l),
(749,0,l),
(749,332,ls),
(749,446,o),
(677,516,o),
(583,516,cs),
(503,516,o),
(447,465,o),
(421,400,c),
(440,406,l),
(423,471,o),
(372,516,o),
(293,516,cs),
(220,516,o),
(150,476,o),
(126,366,c),
(151,314,l),
(151,413,o),
(210,449,o),
(270,449,cs),
(327,449,o),
(367,410,o),
(367,323,cs),
(367,0,l)
);
},
{
closed = 1;
nodes = (
(151,0,l),
(151,382,l),
(151,390,l),
(151,504,l),
(68,504,l),
(68,0,l)
);
}
);
width = 813;
}
);
note = m;
unicode = 109;
},
{
glyphname = n;
kernLeft = n;
kernRight = n;
lastChange = "2024-12-19 13:17:24 +0000";
layers = (
{
anchors = (
{
name = bottom;
pos = (266,0);
},
{
name = top;
pos = (277,493);
}
);
background = {
anchors = (
{
name = bottom;
pos = (266,0);
},
{
name = top;
pos = (277,493);
}
);
shapes = (
{
closed = 1;
nodes = (
(468,0,l),
(468,332,ls),
(468,446,o),
(400,516,o),
(300,516,cs),
(215,516,o),
(153,470,o),
(129,380,c),
(151,314,l),
(151,413,o),
(215,449,o),
(278,449,cs),
(345,449,o),
(385,410,o),
(385,323,cs),
(385,0,l)
);
},
{
closed = 1;
nodes = (
(151,0,l),
(151,382,l),
(151,390,l),
(151,504,l),
(68,504,l),
(68,0,l)
);
}
);
};
guides = (
{
pos = (568,432);
}
);
layerId = "E39CE873-C6CB-4040-8FBA-1D86B139B3E5";
shapes = (
{
closed = 1;
nodes = (
(468,0,l),
(468,332,ls),
(468,446,o),
(400,516,o),
(300,516,cs),
(215,516,o),
(153,470,o),
(129,380,c),
(151,314,l),
(151,413,o),
(215,449,o),
(278,449,cs),
(345,449,o),
(385,410,o),
(385,323,cs),
(385,0,l)
);
},
{
closed = 1;
nodes = (
(151,0,l),
(151,382,l),
(151,390,l),
(151,504,l),
(68,504,l),
(68,0,l)
);
}
);
width = 532;
}
);
note = n;
unicode = 110;
},
{
glyphname = nacute;
kernLeft = n;
kernRight = n;
lastChange = "2024-12-19 13:17:38 +0000";
layers = (
{
anchors = (
{
name = bottom;
pos = (266,0);
},
{
name = top;
pos = (277,493);
}
);
background = {
anchors = (
{
name = bottom;
pos = (266,0);
},
{
name = top;
pos = (277,493);
}
);
shapes = (
{
closed = 1;
nodes = (
(468,0,l),
(468,332,ls),
(468,446,o),
(400,516,o),
(300,516,cs),
(215,516,o),
(153,470,o),
(129,380,c),
(151,314,l),
(151,413,o),
(215,449,o),
(278,449,cs),
(345,449,o),
(385,410,o),
(385,323,cs),
(385,0,l)
);
},
{
closed = 1;
nodes = (
(151,0,l),
(151,382,l),
(151,390,l),
(151,504,l),
(68,504,l),
(68,0,l)
);
},
{
closed = 1;
nodes = (
(413,711,l),
(350,731,l),
(247,571,l),
(303,561,l)
);
}
);
};
layerId = "E39CE873-C6CB-4040-8FBA-1D86B139B3E5";
shapes = (
{
ref = n;
},
{
pos = (247,-11);
ref = acutecomb;
}
);
width = 532;
}
);
unicode = 324;
},
{
glyphname = ncaron;
kernLeft = n;
kernRight = n;
lastChange = "2024-12-19 13:17:38 +0000";
layers = (
{
anchors = (
{
name = bottom;
pos = (266,0);
},
{
name = top;
pos = (277,493);
}
);
background = {
anchors = (
{
name = bottom;
pos = (266,0);
},
{
name = top;
pos = (277,493);
}
);
shapes = (
{
closed = 1;
nodes = (
(468,0,l),
(468,332,ls),
(468,446,o),
(400,516,o),
(300,516,cs),
(215,516,o),
(153,470,o),
(129,380,c),
(151,314,l),
(151,413,o),
(215,449,o),
(278,449,cs),
(345,449,o),
(385,410,o),
(385,323,cs),
(385,0,l)
);
},
{
closed = 1;
nodes = (
(151,0,l),
(151,382,l),
(151,390,l),
(151,504,l),
(68,504,l),
(68,0,l)
);
},
{
closed = 1;
nodes = (
(312,571,l),
(416,701,l),
(345,701,l),
(262,594,l),
(294,594,l),
(209,701,l),
(138,701,l),
(242,571,l)
);
}
);
};
layerId = "E39CE873-C6CB-4040-8FBA-1D86B139B3E5";
shapes = (
{
ref = n;
},
{
pos = (138,-11);
ref = caroncomb;
}
);
width = 532;
}
);
unicode = 328;
},
{
glyphname = ncommaaccent;
kernLeft = n;
kernRight = n;
lastChange = "2024-12-19 13:17:38 +0000";
layers = (
{
background = {
anchors = (
{
name = bottom;
pos = (266,-242);
},
{
name = top;
pos = (277,493);
}
);
shapes = (
{
closed = 1;
nodes = (
(468,0,l),
(468,332,ls),
(468,446,o),
(400,516,o),
(300,516,cs),
(215,516,o),
(153,470,o),
(129,380,c),
(151,314,l),
(151,413,o),
(215,449,o),
(278,449,cs),
(345,449,o),
(385,410,o),
(385,323,cs),
(385,0,l)
);
},
{
closed = 1;
nodes = (
(151,0,l),
(151,382,l),
(151,390,l),
(151,504,l),
(68,504,l),
(68,0,l)
);
},
{
closed = 1;
nodes = (
(275,-242,l),
(310,-142,l),
(310,-75,l),
(222,-75,l),
(222,-158,l),
(254,-158,l),
(226,-242,l)
);
}
);
};
layerId = "E39CE873-C6CB-4040-8FBA-1D86B139B3E5";
shapes = (
{
ref = n;
},
{
pos = (222,0);
ref = commaaccentcomb;
}
);
width = 532;
}
);
unicode = 326;
},
{
glyphname = ntilde;
kernLeft = n;
kernRight = n;
lastChange = "2024-12-19 13:17:38 +0000";
layers = (
{
anchors = (
{
name = bottom;
pos = (266,0);
},
{
name = top;
pos = (277,493);
}
);
background = {
anchors = (
{
name = bottom;
pos = (266,0);
},
{
name = top;
pos = (277,493);
}
);
shapes = (
{
closed = 1;
nodes = (
(468,0,l),
(468,332,ls),
(468,446,o),
(400,516,o),
(300,516,cs),
(215,516,o),
(153,470,o),
(129,380,c),
(151,314,l),
(151,413,o),
(215,449,o),
(278,449,cs),
(345,449,o),
(385,410,o),
(385,323,cs),
(385,0,l)
);
},
{
closed = 1;
nodes = (
(151,0,l),
(151,382,l),
(151,390,l),
(151,504,l),
(68,504,l),
(68,0,l)
);
},
{
closed = 1;
nodes = (
(365,583,o),
(405,610,o),
(414,681,c),
(361,681,l),
(359,654,o),
(349,635,o),
(331,635,cs),
(295,635,o),
(275,687,o),
(216,687,cs),
(176,687,o),
(139,656,o),
(131,589,c),
(183,589,l),
(185,620,o),
(199,635,o),
(216,635,cs),
(250,635,o),
(273,583,o),
(326,583,cs)
);
}
);
};
layerId = "E39CE873-C6CB-4040-8FBA-1D86B139B3E5";
shapes = (
{
ref = n;
},
{
pos = (131,-11);
ref = tildecomb;
}
);
width = 532;
}
);
unicode = 241;
},
{
glyphname = eng;
kernLeft = n;
kernRight = n;
lastChange = "2024-12-19 13:17:24 +0000";
layers = (
{
anchors = (
{
name = bottom;
pos = (266,0);
},
{
name = top;
pos = (277,493);
}
);
background = {
anchors = (
{
name = bottom;
pos = (266,0);
},
{
name = top;
pos = (277,493);
}
);
shapes = (
{
closed = 1;
nodes = (
(407,-177,o),
(468,-131,o),
(468,-35,cs),
(468,332,ls),
(468,446,o),
(400,516,o),
(300,516,cs),
(215,516,o),
(153,470,o),
(129,380,c),
(151,314,l),
(151,413,o),
(215,449,o),
(278,449,cs),
(345,449,o),
(385,410,o),
(385,323,cs),
(385,-31,ls),
(385,-103,o),
(344,-114,o),
(312,-114,cs),
(285,-114,o),
(262,-109,o),
(239,-102,c),
(239,-164,l),
(265,-172,o),
(292,-177,o),
(323,-177,cs)
);
},
{
closed = 1;
nodes = (
(151,0,l),
(151,382,l),
(151,390,l),
(151,504,l),
(68,504,l),
(68,0,l)
);
}
);
};
layerId = "E39CE873-C6CB-4040-8FBA-1D86B139B3E5";
shapes = (
{
closed = 1;
nodes = (
(407,-177,o),
(468,-131,o),
(468,-35,cs),
(468,332,ls),
(468,446,o),
(400,516,o),
(300,516,cs),
(215,516,o),
(153,470,o),
(129,380,c),
(151,314,l),
(151,413,o),
(215,449,o),
(278,449,cs),
(345,449,o),
(385,410,o),
(385,323,cs),
(385,-31,ls),
(385,-103,o),
(344,-114,o),
(312,-114,cs),
(285,-114,o),
(262,-109,o),
(239,-102,c),
(239,-164,l),
(265,-172,o),
(292,-177,o),
(323,-177,cs)
);
},
{
closed = 1;
nodes = (
(151,0,l),
(151,382,l),
(151,390,l),
(151,504,l),
(68,504,l),
(68,0,l)
);
}
);
width = 532;
}
);
unicode = 331;
},
{
glyphname = o;
kernLeft = o;
kernRight = o;
lastChange = "2024-12-19 13:17:24 +0000";
layers = (
{
anchors = (
{
name = bottom;
pos = (268,0);
},
{
name = center;
pos = (268,252);
},
{
name = ogonek;
pos = (482,10);
},
{
name = top;
pos = (268,504);
},
{
name = topright;
pos = (516,504);
}
);
background = {
anchors = (
{
name = bottom;
pos = (268,0);
},
{
name = center;
pos = (268,252);
},
{
name = ogonek;
pos = (482,10);
},
{
name = top;
pos = (268,504);
},
{
name = topright;
pos = (516,504);
}
);
shapes = (
{
closed = 1;
nodes = (
(398,-12,o),
(496,85,o),
(496,252,cs),
(496,419,o),
(398,516,o),
(268,516,cs),
(138,516,o),
(40,420,o),
(40,252,cs),
(40,84,o),
(138,-12,o),
(268,-12,cs)
);
},
{
closed = 1;
nodes = (
(182,54,o),
(123,111,o),
(123,236,cs),
(123,268,ls),
(123,393,o),
(182,450,o),
(268,450,cs),
(353,450,o),
(413,392,o),
(413,266,cs),
(413,238,ls),
(413,112,o),
(353,54,o),
(268,54,cs)
);
}
);
};
layerId = "E39CE873-C6CB-4040-8FBA-1D86B139B3E5";
shapes = (
{
closed = 1;
nodes = (
(398,-12,o),
(496,85,o),
(496,252,cs),
(496,419,o),
(398,516,o),
(268,516,cs),
(138,516,o),
(40,420,o),
(40,252,cs),
(40,84,o),
(138,-12,o),
(268,-12,cs)
);
},
{
closed = 1;
nodes = (
(182,54,o),
(123,111,o),
(123,236,cs),
(123,268,ls),
(123,393,o),
(182,450,o),
(268,450,cs),
(353,450,o),
(413,392,o),
(413,266,cs),
(413,238,ls),
(413,112,o),
(353,54,o),
(268,54,cs)
);
}
);
width = 536;
}
);
note = o;
unicode = 111;
},
{
glyphname = oacute;
kernLeft = o;
kernRight = o;
lastChange = "2024-12-19 13:17:38 +0000";
layers = (
{
background = {
anchors = (
{
name = bottom;
pos = (268,0);
},
{
name = center;
pos = (268,252);
},
{
name = ogonek;
pos = (482,10);
},
{
name = top;
pos = (336,719);
},
{
name = topright;
pos = (516,504);
}
);
shapes = (
{
closed = 1;
nodes = (
(398,-12,o),
(496,85,o),
(496,252,cs),
(496,419,o),
(398,516,o),
(268,516,cs),
(138,516,o),
(40,420,o),
(40,252,cs),
(40,84,o),
(138,-12,o),
(268,-12,cs)
);
},
{
closed = 1;
nodes = (
(182,54,o),
(123,111,o),
(123,236,cs),
(123,268,ls),
(123,393,o),
(182,450,o),
(268,450,cs),
(353,450,o),
(413,392,o),
(413,266,cs),
(413,238,ls),
(413,112,o),
(353,54,o),
(268,54,cs)
);
},
{
closed = 1;
nodes = (
(404,722,l),
(341,742,l),
(238,582,l),
(294,572,l)
);
}
);
};
layerId = "E39CE873-C6CB-4040-8FBA-1D86B139B3E5";
shapes = (
{
ref = o;
},
{
pos = (238,0);
ref = acutecomb;
}
);
width = 536;
}
);
unicode = 243;
},
{
glyphname = obreve;
kernLeft = o;
kernRight = o;
lastChange = "2024-12-19 13:17:38 +0000";
layers = (
{
background = {
anchors = (
{
name = bottom;
pos = (268,0);
},
{
name = center;
pos = (268,252);
},
{
name = ogonek;
pos = (482,10);
},
{
name = top;
pos = (268,722);
},
{
name = topright;
pos = (516,504);
}
);
shapes = (
{
closed = 1;
nodes = (
(398,-12,o),
(496,85,o),
(496,252,cs),
(496,419,o),
(398,516,o),
(268,516,cs),
(138,516,o),
(40,420,o),
(40,252,cs),
(40,84,o),
(138,-12,o),
(268,-12,cs)
);
},
{
closed = 1;
nodes = (
(182,54,o),
(123,111,o),
(123,236,cs),
(123,268,ls),
(123,393,o),
(182,450,o),
(268,450,cs),
(353,450,o),
(413,392,o),
(413,266,cs),
(413,238,ls),
(413,112,o),
(353,54,o),
(268,54,cs)
);
},
{
closed = 1;
nodes = (
(349,582,o),
(402,633,o),
(406,722,c),
(348,722,l),
(344,670,o),
(320,635,o),
(268,635,cs),
(216,635,o),
(192,670,o),
(188,722,c),
(130,722,l),
(134,633,o),
(187,582,o),
(268,582,cs)
);
}
);
};
layerId = "E39CE873-C6CB-4040-8FBA-1D86B139B3E5";
shapes = (
{
ref = o;
},
{
pos = (130,0);
ref = brevecomb;
}
);
width = 536;
}
);
unicode = 335;
},
{
glyphname = ocircumflex;
kernLeft = o;
kernRight = o;
lastChange = "2024-12-19 13:17:38 +0000";
layers = (
{
background = {
anchors = (
{
name = bottom;
pos = (268,0);
},
{
name = center;
pos = (268,252);
},
{
name = ogonek;
pos = (482,10);
},
{
name = top;
pos = (268,712);
},
{
name = topright;
pos = (516,504);
}
);
shapes = (
{
closed = 1;
nodes = (
(398,-12,o),
(496,85,o),
(496,252,cs),
(496,419,o),
(398,516,o),
(268,516,cs),
(138,516,o),
(40,420,o),
(40,252,cs),
(40,84,o),
(138,-12,o),
(268,-12,cs)
);
},
{
closed = 1;
nodes = (
(182,54,o),
(123,111,o),
(123,236,cs),
(123,268,ls),
(123,393,o),
(182,450,o),
(268,450,cs),
(353,450,o),
(413,392,o),
(413,266,cs),
(413,238,ls),
(413,112,o),
(353,54,o),
(268,54,cs)
);
},
{
closed = 1;
nodes = (
(200,582,l),
(285,689,l),
(253,689,l),
(336,582,l),
(407,582,l),
(303,712,l),
(233,712,l),
(129,582,l)
);
}
);
};
layerId = "E39CE873-C6CB-4040-8FBA-1D86B139B3E5";
shapes = (
{
ref = o;
},
{
pos = (129,0);
ref = circumflexcomb;
}
);
width = 536;
}
);
unicode = 244;
},
{
glyphname = odieresis;
kernLeft = o;
kernRight = o;
lastChange = "2024-12-19 13:17:38 +0000";
layers = (
{
background = {
anchors = (
{
name = bottom;
pos = (268,0);
},
{
name = center;
pos = (268,252);
},
{
name = ogonek;
pos = (482,10);
},
{
name = top;
pos = (268,700);
},
{
name = topright;
pos = (516,504);
}
);
shapes = (
{
closed = 1;
nodes = (
(398,-12,o),
(496,85,o),
(496,252,cs),
(496,419,o),
(398,516,o),
(268,516,cs),
(138,516,o),
(40,420,o),
(40,252,cs),
(40,84,o),
(138,-12,o),
(268,-12,cs)
);
},
{
closed = 1;
nodes = (
(182,54,o),
(123,111,o),
(123,236,cs),
(123,268,ls),
(123,393,o),
(182,450,o),
(268,450,cs),
(353,450,o),
(413,392,o),
(413,266,cs),
(413,238,ls),
(413,112,o),
(353,54,o),
(268,54,cs)
);
},
{
closed = 1;
nodes = (
(228,610,l),
(228,700,l),
(145,700,l),
(145,610,l)
);
},
{
closed = 1;
nodes = (
(391,610,l),
(391,700,l),
(308,700,l),
(308,610,l)
);
}
);
};
layerId = "E39CE873-C6CB-4040-8FBA-1D86B139B3E5";
shapes = (
{
ref = o;
},
{
pos = (145,0);
ref = dieresiscomb;
}
);
width = 536;
}
);
unicode = 246;
},
